<?xml version="1.0" standalone="no"?>
<!DOCTYPE svg PUBLIC "-//W3C//DTD SVG 20010904//EN"
 "http://www.w3.org/TR/2001/REC-SVG-20010904/DTD/svg10.dtd">
<svg version="1.0" xmlns="http://www.w3.org/2000/svg"
 width="700.000000pt" height="700.000000pt" viewBox="0 0 700.000000 700.000000"
 preserveAspectRatio="xMidYMid meet">
<metadata>
Created by potrace 1.14, written by Peter Selinger 2001-2017
</metadata>
<g transform="translate(0.000000,700.000000) scale(0.100000,-0.100000)"
fill="#000000" stroke="none">
<path d="M0 3500 l0 -3500 3500 0 3500 0 0 3500 0 3500 -3500 0 -3500 0 0
-3500z m6877 3376 c7 -6 6 -6746 0 -6753 -7 -6 -6747 -7 -6753 0 -4 4 -8 6158
-4 6699 l0 57 83 3 c143 5 6669 0 6674 -6z"/>
<path d="M5580 6274 c-79 -42 -131 -92 -172 -164 -46 -81 -139 -168 -232 -215
-94 -48 -173 -128 -200 -201 -34 -98 -66 -153 -119 -210 -30 -33 -84 -93 -120
-135 -95 -110 -148 -153 -224 -184 -120 -48 -181 -107 -243 -233 -22 -46 -40
-84 -40 -86 0 -1 64 62 143 142 151 153 186 177 263 187 105 14 177 68 266
198 22 32 71 93 110 135 39 42 88 103 110 135 67 99 155 180 233 216 103 48
207 129 247 192 27 43 79 202 74 225 -9 35 -28 34 -96 -2z"/>
<path d="M4810 6290 c-78 -22 -141 -79 -195 -176 -20 -35 -52 -80 -71 -101
-51 -53 -91 -106 -136 -174 -56 -87 -137 -162 -228 -210 -99 -53 -176 -127
-237 -230 -51 -87 -128 -170 -219 -239 -32 -25 -81 -66 -109 -92 -72 -67 -92
-81 -164 -118 -101 -50 -163 -117 -222 -234 -30 -63 -69 -122 -100 -156 -28
-30 -76 -86 -107 -125 -77 -97 -112 -134 -227 -234 -55 -49 -118 -105 -140
-125 -22 -21 -70 -55 -107 -77 -73 -43 -101 -72 -118 -125 -22 -66 -7 -69 72
-15 40 27 116 70 168 95 115 55 194 127 275 249 59 90 141 176 220 233 69 48
162 139 226 221 29 37 82 100 117 138 36 39 84 104 108 145 70 118 146 192
254 244 31 15 87 55 126 90 39 34 101 81 138 104 37 24 91 67 120 97 44 46 57
68 76 128 36 119 52 147 120 217 133 135 257 226 358 259 86 28 119 49 138 89
26 56 27 86 4 107 -22 20 -95 28 -140 15z"/>
<path d="M3989 6220 c-77 -46 -143 -95 -196 -147 -83 -80 -114 -130 -148 -233
-26 -77 -117 -168 -200 -199 -108 -40 -189 -111 -280 -247 -18 -27 -77 -92
-131 -144 -208 -201 -259 -257 -287 -313 -59 -118 -132 -194 -256 -266 -84
-50 -170 -134 -227 -222 -24 -38 -44 -72 -44 -76 0 -3 17 11 37 32 22 23 73
55 131 82 67 31 112 60 156 101 33 32 97 89 140 127 134 118 607 598 626 635
9 19 23 53 30 75 40 125 124 210 220 222 65 8 107 23 148 53 44 32 88 97 96
145 19 107 28 142 44 169 21 36 85 82 127 92 67 14 97 36 121 88 23 50 31 96
17 96 -5 0 -60 -31 -124 -70z"/>
<path d="M1750 6261 c-101 -36 -154 -82 -202 -175 -31 -61 -114 -151 -227
-247 -36 -30 -85 -75 -110 -100 -25 -25 -77 -72 -116 -103 -38 -32 -122 -111
-185 -175 -104 -104 -121 -127 -173 -227 -81 -158 -74 -191 29 -141 55 27 81
59 149 182 37 67 453 487 570 574 50 38 131 95 180 128 114 77 139 102 175
179 37 76 39 112 8 118 -33 7 -48 5 -98 -13z"/>
<path d="M2549 6261 c-160 -81 -262 -152 -359 -252 -195 -201 -296 -314 -345
-388 -32 -47 -141 -160 -195 -201 -17 -14 -50 -40 -73 -59 -56 -45 -307 -283
-491 -466 -83 -83 -179 -175 -214 -204 -102 -87 -182 -217 -182 -296 0 -31 29
-40 78 -24 52 16 80 45 115 118 39 81 103 145 209 209 118 71 215 176 267 287
14 30 85 103 191 195 52 45 118 104 145 129 28 26 82 68 120 92 77 50 136 105
235 219 35 41 76 87 90 101 14 14 49 52 78 85 30 32 65 71 79 86 27 30 138
122 220 181 41 30 60 53 84 103 16 36 29 72 27 82 -4 24 -36 25 -79 3z"/>
<path d="M3335 6267 c-68 -23 -171 -96 -224 -158 -29 -35 -79 -93 -110 -127
-31 -35 -76 -97 -101 -137 -85 -138 -139 -185 -238 -206 -73 -15 -143 -52
-183 -96 -17 -19 -53 -71 -81 -116 -38 -63 -89 -121 -222 -252 -173 -170 -173
-170 -201 -250 -34 -94 -47 -117 -94 -168 -44 -47 -94 -72 -170 -83 -87 -13
-168 -89 -246 -228 -80 -142 -143 -193 -425 -344 -36 -19 -77 -43 -92 -54 -58
-41 -115 -180 -88 -213 31 -38 188 1 254 63 15 15 52 63 81 107 66 101 116
148 231 219 131 80 171 131 229 289 26 71 99 146 197 198 96 51 189 138 263
244 27 39 70 90 95 114 44 43 129 91 161 91 21 0 97 50 139 92 19 19 69 63
110 99 133 114 170 157 216 256 53 113 102 168 219 245 50 33 95 65 100 71 6
7 50 48 98 91 89 80 116 118 135 189 17 62 1 82 -53 64z"/>
<path d="M980 6221 c-66 -20 -204 -133 -236 -193 -22 -42 -18 -85 10 -103 27
-18 48 -16 129 15 141 53 219 170 175 265 -12 26 -31 30 -78 16z"/>
<path d="M6270 6190 c-60 -16 -105 -51 -151 -118 -9 -12 -46 -55 -82 -95 -36
-39 -86 -100 -109 -134 -24 -35 -73 -93 -108 -130 -36 -38 -86 -93 -111 -123
-74 -88 -140 -150 -184 -172 -22 -12 -42 -20 -45 -19 -18 5 -81 -15 -115 -37
-53 -34 -94 -77 -157 -165 -29 -39 -69 -90 -89 -112 -69 -74 -78 -87 -95 -134
-51 -141 -110 -213 -214 -259 -110 -48 -126 -58 -182 -115 -32 -32 -72 -86
-90 -120 -19 -38 -62 -91 -108 -137 -65 -65 -85 -79 -153 -103 -78 -29 -199
-109 -265 -178 -33 -33 -74 -111 -86 -160 -4 -19 0 -34 13 -50 17 -21 27 -24
89 -23 116 1 176 51 229 190 44 116 92 169 218 236 69 36 104 67 260 224 99
100 214 207 255 237 41 30 93 72 115 93 22 22 90 83 150 136 123 108 127 113
211 218 32 41 79 95 103 120 24 25 69 74 100 110 53 62 100 112 293 315 166
173 180 191 225 275 26 47 66 113 90 147 58 83 57 100 -7 83z"/>
<path d="M6215 5406 c-56 -26 -74 -44 -133 -129 -23 -32 -106 -127 -186 -210
-204 -214 -197 -205 -288 -347 -48 -74 -121 -147 -217 -214 -93 -66 -175 -149
-264 -267 -86 -114 -150 -174 -217 -205 -30 -14 -73 -34 -95 -45 -62 -29 -121
-133 -94 -166 41 -49 249 60 355 185 31 37 86 99 123 137 89 96 400 422 483
507 37 38 82 88 100 111 107 133 190 212 303 287 72 48 128 111 168 188 58
111 70 192 29 192 -9 0 -39 -11 -67 -24z"/>
<path d="M4162 4781 c-42 -38 -70 -54 -136 -75 -136 -43 -194 -108 -235 -260
-31 -113 -66 -158 -201 -254 -36 -25 -89 -68 -117 -94 -56 -52 -107 -79 -187
-99 -85 -21 -156 -117 -122 -165 35 -48 174 -26 246 38 33 30 51 60 80 133 34
89 79 142 210 250 46 38 196 179 331 311 42 41 89 98 104 127 16 29 41 71 56
95 16 23 27 42 26 42 -1 -1 -26 -23 -55 -49z"/>
<path d="M6193 4605 c-86 -48 -103 -65 -184 -181 -82 -120 -169 -209 -295
-305 -59 -44 -106 -90 -133 -129 -51 -72 -85 -146 -77 -167 18 -45 226 35 303
115 23 26 43 49 43 53 0 14 91 119 148 171 155 142 187 180 241 289 29 59 55
125 58 148 5 38 4 41 -18 41 -13 0 -52 -16 -86 -35z"/>
<path d="M2200 4364 c0 -14 -275 -290 -323 -325 -20 -15 -61 -33 -90 -39 -28
-7 -65 -19 -80 -27 -30 -15 -66 -81 -67 -119 -1 -85 238 36 322 164 8 12 33
42 55 65 48 51 123 149 123 160 0 4 16 33 36 64 19 30 33 58 30 61 -3 3 -6 1
-6 -4z"/>
</g>
</svg>
