<svg xmlns="http://www.w3.org/2000/svg" xmlns:xlink="http://www.w3.org/1999/xlink" viewBox="0 0 254.05 152.38"><defs><style>.a{fill:none;}.b{fill:#34a7df;}.c{clip-path:url(#a);}.d{fill:#184788;}.e{fill:#fdc988;}.f{fill:#e88688;}.g{clip-path:url(#b);}</style><clipPath id="a"><rect class="a" width="254.05" height="152.38"/></clipPath><clipPath id="b"><rect class="a" x="36.69" y="-25.4" width="109.91" height="210.88"/></clipPath></defs><rect class="b" width="254.05" height="152.38"/><g class="c"><path class="d" d="M146.43,89.66c-23-21.42-29.93-65.2-12.93-87.74C148-17.26,166.55-3.48,200-25.48c33.75-22.2,41.95-54.07,66.8-52.64,7.76.44,13.29,3.91,16.63,6,30.32,19,42.77,80.48,20.78,122.22C274.86,105.79,184.72,125.4,146.43,89.66Z"/><path class="e" d="M-8.28,161.57c31.55,5.11,68.74-59.32,70.62-62.65C85.42,58.16,74.15,39.43,95.43,11.8c33.45-43.42,93.48-38.9,92.84-45.65C187.14-45.59,2.66-83.09-46.83,2.09-79.87,59-44.14,155.77-8.28,161.57Z"/><path class="f" d="M102.64,265.44c-46.32-25-46-92.64-28.38-130.1,7.07-15,22.89-37.79,37-35.56,18.36,2.91,15.46,45.31,44.78,58.19,17.18,7.55,26.48-3.36,40.31,5,20,12.05,27.2,50.89,13.58,76.91C191.78,274.54,137.74,284.35,102.64,265.44Z"/><path class="f" d="M-139.14-77.75c1.2-4.36,3.38-8.19,5.13-11.75,2-4.14,3.94-8.18,6.56-11.06a27.16,27.16,0,0,1,10.85-6.94c5-1.83,10.18-1.46,15.17,0,4.58,1.37,8.22,5.32,12.75,8.25,4.17,2.71,8.54,5.35,12.65,8.45,5,3.75,11.09,5.45,15.7,8.08,6.06,3.48,11.8,7.86,16.75,5.65,4-1.8,5.48-7.39,6.92-12.72,1.07-4,.16-8.66.31-13.91.13-4.39.57-9,.33-14-.21-4.55,2.52-9.46,2.2-14.24-.3-4.5-2.8-8.92-3-13.44s-1.21-9.18-1.21-13.62a128.11,128.11,0,0,1,1.14-13.65c.66-6.26,2.73-11.45,4.52-15.91,2.32-5.75,4.15-11.94,8.43-14.86,3.51-2.41,8.93-3.11,13.87-3.82C-5.95-207.81-1-209,4-208.39a86.82,86.82,0,0,1,13.71,3.07c5,1.5,8.87,6.9,13.94,9.28A124.67,124.67,0,0,1,46-188.65c4.57,2.91,11,3.48,15.17,7C64.52-178.91,67-175,70-172s7.17,5.53,9.79,8.87,1.65,9.47,3.82,13.1c2.26,3.78,6,6.61,7.6,10.51a87.09,87.09,0,0,1,4.61,13.37c1.06,4.5-.33,9.4.09,14.18.4,4.59,3.85,9.22,3.66,14A128.14,128.14,0,0,1,98-83.77c-.77,4.91-2.51,9.85-3.86,14.8s-4.63,9-6.46,13.83-4.36,8.94-6.61,13.52-4.57,8.81-7.22,13.16C71.08-23.88,70-18.25,66.81-14S60.74-5,57.19-1.08,49.73,6.81,45.82,10.35s-10.35,4.2-14.61,7.29-8,6.13-12.41,8.58C14.27,28.75,10.7,33,6.05,34.84,1.23,36.78-4.27,36.08-9.14,37.28c-5,1.24-9.48,5.77-14.5,6.19-4.74.39-9.74-1.72-14.65-2s-9.17-2.95-14-3.85-10.26,1.6-14.92.15A130.66,130.66,0,0,1-80.92,32.6c-4.43-2-8.57-4.77-12.75-7.21a118.22,118.22,0,0,1-11.83-8.32,105.47,105.47,0,0,1-10.61-9.75,93.54,93.54,0,0,1-9-11.15c-2.9-3.93-7.28-7-9.4-11.22s-4.52-9-5.82-13.55c-1.39-4.92-.62-10.77-1.09-16.21-.44-5.24,1.93-10.48,2.35-15.79s-1.3-11,0-16C-139-76.95-139.24-77.4-139.14-77.75Zm105.93-10.9c-1.64,5.93-5.27,10.27-10,12.38a17.06,17.06,0,0,1-12.62.64c-3.58-1.24-7.18-3.89-11-6.43-3.32-2.24-6.63-5-10.09-7.55-3.88-2.94-6.83-7.38-10.77-10a56.4,56.4,0,0,0-13.43-6.25c-4.79-1.55-9.46.37-14.12,2.07-4.05,1.47-9.51,2.14-12.67,6.14-2.64,3.35-3.24,8.66-5.12,13.28-1.65,4.09-1.59,8.8-2.55,13.54-.9,4.42-2,8.77-2.23,13.49s-3.15,9.4-2.66,14,3.52,8.93,4.77,13.36,3.74,8.54,5.83,12.73A81.19,81.19,0,0,0-123-5c2.79,3.77,5.21,7.87,8.58,11.21s8.38,4.47,12.16,7.32,6.86,6.34,10.95,8.7,8.68,3.33,13,5.2a124.6,124.6,0,0,0,13,4.94c4.55,1.38,8.26,6.07,12.85,6.91a117.53,117.53,0,0,0,14.25,1.3c4.8.28,9.43-3,14-3.43,5.07-.43,10.09-.11,15.11-1.35S.05,31.61,4.86,29.65,16,29.34,20.52,26.76s7.66-7.07,11.85-10.17A144.17,144.17,0,0,0,44,6.58C47.72,3.16,52.9,1,56.36-2.93s4-9.87,7.08-14.06,5.9-8.14,8.61-12.58c2.52-4.15,5.37-7.94,7.48-12.16s5.81-8,7.54-12.38,4-9,5.27-13.52A142.86,142.86,0,0,0,95.59-81.8c.84-4.81-.81-9.89-.55-14.59.27-4.87-.53-9.54-.89-14.22a92.62,92.62,0,0,0-2.14-14c-1.09-4.73.95-9.91-.87-14.28-.09-.6-2.63-1.19-2.79-.6s.48,1.73.12,1.24c-1.81-4.34-2-9.79-4.47-13.78s-8.28-5.6-11.29-9.2-4.61-8.44-8-11.64-5.82-8-9.53-10.75-9.87-2.42-13.81-4.77a124.36,124.36,0,0,0-12.3-6.52c-4.53-2.05-8.6-4.26-12.81-5.51a80.71,80.71,0,0,0-12.55-3.07c-4.7-.59-9-1-12.93-.49-4.73.64-9.1,1.74-12.41,4-3.86,2.64-4.88,7.51-6.86,12.16-1.73,4-2.24,8.36-2.92,13.43-.61,4.48-2.64,9-2.69,13.95-.05,4.66-2.29,9.55-2.06,14.36S-33-136.65-32.71-132c.33,4.88,1.44,9.69,1.66,14.36.23,5-2.8,9.9-3,14.41C-34.19-97.88-32.08-92.75-33.21-88.65Z"/><path class="b" d="M35.19,341c-4.77,0-9.74,1.87-14.64,1.65S10.86,341.59,6,341.16s-9.5-2.5-14.32-3.13-9.95.66-14.72-.14-8.52-7.13-13.23-8.13-9.94.12-14.59-1.06-9.41-2.41-14-3.79-9.79-1.52-14.26-3.12c-4-1.41-9-5.07-14.83-7.7a102.42,102.42,0,0,1-14.15-8.42c-5.85-3.92-10.28-7.19-10.26-11.46s3.14-8.55,10-11.34c4.11-1.66,9.46-2.93,15.33-4.48,4.69-1.24,9.44-4.31,15-5.64,4.22-1,8.65-1.62,13.06-2.74s9.41.82,13.71-.41,7.91-4.67,12.06-6.11c4.31-1.5,10,.5,13.93-1.28,4.82-2.17,6.6-8.91,10.26-11.33,4.46-3,9.17-4.26,11.93-7.65,3.25-4,6.27-7.86,7.23-12.49,1.09-5.23-1.88-9.89-3.54-14.94-1.54-4.68-1.26-10.54-4.39-15.09-2.84-4.12-7.64-7.08-11.21-11.12-3.41-3.85-4.8-9.76-8.4-13.55-3.09-3.27-9.59-3.42-12.59-6.73s-2.46-9.8-5.12-13.28a76,76,0,0,1-7.37-10.83c-2.18-4.14-7.67-7-8.42-11.33s2.43-8.89,3.61-13.46c1.27-4.94,2.85-9.68,6.08-13.9,3.06-4,7.38-6.82,11.59-10.06A80.58,80.58,0,0,1-22.86,88c4.76-2.39,8.66-7.23,13.42-8.64A69.67,69.67,0,0,1,7.27,76.19C14,76,18.69,80.92,22,83.92c3,2.75,2.83,5.24,2.45,10.26-.24,3.31,2.07,7.65,1.17,12.47-.82,4.45-1.14,9.86-2,16.26-.67,4.85-2.3,10.09-2.72,16.15-.36,5.17-3.88,9.91-4.16,14.63-.31,5.21,2.61,10.31,2.51,15-.12,5.28-1.77,10.26-1.46,14.88.36,5.32,3.3,9.77,4.47,14.23,1.31,5,.1,11.06,2.8,15.05,2.34,3.46,7.59,4.42,11.1,7,3.21,2.33,7,3.13,11.26,4.75A69.28,69.28,0,0,0,59.12,228c4.68.92,9,5.75,14,6.14,4.83.39,10-2.68,14.94-2.59s9.84,3.1,14.73,3.1c5.54,0,11-.38,16.26-.24,5.72.16,11.25-1.12,16.31-.45,5.91.78,12.3-.26,16.8,1.74,5.28,2.36,8.16,8.23,10.65,13.14,2.14,4.25,4.12,8.94,3.73,13.7-.37,4.56-3.11,9-4.84,13.4-1.8,4.57-2.58,9.72-4.8,13.41-3.62,6-6.74,10.94-7.67,12.08-3.14,3.88-10,4-13.71,7.18s-5.71,8.57-9.91,11.16-7.81,6.71-12.32,8.72-10,1.79-14.73,3.28-9.8,1.46-14.6,2.52-9.54,2.7-14.36,3.38c-5,.7-9.81,2.38-14.6,2.73-5.1.39-10.14-1.58-14.87-1.5C38.52,339,36.87,341,35.19,341ZM8.47,82C3.66,82-1.22,84.74-7.3,86.54a79.48,79.48,0,0,0-13.62,4.87c-4.44,2.21-9.32,3.38-13.24,6.36s-6,7.68-8.91,11.48c-3.14,4-10.34,6.08-11.56,10.81-1.41,5.47,1.07,11.63,2.6,16.86a54.21,54.21,0,0,0,7.27,14.62c2.89,4.31,7.49,7.61,11.19,11.82,3.53,4,6.1,9.07,9.83,13s6.94,8.35,10.48,12.36c3.69,4.19,7.67,7.87,10.58,12.18,3.19,4.72,7.31,8.9,8.83,13.81a33.74,33.74,0,0,1,.65,16.57c-1,4.9-1.9,11-5.25,15.17-2.88,3.61-7.52,7.18-12.19,10.32-3.84,2.58-9.93,2.33-15,4.61-4,1.8-7.41,5.5-11.74,7s-9.67-.94-14,.31-7.38,7.31-11.7,8.4-9.37.1-13.62,1.12c-4.93,1.19-10.05,1.34-14.59,2.53-5.27,1.39-9.28,5.22-13.28,6.71-6.76,2.53-13,3.48-13,6.75s5.17,6.48,11.68,10.63c3.72,2.38,7,7.58,12.47,10,4.36,1.95,11-.38,16.23,1.51,4.34,1.55,7.7,7.51,12.86,9,4.56,1.35,9.58,2.44,14.67,3.7,4.7,1.16,10.52-1.81,15.59-.77,4.78,1,9.13,5,14.18,5.83,4.86.8,10,.69,15,1.32S5,337.56,10,338s10.05.22,15.08.39,10-2.87,15-3c4.64-.08,9.36-.51,14.36-.88,4.71-.35,9.91,2.94,14.8,2.25s9.73-1,14.5-2,8.65-5.22,13.28-6.67,8.77-3.71,13.19-5.65,9.07-3.17,13.19-5.69,10-2.84,13.7-6,4.88-8.85,8-12.66a39.73,39.73,0,0,0,9-10c2.1-3.49,2.2-8.55,4-12.88,1.7-4.17,6.4-7.79,6.85-12.08.48-4.58-3-8.75-5-12.72-2.34-4.62-6.22-6.23-11.46-8.4a54,54,0,0,0-14.57-3.6c-4.86-.59-9.81-5.13-15.3-5.27-5.06-.13-10.37,3.14-15.69,3.14-4.94,0-9.9-3-14.88-3.1s-9.92.09-14.81-.3c-5.07-.4-10.16.58-14.9-.35s-9.85.23-13.69-1.25c-4.41-1.7-7.24-6.37-10.61-8.84-3.65-2.7-7.81-5-10.28-8.67-2.79-4.11-3.53-9.45-4.91-14.55-1.23-4.57-3.68-9.38-4.07-14.79-.34-4.73-1-9.92-.89-15.31.09-4.79,5.15-9.63,5.47-15,.28-4.82-2.56-10.06-2.2-15.33.42-6.12-1-11.91-.28-16.81.89-6.45,4-11.6,4.83-16.08s2.78-7.79,3.08-10.72c.48-4.87-.9-8.28-3.39-10.57S14.08,82,8.47,82Z"/><g class="g"><path class="d" d="M172.21,166.15c-4.48-.75-9-.77-13.25-1.75-4.43-1-7.76-5.54-11.9-6.8-4.35-1.33-10.17,1.86-14.18.27-4.24-1.68-7.7-5.17-11.54-7.13a118,118,0,0,1-12-7.29c-4-2.67-8.88-4.28-12.26-7.33s-6-7.58-8.93-11.15-4.18-8.51-6.45-12.56c-2.55-4.56-6.3-8.81-8.08-14-1.68-4.92.55-10.93-.42-16.34-.91-5.12-2.86-10-3.12-15.54A140.72,140.72,0,0,1,70,50.6c.34-5.22-2.48-11-1.61-16.19s4-10.09,5.31-15.19S79.31,10,81.12,5.08s1-11.08,3.25-15.73C86.52-15,90.44-18.1,92.8-21.79c2.66-4.15,3.21-9.61,6.06-12.83,3.34-3.78,7.84-6.11,11.32-8.48,4.21-2.87,8.81-3.91,13-4.52l.07.44c4.63-.67,8.74.58,13.42,2.37,4.18,1.61,8.81,2.8,12.87,5.8,3.69,2.73,8,5.22,11.46,8.69s5.18,8.22,8.2,11.87,4.93,8.38,7.59,12.08c3.06,4.25,9.37,5.86,11.63,9.39a59.61,59.61,0,0,1,6.08,13.12c2.21,4.05,5.2,7.45,6.82,11.1,1.87,4.23-.58,9.72.68,13.5,1.46,4.38,4.5,7.79,5.41,11.69,1.05,4.43,1.14,8.71,1.9,12.72.9,4.76,5.11,8.48,6.31,13s2.13,8.5,4.3,13c1.87,3.86,2.46,8.72,5.57,12.89s7.87,6.48,11.41,9.84c3.76,3.56,6.9,7.34,11,10.1,4.28,2.92,7.57,7.36,12,9.52,4.67,2.3,10.71.89,15.27,2.5,5,1.78,9.78,2.85,14.33,4,5.5,1.41,9.4,7.25,13.62,8.12,9.82,2,16.55.82,16.2,3.95-.14,1.23-1.81,4.92-9.32,7.7-5.17,1.91-13.32.53-21.72,2.23-2.95.6-7,4.87-13,5.79-4,.6-9.12-2.73-14.22-2.16-4.26.48-8.6,3.49-13.49,3.85-4.38.33-9.08-1.26-13.89-1.09-4.45.16-9,.81-13.77.79-4.49,0-9.14,1.29-13.84,1.07-4.53-.21-9.12-1-13.78-1.43s-9.22-.29-13.83-.95C176.26,167.53,174.27,166.5,172.21,166.15ZM123.53-45.34l.12.86c-3.94.58-9.56-.7-13.61,2.16-3.28,2.31-3.26,9-6.43,12.59-2.72,3.11-6.62,5.42-9.15,9.39a118.7,118.7,0,0,0-6.6,11.4c-2,4-2.14,8.83-3.84,13.33-1.59,4.22-4.13,8.12-5.42,12.68-1.23,4.39-4,8.49-4.87,13.09s.11,9.34-.39,14-4.45,9.07-4.53,13.7,1.47,9.43,1.87,14a115.88,115.88,0,0,0,2.26,13.83c1,4.56,5.48,8,7,12.31s1.53,9.21,3.79,13.24c2.38,4.26,2.85,10,5.88,13.64s8.8,5,12.44,8.17,6.33,7.53,10.42,10.15,9.55,2.4,13.94,4.52,8.12,5,12.7,6.71,8.81,3.87,13.5,5.14,9.24,2.77,14,3.7,9.42,2.29,14.21,2.93,9.73-.17,14.53.21,9.65-.34,14.44-.17,9.64,2.1,14.4,2.06,9.81,1.16,14.53.92c4.92-.24,9.43-4.93,14.1-5.34,5-.44,9.86.54,14.46-.06,5-.65,9.55-2.54,14-3.33s9.54,2.52,13.39,1.63c4.67-1.09,8.41-4.23,11.88-5.4,8-2.7,9.9-5.27,10-5.49-.61-1.11-8.46.25-14-.91-4.31-.89-9.42-2.37-15-3.81-4.63-1.19-9.09-4.57-14.22-6.39-4.64-1.65-10.29-1.8-15.06-4.16-4.47-2.21-8.59-5.74-12.94-8.72-4.12-2.82-6.7-7.72-10.53-11.37-3.6-3.42-9.75-4.92-12.92-9.18a83.47,83.47,0,0,1-8.05-12.52c-2.24-4.61.82-10.79-.38-15.28s-5.75-8.37-6.68-13.26c-1-5.15-2.63-10.32-4.2-16.25-1.31-4.95.26-11.31-2.09-17.08-1.93-4.74-7.41-8.29-10.38-13.75-.21-.38.59-7.21-3.76-14-2.2-3.45-7-6-10-10.16-2.59-3.62-4-8.53-7-12.25-2.79-3.39-6.37-6.59-9.7-10s-7.65-5.37-11.24-8.09c-3.84-2.93-7.48-5.72-11.5-7.36A25.3,25.3,0,0,0,123.53-45.34Z"/></g><path class="e" d="M451.66,89.81c-.82,4.7.16,9.92-.9,14.71s-2.7,9.37-4,14.08-4.1,8.93-5.54,13.57-1.06,9.91-2.68,14.47-8.49,7.16-10.28,11.64-1.59,9.8-3.56,14.18-4,8.86-6.13,13.13-3.19,9.39-5.53,13.52c-2.07,3.64-6.54,8-10.14,13.28a101.21,101.21,0,0,1-10.73,12.49c-4.87,5.09-8.84,8.89-13,8.13s-7.88-4.55-9.45-11.82c-.93-4.34-1.26-9.83-1.77-15.88-.42-4.83-2.62-10-3-15.7-.28-4.33-.12-8.81-.46-13.34s2.43-9.13,1.95-13.58-3.23-8.59-3.94-12.93c-.73-4.5,2.21-9.74,1.14-13.94-1.31-5.12-7.64-8-9.4-12-2.16-4.91-2.61-9.77-5.48-13.08-3.36-3.88-6.67-7.53-11.06-9.27-5-2-10.07.16-15.33.92-4.87.71-10.6-.57-15.62,1.73-4.55,2.09-8.29,6.31-12.88,9.13-4.38,2.7-10.44,3-14.8,5.94-3.74,2.49-5,8.87-8.79,11.24s-10.07.74-14,2.77a76.63,76.63,0,0,1-11.94,5.4c-4.45,1.43-8.23,6.34-12.6,6.34S223.44,141,219.14,139c-4.64-2.11-9-4.47-12.65-8.39-3.4-3.69-5.45-8.44-7.91-13.13a80.39,80.39,0,0,1-6.18-14c-1.54-5.1-5.63-9.78-6.2-14.71a69.54,69.54,0,0,1-.2-17c1-6.71,6.63-10.44,10.14-13.14,3.22-2.48,5.65-1.88,10.53-.65,3.22.82,7.89-.71,12.49,1,4.24,1.58,9.51,2.82,15.66,4.79,4.67,1.5,9.54,4,15.45,5.46,5,1.24,9.09,5.53,13.69,6.62,5.08,1.2,10.6-.8,15.2.11,5.18,1,9.8,3.5,14.41,4,5.29.57,10.18-1.57,14.78-2,5.2-.43,10.92,1.8,15.31-.17,3.81-1.72,5.66-6.72,8.78-9.74,2.85-2.76,4.3-6.39,6.62-10.28a68.61,68.61,0,0,0,5.43-11c1.72-4.45,7.21-7.89,8.47-12.78,1.21-4.69-.93-10.28,0-15.16s4.74-9.16,5.58-14c1-5.46,1.52-10.88,2.57-16.06,1.14-5.6.83-11.27,2.36-16.14,1.78-5.69,1.85-12.16,4.6-16.25,3.24-4.79,9.51-6.62,14.78-8.23,4.55-1.38,9.51-2.52,14.13-1.32,4.43,1.15,8.34,4.61,12.37,7.07,4.19,2.56,9.13,4.22,12.38,7,5.32,4.6,9.62,8.52,10.59,9.63,3.28,3.77,2.21,10.54,4.71,14.74s7.46,7.11,9.29,11.68,5.27,8.85,6.47,13.64,0,10.19.7,15.07-.24,9.91,0,14.82,1,9.87.86,14.73c-.17,5,.65,10.07.18,14.86-.5,5.08-3.3,9.71-4,14.38C450.23,86.19,451.94,88.16,451.66,89.81ZM191.9,71.57c-.83,4.75,1.06,10,1.79,16.33a79.22,79.22,0,0,0,2.45,14.25c1.42,4.76,1.73,9.76,4,14.14s6.54,7.19,9.78,10.75c3.44,3.8,4.21,11.23,8.66,13.25,5.14,2.33,11.63.94,17.06.34A53.83,53.83,0,0,0,251.27,136c4.74-2.11,8.79-6.06,13.57-9,4.56-2.79,10-4.44,14.51-7.45s9.42-5.4,14-8.19c4.76-2.91,9.07-6.2,13.81-8.33,5.2-2.33,10-5.67,15.13-6.32a33.72,33.72,0,0,1,16.44,2.21c4.65,1.84,10.48,3.76,14,7.78,3.06,3.46,5.78,8.64,8.06,13.78,1.88,4.23.59,10.18,2,15.57,1.08,4.24,4.14,8.25,4.88,12.78.71,4.38-2.59,9.35-2.11,13.85s5.93,8.52,6.27,13-1.53,9.25-1.25,13.61c.32,5.06-.41,10.13,0,14.8.45,5.44,3.54,10,4.32,14.24,1.33,7.1,1.2,13.37,4.42,14s7.27-4,12.48-9.68c3-3.26,8.67-5.63,12-10.56,2.67-4,1.51-10.85,4.28-15.73,2.28-4,8.72-6.29,11.11-11.12,2.12-4.25,4.05-9,6.17-13.81,1.95-4.43,0-10.67,1.92-15.48,1.79-4.55,6.49-8.14,8.18-13,1.63-4.65,2.4-9.71,3.88-14.57s3.75-9.34,5-14.24,1.95-9.85,3-14.78S446.22,89,447,84c.72-4.59,1.11-9.3,1.6-14.29.47-4.71,4.6-9.26,4.77-14.2.17-4.78.7-9.75.49-14.63s-3.65-9.42-4.29-14.23-2.14-9.27-3.29-14-1.56-9.47-3.33-14-1.08-10.37-3.56-14.54-7.88-6.32-11.1-10A39.5,39.5,0,0,0,420-36.4c-3.08-2.67-8.05-3.64-12-6.11s-6.57-7.65-10.73-8.83c-4.43-1.26-9.14,1.47-13.39,2.77-5,1.5-7.21,5-10.25,9.84A53.83,53.83,0,0,0,367.55-25c-1.42,4.68-6.74,8.78-7.82,14.15-1,5,1.3,10.77.38,16-.85,4.86-4.65,9.23-5.61,14.11s-1.61,9.8-2.83,14.54c-1.27,4.93-1.18,10.12-2.92,14.63s-1.46,9.74-3.58,13.26c-2.44,4.06-7.52,6.05-10.54,8.93-3.28,3.14-6.29,6.84-10.31,8.65-4.52,2-9.91,1.84-15.17,2.32-4.72.43-9.88,2-15.27,1.47-4.72-.48-9.95-.72-15.24-1.75-4.7-.92-8.6-6.74-13.79-8-4.7-1.11-10.35.79-15.49-.48-6-1.47-11.89-1.11-16.59-2.61-6.21-2-10.74-5.94-15-7.53s-7.19-4.08-10-4.87c-4.72-1.32-8.31-.54-11,1.52S192.86,66.05,191.9,71.57Z"/></g><path class="f" d="M9,60a1.6,1.6,0,0,0,.29,1.46,2.33,2.33,0,0,0,1.33,1.1,3,3,0,0,0,1.86-.41,2,2,0,0,0,1.06-1.24,1.75,1.75,0,0,0-.09-1.57,2.66,2.66,0,0,0-1.58-.94,3.1,3.1,0,0,0-1.89.28A2.09,2.09,0,0,0,9,60Z"/><path class="b" d="M29.14,48.52c-.11,0-.11.14-.07.28a1,1,0,0,0,.28.46,2.39,2.39,0,0,0,.53.49.44.44,0,0,0,.4,0c.12,0,.13-.11.1-.25a.86.86,0,0,0-.22-.47,1.87,1.87,0,0,0-.56-.4A.72.72,0,0,0,29.14,48.52Z"/><path class="d" d="M56.05,70.08c-1.42.15-2.21,1.67-3,2.75S51.28,75,51.42,76.49,52,79.71,53,80.6a5.64,5.64,0,0,0,4.13.84c1.42-.15,2.26-1.27,3.1-2.35s2-2.21,1.9-3.71A6.15,6.15,0,0,0,60,71.54,5.67,5.67,0,0,0,56.05,70.08Z"/><path class="e" d="M98.19,41.14c0,.78,0,1.62.59,2.09a3.58,3.58,0,0,0,2.36.68c.85-.06,1.34-.76,1.87-1.31a2.24,2.24,0,0,0,.71-1.83,2.32,2.32,0,0,0-.81-1.83,2.8,2.8,0,0,0-2.08-.52c-.85.06-1.85-.06-2.38.48S98.14,40.36,98.19,41.14Z"/><path class="f" d="M82.64,59.88a1.72,1.72,0,0,0-.51.42,2.62,2.62,0,0,0-.43.65.67.67,0,0,0,0,.51c0,.09.23,0,.4,0a1.79,1.79,0,0,0,.49-.47,2.22,2.22,0,0,0,.43-.6.73.73,0,0,0,.06-.5C83,59.76,82.81,59.8,82.64,59.88Z"/><path class="e" d="M77.9,112a3.11,3.11,0,0,0-.39-2.52A3.47,3.47,0,0,0,75.29,108a3.6,3.6,0,0,0-2.65.42,3.42,3.42,0,0,0-1.71,2,3.46,3.46,0,0,0,.45,2.64A4.12,4.12,0,0,0,73.64,115a4.2,4.2,0,0,0,2.77-.82A3.26,3.26,0,0,0,77.9,112Z"/><path class="b" d="M134.16,26.64a1.71,1.71,0,0,0,.47-1.3,2,2,0,0,0-.32-1.43A2.39,2.39,0,0,0,133,23a1.7,1.7,0,0,0-1.37.25,1.55,1.55,0,0,0-.53,1.22,2,2,0,0,0,.37,1.4,2.1,2.1,0,0,0,1.23.83A1.79,1.79,0,0,0,134.16,26.64Z"/><path class="f" d="M125.61,100.39c0,.48-.1,1.09.28,1.3a2.53,2.53,0,0,0,1.61-.15,3.05,3.05,0,0,0,1.42-.92,2.32,2.32,0,0,0,.62-1.44,1.24,1.24,0,0,0-.68-1.07c-.38-.21-.92,0-1.49.15a2.71,2.71,0,0,0-1.4.79A1.8,1.8,0,0,0,125.61,100.39Z"/><path class="d" d="M151.1,120.94a2.75,2.75,0,0,0,2,.71,3.2,3.2,0,0,0,1.79-1.28,3.07,3.07,0,0,0,.89-2,2.84,2.84,0,0,0-.77-2c-.54-.48-1.35-.2-2-.13s-1.52,0-2,.55a3.11,3.11,0,0,0-.47,2.14A2.62,2.62,0,0,0,151.1,120.94Z"/><path class="e" d="M173.76,114.8a2,2,0,0,0-.72-1.45,2.7,2.7,0,0,0-1.75-.61,2.6,2.6,0,0,0-1.55,1,2.12,2.12,0,0,0-.37,1.62,2,2,0,0,0,1,1.3,2.36,2.36,0,0,0,1.62.62,2.65,2.65,0,0,0,1.69-.75C174,116.06,173.84,115.38,173.76,114.8Z"/><path class="f" d="M170.52,134.55a5.86,5.86,0,0,0-1.32-7.41,5.9,5.9,0,0,0-4.25-1.09c-1.43.32-2.21,1.76-3.09,3.06a4.65,4.65,0,0,0-.87,3.78c.28,1.39.44,3,1.73,3.85a6.26,6.26,0,0,0,4.5.71C168.64,137.14,169.64,135.84,170.52,134.55Z"/><path class="e" d="M87.06,68.64c0-.19-.06-.21-.12-.25s-.15,0-.29.14a1.89,1.89,0,0,0-.38.47,2.91,2.91,0,0,0-.26.66c0,.2,0,.32,0,.36s.17,0,.3-.09a2.69,2.69,0,0,0,.4-.61A3.08,3.08,0,0,0,87.06,68.64Z"/><path class="b" d="M112.6,87.4a.88.88,0,0,0,.63-.56,2.32,2.32,0,0,0,0-1.15,2,2,0,0,0-.46-1c-.21-.24-.49-.54-.75-.5a.93.93,0,0,0-.62.59,2.31,2.31,0,0,0,0,1.14,2.28,2.28,0,0,0,.39,1.08A1,1,0,0,0,112.6,87.4Z"/><path class="b" d="M217.67,94.32c1.44,1.43,3.66,1.62,5.57,1.59a7.18,7.18,0,0,0,5-2.31c1.47-1.48,2.78-3.17,2.8-5.07s-1.28-3.52-2.71-4.94a6.6,6.6,0,0,0-5-2.09,7.27,7.27,0,0,0-5.22,2c-1.47,1.48-1.48,3.32-1.5,5.22S216.24,92.9,217.67,94.32Z"/><path class="e" d="M172.26,56.65c0-.38-.41-.61-.74-.82a1.57,1.57,0,0,0-1.13-.17c-.46.07-.95.07-1.22.36a1.3,1.3,0,0,0-.25,1.08,1.15,1.15,0,0,0,.57.88,1.75,1.75,0,0,0,1.2.32,2.09,2.09,0,0,0,1.21-.55A1.42,1.42,0,0,0,172.26,56.65Z"/></svg>