<svg id="Layer_1" data-name="Layer 1" xmlns="http://www.w3.org/2000/svg" xmlns:xlink="http://www.w3.org/1999/xlink" viewBox="0 0 703.2 493.42"><defs><clipPath id="clip-path" transform="translate(669.75 11.83)"><rect x="-414.87" y="95.22" width="253.43" height="152.2" fill="none"/></clipPath></defs><rect x="254.88" y="107.05" width="253.43" height="152.2" fill="#184788"/><g clip-path="url(#clip-path)"><path d="M-301.28,49.21c25.63,19.33,19.43,80.9-6.57,118.71-20.77,30.2-43.5,29.72-49.7,54.21-10,39.59,41.19,73.17,32.39,85.7C-335.11,322-419.32,306-450.37,247.6c-32.06-60.25,5.77-140.78,56.27-177.44C-370.58,53.08-324.87,31.42-301.28,49.21Z" transform="translate(669.75 11.83)" fill="#fdc988"/><path d="M-211.17,12.29c-41.31,32.27-53.07,104.57-29.57,124.45,28.83,24.39,106.09-34,124.45-11.71,13.67,16.61-23.92,55.34-8.31,77.32,12.49,17.6,53.08,16,79.47,0C-5,178,7.82,117.14-7.85,74.51-34.93.85-152.74-33.36-211.17,12.29Z" transform="translate(669.75 11.83)" fill="#e88688"/><path d="M-185.51,168.89c-28.3-8.25-80.65-11.38-105.35,23.11-27.32,38.15-5.84,101.43,33.58,125.37,56.35,34.24,146.82-13.49,151.56-63.15C-102.24,217.67-145.27,180.62-185.51,168.89Z" transform="translate(669.75 11.83)" fill="#34a7df"/><path d="M-268.06,317.66c-.56,0-1.18.69-1.75.66A40,40,0,0,1-288,312.6c-4-2.5-7.8-6.38-11.21-10.28-3.06-3.48-4-8.92-6.55-13.48s-5.74-9.43-7.63-15a111.61,111.61,0,0,1-4.52-16.27c-.87-4.78-.78-9.66-1.06-14.44a119.17,119.17,0,0,1,.26-14.41c.3-4.87,1.77-9.43,2.66-14.11s1-9.65,2.53-14.15c1.57-4.65,4.32-8.58,6.53-12.78,2.31-4.39,3.53-9.51,6.63-13.55s7.5-6.62,11.18-10.16A111.22,111.22,0,0,1-278,154c4-2.92,7.62-6.64,12.07-9.11s9.49-3.33,14.2-5.26,9.49-2.78,14.37-4.18,9.44-3,14.45-3.88a122.37,122.37,0,0,1,13.67-1.1,112.22,112.22,0,0,1,13.65.31c4.74.3,9.7-2.07,14.09-1.15s7.7,4.07,11.48,5.48c4,1.5,8.54,1.76,12,3.85,3.65,2.18,6.26,5.72,9.28,8.53,3.94,3.68,8.74,7.12,11.79,12,2.87,4.61,4.32,10.28,6.24,15.66a85.71,85.71,0,0,1,3.76,16.24,77.21,77.21,0,0,1,.55,15.62c-.26,5.5-2.14,10.24-3.61,15-1.62,5.27-2.81,10.16-5.83,14.16a27.21,27.21,0,0,1-11.71,9.4,63.14,63.14,0,0,1-14.8,4.31c-4.22.68-8.66,2.06-13.78,3.43-4.14,1.1-8.69,2-13.5,4.26-3.91,1.8-7.68,4.53-12.07,7.41s-8.88,4.93-12.44,8c-3.91,3.36-6.54,7.68-9.79,11.11-3.55,3.75-7.51,6.78-10.59,10.33-3.25,3.76-7.36,6.26-10.41,9.36-3.53,3.58-6.15,7.37-10,9.53C-258.87,315.63-263.06,317.66-268.06,317.66Zm65.4-186c-6.48,0-13,1.26-19.82,2.41-4.89.83-9.37,2.63-14.07,4a132.58,132.58,0,0,0-13.93,4.34c-4.6,1.89-10,1.9-14.3,4.25s-8.07,5.89-12,8.75a110.39,110.39,0,0,0-11.13,9.67c-3.61,3.46-7.41,6.67-10.37,10.52a85.84,85.84,0,0,0-8.27,12.32c-2.16,4.1-4.91,8.25-6.45,12.8-1.48,4.39-1.62,9.38-2.51,14.09s-2.43,9.26-2.71,14,1.49,9.45,1.78,14.2-.66,9.59.18,14.26A111,111,0,0,0-312,272.14c1.66,5,4.75,9.29,7,13.63,2.49,4.75,4.17,9.83,7.28,13.54,3.48,4.15,7.08,8.41,11.17,11a36.77,36.77,0,0,0,16.86,5.47c.5,0,1.05.5,1.54.5a27.59,27.59,0,0,0,13.54-3.52c3.56-2.09,5.11-7.39,8.46-10.82,2.9-3,7.38-4.87,10.47-8.44s5.14-8.52,8.75-12.34c3.29-3.47,7.75-6.06,11.72-9.48,3.62-3.11,6.66-7.43,11.06-10.33s9.37-4.3,13.37-6.15a82.74,82.74,0,0,1,13.8-4.65A130.88,130.88,0,0,1-162.63,248c5.38-.86,10.55-.65,14.71-2.34s7.67-5.52,11.15-10.13A44.12,44.12,0,0,0-130,221.82c1.39-4.58,1.47-9.75,1.71-15,.22-4.82-.71-9.74-1.49-14.92-.82-5.42-1.58-10.72-3.36-15.71-1.86-5.2-4.68-9.74-7.45-14.2-2.94-4.74-5.45-9.62-9.25-13.17-3.38-3.15-7.89-4.85-12.16-7.19-4-2.19-7.93-4.9-12.6-6.34-4.38-1.36-8.82-3.82-13.66-4.49C-192.86,130.13-197.8,131.71-202.66,131.71Z" transform="translate(669.75 11.83)" fill="#34a7df"/><path d="M-98.07,360.08c-4.77,0-9.75,1.87-14.65,1.64s-9.7-1-14.56-1.47-9.5-2.51-14.32-3.13-10,.66-14.74-.15-8.52-7.13-13.23-8.13-9.94.12-14.6-1.06-9.42-2.41-14-3.79-9.8-1.53-14.27-3.13c-3.95-1.41-9-5.07-14.84-7.7a101.48,101.48,0,0,1-14.15-8.43c-5.86-3.92-10.29-7.19-10.27-11.46s3.14-8.55,10-11.35c4.11-1.66,9.47-2.94,15.35-4.48,4.69-1.24,9.44-4.31,15-5.64,4.22-1,8.66-1.63,13.07-2.75s9.42.82,13.72-.41,7.91-4.67,12.07-6.11c4.31-1.5,10,.5,13.93-1.28,4.83-2.18,6.61-8.91,10.27-11.34,4.47-3,9.18-4.26,11.94-7.65,3.25-4,6.28-7.87,7.24-12.5,1.08-5.23-1.89-9.89-3.55-14.95-1.54-4.68-1.26-10.55-4.39-15.1-2.84-4.12-7.65-7.09-11.22-11.12-3.41-3.86-4.8-9.77-8.4-13.57-3.1-3.26-9.6-3.42-12.6-6.73s-2.46-9.8-5.12-13.29a75.27,75.27,0,0,1-7.38-10.83c-2.18-4.14-7.67-7-8.42-11.34s2.43-8.9,3.61-13.47c1.27-4.94,2.85-9.68,6.09-13.91,3.05-4,7.38-6.83,11.58-10.06a80.14,80.14,0,0,1,12.77-8.51c4.76-2.39,8.66-7.24,13.42-8.64A69.33,69.33,0,0,1-126,95.12c6.77-.18,11.42,4.73,14.69,7.73,3,2.75,2.82,5.24,2.45,10.27-.25,3.31,2.06,7.65,1.17,12.48-.82,4.45-1.14,9.86-2,16.26-.67,4.86-2.31,10.1-2.73,16.16-.35,5.17-3.88,9.92-4.16,14.64-.31,5.21,2.61,10.31,2.51,15-.12,5.28-1.77,10.27-1.46,14.89.36,5.32,3.31,9.77,4.47,14.24,1.32,5,.1,11.07,2.81,15.06,2.34,3.46,7.59,4.42,11.11,7,3.2,2.34,7,3.14,11.26,4.75a69.54,69.54,0,0,0,11.77,3.47c4.69.92,9,5.75,14.06,6.15,4.83.38,10-2.7,14.94-2.6s9.85,3.1,14.74,3.1c5.55,0,11-.38,16.28-.24,5.72.16,11.25-1.12,16.32-.45,5.91.78,12.3-.26,16.8,1.74,5.29,2.37,8.17,8.24,10.66,13.15,2.14,4.25,4.12,8.94,3.73,13.71-.37,4.56-3.11,9-4.84,13.41-1.8,4.57-2.59,9.72-4.8,13.41-3.62,6-6.74,10.95-7.67,12.09-3.15,3.88-10,4-13.72,7.19s-5.72,8.58-9.92,11.16-7.81,6.72-12.33,8.73-10,1.79-14.74,3.28-9.81,1.47-14.6,2.52-9.55,2.71-14.38,3.38-9.81,2.38-14.61,2.74c-5.1.38-10.14-1.58-14.87-1.5C-94.74,358.05-96.39,360.08-98.07,360.08ZM-124.8,100.9c-4.82,0-9.7,2.77-15.79,4.57a79.78,79.78,0,0,0-13.62,4.87c-4.44,2.21-9.32,3.38-13.25,6.37s-6,7.68-8.92,11.48c-3.14,4.06-10.34,6.09-11.56,10.82-1.42,5.47,1.07,11.63,2.59,16.88a54.55,54.55,0,0,0,7.28,14.62c2.9,4.31,7.5,7.62,11.2,11.82,3.54,4,6.1,9.08,9.84,13s6.94,8.36,10.48,12.38c3.69,4.18,7.68,7.87,10.59,12.18,3.19,4.72,7.31,8.9,8.83,13.82a33.67,33.67,0,0,1,.66,16.58c-1,4.9-1.9,11-5.25,15.18-2.89,3.61-7.53,7.18-12.2,10.32-3.85,2.58-9.94,2.33-15,4.62-4,1.79-7.41,5.5-11.75,7-4.19,1.46-9.67-.95-14,.3s-7.39,7.32-11.71,8.41-9.38.09-13.63,1.12c-4.93,1.19-10.05,1.34-14.59,2.53-5.28,1.39-9.29,5.22-13.29,6.72-6.77,2.53-13,3.47-13,6.75s5.17,6.48,11.69,10.64c3.72,2.37,7,7.57,12.48,10,4.36,1.95,11-.38,16.23,1.51,4.35,1.55,7.71,7.51,12.87,9,4.57,1.35,9.59,2.43,14.68,3.7,4.7,1.16,10.53-1.81,15.6-.77,4.79,1,9.13,5,14.19,5.83,4.86.8,10,.7,15,1.32s9.85,2.09,14.89,2.49,10,.23,15.09.4,10-2.88,15-3c4.64-.08,9.36-.51,14.36-.88,4.72-.35,9.92,2.94,14.82,2.26,4.74-.66,9.73-1,14.51-2s8.65-5.22,13.28-6.67,8.77-3.71,13.2-5.66,9.07-3.17,13.19-5.69,10-2.84,13.72-6,4.88-8.86,8-12.67a39.46,39.46,0,0,0,9-10c2.1-3.49,2.21-8.56,4-12.88s6.4-7.79,6.85-12.09c.48-4.59-3-8.76-5-12.73-2.34-4.62-6.22-6.23-11.47-8.41a54,54,0,0,0-14.58-3.6c-4.86-.59-9.81-5.13-15.3-5.27-5.07-.13-10.39,3.14-15.71,3.14-4.94,0-9.91-3-14.88-3.1s-9.93.09-14.82-.3c-5.08-.4-10.17.58-14.92-.35s-9.85.23-13.69-1.25c-4.42-1.71-7.25-6.37-10.61-8.85-3.66-2.7-7.83-5-10.3-8.68-2.78-4.11-3.52-9.45-4.9-14.55-1.24-4.57-3.69-9.39-4.08-14.8-.34-4.73-1-9.93-.89-15.32.09-4.79,5.16-9.64,5.47-15,.28-4.82-2.56-10.06-2.2-15.34.43-6.13-1-11.92-.28-16.81.89-6.46,4-11.61,4.83-16.1s2.79-7.79,3.08-10.73c.49-4.87-.9-8.28-3.39-10.57S-119.19,100.9-124.8,100.9Z" transform="translate(669.75 11.83)" fill="#fdc988"/><path d="M-359.44,479.93c-4.77,0-9.75,1.87-14.65,1.64s-9.7-1-14.56-1.48-9.5-2.5-14.33-3.12-9.95.66-14.73-.15-8.52-7.14-13.24-8.13-9.93.12-14.59-1.06-9.42-2.41-14-3.79-9.8-1.53-14.27-3.13c-3.95-1.41-9-5.07-14.84-7.7a101.48,101.48,0,0,1-14.15-8.43c-5.86-3.92-10.29-7.19-10.27-11.46s3.14-8.55,10-11.35c4.11-1.67,9.47-2.94,15.34-4.49,4.7-1.23,9.45-4.3,15-5.64,4.22-1,8.66-1.62,13.07-2.74s9.42.82,13.72-.41,7.91-4.67,12.07-6.12c4.31-1.49,10,.51,13.93-1.27,4.83-2.18,6.61-8.91,10.27-11.34,4.47-3,9.18-4.26,11.94-7.65,3.25-4,6.28-7.87,7.24-12.5,1.08-5.23-1.89-9.89-3.55-14.95-1.54-4.68-1.26-10.55-4.4-15.1-2.83-4.13-7.64-7.09-11.21-11.12-3.41-3.86-4.8-9.77-8.4-13.57-3.1-3.27-9.6-3.42-12.6-6.73s-2.46-9.8-5.12-13.29A75.82,75.82,0,0,1-443.15,284c-2.18-4.14-7.67-7-8.42-11.34s2.42-8.9,3.61-13.47c1.27-4.94,2.85-9.68,6.09-13.91,3.05-4,7.38-6.83,11.58-10.06a80.14,80.14,0,0,1,12.77-8.51c4.76-2.39,8.66-7.24,13.42-8.65A69.78,69.78,0,0,1-387.38,215c6.78-.18,11.43,4.73,14.7,7.73,3,2.75,2.82,5.24,2.45,10.27-.25,3.31,2.06,7.65,1.17,12.48-.82,4.44-1.14,9.86-2,16.26-.67,4.86-2.31,10.1-2.73,16.16-.35,5.17-3.88,9.91-4.16,14.64-.31,5.21,2.61,10.31,2.51,15-.12,5.28-1.77,10.27-1.46,14.89.36,5.32,3.31,9.77,4.47,14.24,1.32,5,.1,11.07,2.81,15.06,2.34,3.46,7.59,4.42,11.11,7,3.2,2.34,7,3.14,11.26,4.75a69.54,69.54,0,0,0,11.77,3.47c4.69.92,9,5.75,14.06,6.14,4.83.39,10-2.69,14.94-2.59s9.85,3.1,14.74,3.1c5.55,0,11-.38,16.28-.24,5.72.16,11.25-1.12,16.32-.45,5.91.78,12.3-.27,16.8,1.74,5.29,2.37,8.17,8.23,10.66,13.15,2.14,4.25,4.12,8.94,3.73,13.7-.37,4.57-3.11,9-4.84,13.42-1.8,4.57-2.59,9.72-4.8,13.41-3.63,6-6.75,11-7.67,12.09-3.15,3.88-10,4-13.72,7.19s-5.72,8.57-9.92,11.16-7.82,6.72-12.33,8.73-10,1.79-14.74,3.28-9.81,1.47-14.6,2.52-9.56,2.71-14.38,3.38c-5,.7-9.81,2.38-14.61,2.74-5.1.38-10.14-1.58-14.87-1.5C-356.11,477.9-357.76,479.93-359.44,479.93Zm-26.73-259.18c-4.82,0-9.7,2.77-15.79,4.57a79.78,79.78,0,0,0-13.62,4.87c-4.44,2.21-9.33,3.38-13.25,6.37s-6,7.68-8.92,11.48c-3.14,4.06-10.34,6.09-11.56,10.82-1.42,5.47,1.07,11.63,2.59,16.87a54.4,54.4,0,0,0,7.28,14.62c2.9,4.32,7.49,7.63,11.2,11.83,3.53,4,6.1,9.08,9.84,13s6.94,8.36,10.48,12.37c3.69,4.19,7.68,7.88,10.59,12.19,3.19,4.72,7.31,8.9,8.83,13.82a33.79,33.79,0,0,1,.66,16.58c-1,4.9-1.91,11-5.26,15.18-2.88,3.61-7.52,7.18-12.2,10.32-3.84,2.58-9.93,2.33-15,4.62-4,1.79-7.41,5.5-11.75,7s-9.67-.94-14,.31-7.38,7.32-11.7,8.41-9.38.09-13.63,1.12c-4.93,1.18-10,1.34-14.59,2.53-5.28,1.39-9.29,5.22-13.29,6.72-6.77,2.52-13,3.47-13,6.75s5.17,6.48,11.69,10.64c3.72,2.37,7,7.57,12.47,10,4.37,2,11-.37,16.24,1.52,4.35,1.55,7.71,7.51,12.87,9,4.57,1.35,9.59,2.43,14.68,3.7,4.7,1.16,10.53-1.81,15.6-.77,4.79,1,9.13,5,14.19,5.83,4.86.8,10,.69,15,1.32s9.85,2.08,14.89,2.49,10.05.23,15.08.4,10-2.88,15-3c4.65-.08,9.37-.51,14.37-.88,4.72-.35,9.92,2.94,14.81,2.26,4.74-.66,9.74-1,14.52-2s8.65-5.22,13.28-6.68,8.77-3.7,13.2-5.65,9.07-3.17,13.19-5.69,10-2.84,13.72-6,4.87-8.86,8-12.67a39.46,39.46,0,0,0,9-10c2.1-3.49,2.21-8.56,4-12.88s6.4-7.8,6.85-12.1c.48-4.58-3-8.75-5-12.72-2.33-4.62-6.21-6.24-11.46-8.41a54,54,0,0,0-14.58-3.6c-4.86-.59-9.82-5.13-15.3-5.27-5.07-.13-10.39,3.14-15.71,3.14-4.94,0-9.91-3-14.88-3.1s-9.93.09-14.82-.3c-5.08-.4-10.17.58-14.92-.35s-9.85.23-13.69-1.25c-4.42-1.71-7.25-6.37-10.61-8.85-3.67-2.7-7.83-5-10.3-8.68-2.79-4.11-3.53-9.45-4.9-14.55-1.24-4.58-3.69-9.39-4.08-14.8-.34-4.73-1-9.93-.9-15.32.1-4.79,5.17-9.64,5.48-15,.28-4.82-2.56-10.06-2.2-15.34.42-6.13-1-11.92-.28-16.81.89-6.47,4-11.61,4.83-16.1s2.79-7.79,3.08-10.73c.49-4.87-.9-8.28-3.39-10.57S-380.56,220.75-386.17,220.75Z" transform="translate(669.75 11.83)" fill="#184788"/><path d="M-407.91,170.8c-5,0-9.9,1.09-14.45.13-4.93-1-8.3-5.12-12.4-7.28a40.07,40.07,0,0,1-11.78-9.36,60.26,60.26,0,0,1-9.19-12.38c-2.49-4.72-7.81-8.12-9.9-13s-1.78-11.09-4.23-15.65a53.8,53.8,0,0,0-9.63-13.06c-3.61-3.51-9.62-3-15.12-4.91-4.39-1.54-7.85-3.1-12.26-3.14s-8.94-1.94-13.44-.9c-4.19,1-8.07,3.67-12.45,5.23-4.07,1.46-8.83,1.52-13.13,3.21-5.18,2-8.59,6.92-12.91,9.19-4.93,2.6-10.87,2.69-14.87,5.46-4.6,3.17-7.67,7.71-11.34,10.88-4.25,3.67-10.56,4.55-14,7.89-4.69,4.52-6.7,10.61-10.8,13.46-5,3.49-9.92,5.14-16,4.36-4.09-.53-7-3.87-11-6.56-3.42-2.26-7.66-3.62-10.82-7.24a72.13,72.13,0,0,1-8-10.56c-2.88-4.83-8.42-9-10.38-14.41s-1.87-11.93-2.72-17.48A79.29,79.29,0,0,1-669.55,77c.47-6,5.57-10.63,7.57-15.83,1.72-4.48-.4-11,2.45-14.74s8.64-4.65,12.53-7.74c3.46-2.75,7.65-4.44,12.1-6.86,3.69-2,6.51-5.92,10.71-7.68,3.82-1.6,7.15-5.26,11.48-6.79,3.9-1.38,8.05-2.88,12.43-4.28,3.94-1.27,8.3-2,12.68-3.34,4.6-1.43,10-.49,14.82-1.94s9-4.1,13.75-5.46,9.48-2.55,14.27-3.78,9.51-2.53,14.33-3.57,10.06.36,14.91-.46,9.15-5.77,14-6.32,10.11,1.82,15,1.61,9.78,1.22,14.69,1.4,10.06-2.31,14.94-1.67,9.21,4.2,14,5.34,8.66,4.35,13.33,6,10.95-1.06,15.43,1.14a134.77,134.77,0,0,1,13.18,7.07c4.34,2.77,5.53,10.13,9.74,13.47s9.81,4.49,13.65,8.16,8.46,6.56,11.94,10.5,5.65,9.09,8.74,13.29,9.26,6.83,11.87,11.27c2.19,3.72.11,9.61,1.79,13.24,1.82,3.92,5,7.07,6.27,10.87,1.34,4.12-.6,8.7,0,12.65.95,5.9,2.55,11,1.9,16.33-.7,5.74-3,10.36-5.57,15.35-2,4-3.64,8.05-6.83,11.58a65.33,65.33,0,0,1-9.94,9.36,80.28,80.28,0,0,1-12,6.66c-4,2-7.33,6.31-11.84,7.74-4.32,1.37-9.59-1.7-13.9-1C-399.51,169.36-403.58,170.8-407.91,170.8Zm-99.37-81.54c4.79,0,9.64-.84,14.48.86,5.71,2,8.46,7,12.24,10.66,4,3.84,6.57,7.87,9.25,12.77s5.33,9.48,7.5,14.57c2,4.72,7.28,8,9.67,12.55s2.92,10.45,6.36,14.32a44.86,44.86,0,0,0,12.49,9.66c3.81,2,9.14-.13,13.71.86,4.21.92,8.12,2.38,12.77,2.43,4.35.06,8.94,2.24,13.49,1.53,4.33-.68,8.4-3.09,12.76-4.47s9.11-1.5,13-3.43c4.09-2,6.31-6.86,9.8-9.39,3.73-2.71,9-3.37,11.91-6.53,3.12-3.42,4.41-8.05,6.35-11.85,2.27-4.44,7.35-8.36,8.08-13.17s-2.21-10.14-2.79-15.12a75.12,75.12,0,0,0-3-14.38c-1.45-4.53-1.48-10-3.67-14.53-2.11-4.31-6.2-7.83-8.86-12s-5.71-7.94-8.72-11.84-8.58-5.43-11.86-9-5.44-8.23-8.95-11.53-7.3-6.54-11-9.5c-4-3.15-5.7-9.34-9.63-11.85-4.18-2.68-10.89-.69-15.17-2.79s-7.48-7.25-12-8.85-9.21-3.87-13.91-5-10,.33-14.83-.28S-467.55-4.84-472.41-5s-9.49,0-14.35.2-9.58,0-14.41.54-9.94-1.23-14.72-.41-9.3,3.08-14,4.12-9.48,2.08-14.16,3.29-9.37,2.65-14,4-10.06.44-14.65,1.83-8.11,7-12.67,8.37c-5,1.55-10.75.43-15.53,2-5,1.63-10.42,1.93-15.08,3.67-5,1.87-8.6,6.51-13.06,8.66-4.82,2.33-10.64,2.51-14.67,5.37-4.32,3.06-9.89,5.41-13.1,9.31s-1.71,10.92-3.62,15.9a51.83,51.83,0,0,0-2.77,12.58c-.54,4.31-5.91,8.72-5.61,13.29.29,4.36,3.79,8.66,4.82,13.08s3.59,8.11,5.28,12.29,2.25,8.77,4.55,12.63,7.57,4.88,10.17,7.87c3,3.42,2.93,9.5,6.11,11.67,3.85,2.62,8.6,2.67,12.38,3.15.79.1,1.51,3.13,2.27,3.13,4.9,0,9.81-3.73,14.24-7.08,3.49-2.64,7.79-5.5,11.82-9.38,3.42-3.29,6.48-7.65,10.9-11.45A141.55,141.55,0,0,1-574,113.65a135.41,135.41,0,0,1,13.7-7.78c4.4-2.32,8.06-7.09,13.29-9.14,4.35-1.71,10,.58,14.15-.89,4.43-1.58,7.59-6.64,11.85-7.63C-516.52,87.15-511.73,89.26-507.28,89.26Z" transform="translate(669.75 11.83)" fill="#e88688"/></g></svg>