<?xml version="1.0" encoding="utf-8"?>
<!-- Generator: Adobe Illustrator 25.4.1, SVG Export Plug-In . SVG Version: 6.00 Build 0)  -->
<svg version="1.1" id="Layer_1" xmlns="http://www.w3.org/2000/svg" xmlns:xlink="http://www.w3.org/1999/xlink" x="0px" y="0px"
	 viewBox="0 0 253.4 152.2" style="enable-background:new 0 0 253.4 152.2;" xml:space="preserve">
<style type="text/css">
	.st0{fill:#184788;}
	.st1{fill:#FDC988;}
	.st2{fill:#E88688;}
	.st3{fill:#34A7DF;}
</style>
<rect class="st0" width="253.4" height="152.2"/>
<g>
	<path class="st1" d="M44.6,137.7c0.1-1.2,0.2-2.2,0.2-3.2c-0.4-2.7-1.6-4.8-3.3-6.4c-2.6-2.4-7.2-2.7-12.8-2.7
		c-4.8,0-9.7,2.8-15.8,4.6c-4.3,1.3-8.6,2.5-12.9,4.5v17.6h41.1c0.3-0.9,0.6-1.8,0.7-2.7c0.7-3.9,2.3-7,2.9-9.7
		C44.6,139.1,44.6,138.4,44.6,137.7z"/>
	<path class="st1" d="M78.4,0h-1.6H0v71.9v4v53.9c3.6-2.5,6.9-5.9,10.8-7c5.9-1.7,11.9-3,16.7-3.1c6.8-0.2,11.4,4.7,14.7,7.7
		c2.3,2.1,2.7,4.1,2.6,7.1c0.2,1.3,0.2,2.6,0.1,4.2c0,0.3-0.1,0.7-0.2,1.1c0.4,3,1.8,6.5,1.1,10.4c-0.1,0.6-0.2,1.3-0.3,2h12.9
		c-2.5-8-3.3-16.5-1.1-25.3c6.2-24.5,28.9-24,49.7-54.2C121.3,52,129.6,24.1,129.9,0H78.4z"/>
</g>
<path class="st2" d="M162.4,0c-1.2,17.9,2.5,33.4,11.4,41.2c0.1,0.1,0.2,0.2,0.3,0.3c0.8,0.7,1.6,1.3,2.5,1.8
	c12.6,8,32.5,3.4,52.7-3.2c0,0,0,0,0.1,0c1.9-0.6,3.9-1.3,5.8-1.9c1.3-0.4,2.6-0.9,3.9-1.3c4.9-1.7,9.7-3.4,14.3-5V18.2v-3.5V0
	H162.4z"/>
<g>
	<path class="st2" d="M78.7,10.3c-0.2-1.8-0.5-3.5-0.8-5.3c0,0.8,0,1.6,0.1,2.4c1,5.9,2.5,11,1.9,16.3c-0.4,3.4-1.4,6.5-2.7,9.4
		c2-2.5,3.8-5,4.3-7.7C82.2,20.7,79.2,15.3,78.7,10.3z"/>
	<path class="st2" d="M67,50.4c-2.9,3.2-8.2,3.8-11.9,6.5c-3.5,2.5-5.7,7.4-9.8,9.4c-3.9,1.9-8.7,2.1-13,3.4c-3.2,1-6.3,2.6-9.4,3.6
		c3.6,0.4,7.5,2.1,10.9,1c4.5-1.4,7.8-5.8,11.8-7.7c4.3-2.1,8.3-4,12-6.7c3.9-2.8,7-6,9.9-9.4c3.2-3.5,4.8-7.6,6.8-11.6
		c1-2,2-3.9,2.9-5.9c-1.4,1.8-2.9,3.6-3.8,5.4C71.4,42.4,70.1,47,67,50.4z"/>
	<path class="st2" d="M0,71.9v4c2.3-0.2,4.6-0.4,7-0.4c2.9,0,5.8-0.7,8.7-1.3c-3.2-0.4-6.5-1.5-9.6-1.5C3.9,72.7,1.9,72.4,0,71.9z"
		/>
	<path class="st2" d="M19.9,73.4c-1.4,0.2-2.8,0.5-4.2,0.9c1.3,0.2,2.6,0.2,3.9,0c1.1-0.2,2.2-0.5,3.3-0.8
		C21.8,73.3,20.8,73.2,19.9,73.4z"/>
	<path class="st2" d="M76.8,0c0.4,1.7,0.8,3.3,1.1,5c0.1-1.6,0.3-3.3,0.5-5H76.8z"/>
</g>
<g>
	<path class="st3" d="M244.9,39.9c-2-0.7-3.8-1.9-5.8-3.1c-1-0.6-2-1.1-3-1.6c-0.9-0.4-1.7-0.7-2.7-0.9c-0.5-0.1-1-0.2-1.5-0.2
		c-4-0.2-8.4,1.6-12.6,1.3c-4.5-0.3-8.9-0.6-13.7-0.3c-4.5,0.3-9.1,0.3-13.7,1.1c-5,0.8-9.6,2.5-14.4,3.9c-1.2,0.4-2.5,0.7-3.7,1
		c-3.6,0.9-7.2,1.8-10.7,3.2c-4.7,1.9-9.8,2.9-14.2,5.3c-4.5,2.5-8.1,6.2-12.1,9.1c-4.1,3-7.6,6.6-11.2,10
		c-3.7,3.5-8.2,6.2-11.2,10.2c-3.1,4-4.3,9.2-6.6,13.6c-2.2,4.2-5,8.1-6.5,12.8c-1.5,4.5-1.6,9.3-2.5,14.1
		c-0.9,4.7-2.4,9.2-2.7,14.1c-0.3,4.8-0.6,9.6-0.3,14.4c0.1,1.4,0.1,2.8,0.2,4.3h2.3c0.1-1.5,0.1-2.9,0-4.4
		c-0.3-4.7-2.1-9.5-1.8-14.2c0.3-4.8,1.9-9.4,2.7-14c0.9-4.7,1-9.7,2.5-14.1c1.5-4.5,4.3-8.7,6.4-12.8c2.3-4.3,5.2-8.4,8.3-12.3
		c3-3.8,6.8-7.1,10.4-10.5c3.5-3.4,7.1-6.7,11.1-9.7c3.9-2.9,7.6-6.3,12-8.7c4.3-2.4,9.7-2.4,14.3-4.3c4-1.6,8.1-2.7,12.2-3.9
		c0.6-0.2,1.1-0.3,1.7-0.5c4.7-1.3,9.2-3.1,14.1-4c6.8-1.2,13.3-2.4,19.8-2.4c4.9,0,9.8-1.6,14.4-1c1.4,0.2,2.8,0.6,4.2,1
		c0.8,0.3,1.6,0.5,2.4,0.8c0.7,0.3,1.4,0.5,2.1,0.8c1.7,0.7,3.3,1.3,5,1.8c4.7,1.4,8.6,4.2,12.6,6.3c0.2,0.1,0.4,0.2,0.6,0.3v-4.4
		C250.7,41.4,247.7,40.9,244.9,39.9z"/>
	<path class="st3" d="M237.6,76.4c-2.8-1-5.5-2-8.3-2.8c-28.3-8.2-80.7-11.4-105.4,23.1c-11.3,15.7-14.2,35.7-11.1,55.4h140.5V97
		v-2.5v-11c-5-2.7-10.2-5-15.4-7C237.9,76.5,237.8,76.5,237.6,76.4z"/>
</g>
<g>
	<path class="st1" d="M224.7,57.6c0.7,3.9,5.3,6.7,7.7,10.3c-1.2-2.4-2.2-4.8-2.9-7.2c-1.1-3.7-2.6-7.8-2.9-11.8
		C225.4,51.8,224.2,54.8,224.7,57.6z"/>
	<path class="st1" d="M229.4,40.1C229.4,40.1,229.4,40.1,229.4,40.1C229.4,40.1,229.4,40.1,229.4,40.1c-1.2,1.1-2.1,2.3-2.5,3.7
		c-0.4,1.6-0.5,3.3-0.3,5.1c0.6-1.6,1.3-3.1,1.7-4.7C228.6,42.8,229,41.4,229.4,40.1z"/>
	<path class="st1" d="M237.6,76.4c0.7,0.9,1.5,1.8,2.3,2.6c-0.6-0.8-1.3-1.7-1.9-2.5c-1.9-2.5-3.6-4.9-5-7.6
		c-0.2-0.4-0.4-0.7-0.7-1.1c1.3,2.5,2.7,5,4.4,7.4C237.1,75.7,237.4,76.1,237.6,76.4z"/>
	<path class="st1" d="M245.6,93.1c1.8,2,5,2.9,7.8,4v-2.5c-1.8-2.5-3.4-5.1-5.4-7.4c-2.6-2.9-5.5-5.4-8.1-8.1
		c0.2,0.2,0.4,0.5,0.6,0.7C243.1,83.3,242.5,89.7,245.6,93.1z"/>
	<path class="st1" d="M236.1,35.3c0.9-0.7,1.8-1.5,2.4-2.3c3-3.8,4.9-8.4,8.9-11.5c1.8-1.4,3.9-2.4,6-3.3v-3.5
		c-2.6,1.7-5,3.5-7.5,5.4c-4.2,3.2-8.5,6.1-11.6,10.1c-1,1.3-1.8,2.6-2.5,4c-0.4,0.8-0.8,1.5-1.1,2.3c-0.5,1.2-0.9,2.3-1.3,3.5
		c1.1-1,2.4-1.8,3.7-2.7C234.1,36.7,235.1,36,236.1,35.3z"/>
</g>
</svg>
