<svg width="1250" height="636" viewBox="0 0 1250 636" fill="none" xmlns="http://www.w3.org/2000/svg">
<path d="M0.507472 98.537C0.102307 99.9 0.0315616 101.34 0.301178 102.737C0.570794 104.133 1.17266 105.444 2.0562 106.558C3.64336 109.471 6.30178 111.653 9.46894 112.642C13.054 113.024 16.6657 112.228 19.758 110.374C21.1509 109.691 22.3894 108.729 23.3977 107.55C24.406 106.371 25.1628 104.997 25.6217 103.515C26.2053 102.125 26.4639 100.62 26.3776 99.1153C26.2914 97.6103 25.8627 96.1452 25.124 94.831C22.9155 92.131 19.8164 90.3068 16.3837 89.6865C12.829 89.0326 9.15791 89.5571 5.92852 91.1801C4.5682 91.9685 3.38492 93.0285 2.45224 94.2942C1.51956 95.5599 0.857568 97.0043 0.507472 98.537Z" fill="#E88688"/>
<path d="M132.196 142.387C131.588 142.387 131.588 143.161 131.809 143.936C132.074 144.929 132.61 145.83 133.358 146.535C134.208 147.552 135.194 148.445 136.29 149.19C136.632 149.365 137.011 149.456 137.396 149.456C137.781 149.456 138.16 149.365 138.503 149.19C139.166 149.19 139.222 148.582 139.056 147.807C138.905 146.843 138.483 145.941 137.839 145.208C136.926 144.331 135.88 143.602 134.741 143.05C133.996 142.539 133.096 142.304 132.196 142.387Z" fill="#34A7DF"/>
<path d="M199.554 1.44503C191.699 2.21944 187.329 10.6826 182.959 16.6566C178.589 22.6306 173.444 28.5494 174.219 36.8466C174.993 45.1438 177.261 54.6578 182.959 59.5808C189.674 64.0565 197.875 65.7242 205.805 64.2271C213.66 63.4527 218.307 57.2023 222.954 51.2283C227.6 45.2543 234.017 39.059 233.464 30.7618C232.293 22.508 228.165 14.9603 221.847 9.5211C218.845 6.77459 215.331 4.64723 211.506 3.2614C207.68 1.87557 203.619 1.25839 199.554 1.44503Z" fill="#184788"/>
<path d="M545.606 126.6C545.606 130.915 545.606 135.561 548.87 138.217C552.645 140.96 557.272 142.273 561.925 141.923C566.627 141.923 569.338 137.719 572.27 134.732C573.653 133.458 574.723 131.882 575.395 130.125C576.067 128.369 576.323 126.481 576.142 124.609C576.231 122.69 575.873 120.776 575.095 119.019C574.317 117.263 573.142 115.711 571.661 114.486C570.051 113.248 568.204 112.354 566.234 111.859C564.265 111.365 562.214 111.28 560.21 111.61C555.508 111.887 549.921 111.223 547.045 114.265C544.168 117.307 545.33 122.286 545.606 126.6Z" fill="#FDC988"/>
<path d="M428.147 205.335C427.054 205.902 426.092 206.694 425.326 207.658C424.341 208.697 423.537 209.894 422.947 211.198C422.575 212.102 422.575 213.116 422.947 214.02C422.947 214.517 424.22 214.02 425.16 214.02C426.221 213.334 427.141 212.451 427.871 211.42C428.83 210.463 429.632 209.362 430.249 208.156C430.684 207.283 430.801 206.286 430.581 205.335C430.028 204.561 429.088 204.837 428.147 205.335Z" fill="#E88688"/>
<path d="M401.927 493.635C402.576 491.291 402.72 488.836 402.348 486.433C401.976 484.03 401.097 481.733 399.769 479.695C396.888 475.503 392.48 472.604 387.489 471.62C382.479 470.493 377.226 471.345 372.829 473.998C368.318 476.28 364.896 480.259 363.315 485.061C362.759 487.543 362.697 490.11 363.134 492.616C363.571 495.122 364.497 497.517 365.859 499.664C366.979 502.192 368.689 504.413 370.847 506.142C373.004 507.871 375.544 509.056 378.255 509.598C380.966 510.14 383.767 510.023 386.424 509.257C389.08 508.491 391.513 507.098 393.518 505.196C395.628 503.936 397.46 502.262 398.905 500.275C400.35 498.288 401.378 496.03 401.927 493.635Z" fill="#E88688"/>
<path d="M713.146 21.3579C714.056 20.4063 714.757 19.2751 715.204 18.0369C715.652 16.7986 715.836 15.4807 715.745 14.1672C716.177 11.4015 715.545 8.57502 713.975 6.25726C712.264 3.83979 709.789 2.06698 706.95 1.22348C705.656 0.92767 704.315 0.902721 703.01 1.15022C701.706 1.39772 700.467 1.91237 699.371 2.66171C698.403 3.49073 697.636 4.52907 697.128 5.69818C696.62 6.86729 696.384 8.13673 696.439 9.41021C696.144 12.1382 696.874 14.8782 698.486 17.0986C700.12 19.4059 702.539 21.0384 705.29 21.6898C706.553 22.1737 707.901 22.3941 709.252 22.337C710.603 22.2799 711.928 21.9466 713.146 21.3579Z" fill="#34A7DF"/>
<path d="M665.848 429.304C665.848 432.014 665.295 435.333 667.397 436.495C670.358 437.204 673.471 436.912 676.248 435.665C679.312 434.812 682.049 433.058 684.104 430.631C686.165 428.468 687.399 425.648 687.589 422.666C687.556 421.424 687.19 420.214 686.528 419.163C685.866 418.112 684.933 417.258 683.827 416.692C681.068 415.987 678.148 416.281 675.584 417.522C672.611 418.17 669.908 419.715 667.84 421.947C667.024 422.973 666.427 424.155 666.085 425.42C665.742 426.685 665.662 428.007 665.848 429.304Z" fill="#E88688"/>
<path d="M806.854 542.754C808.346 544.109 810.093 545.154 811.992 545.828C813.891 546.503 815.905 546.793 817.917 546.682C821.956 545.575 825.467 543.065 827.82 539.601C830.775 536.657 832.513 532.707 832.688 528.538C832.806 524.44 831.294 520.461 828.483 517.475C825.496 514.876 821.015 516.369 817.42 516.812C813.824 517.254 809.011 516.812 806.356 519.799C804.058 523.288 803.132 527.505 803.756 531.636C803.477 533.603 803.607 535.606 804.141 537.52C804.674 539.433 805.598 541.216 806.854 542.754Z" fill="#184788"/>
<path d="M932.205 509.067C932.144 507.517 931.758 505.998 931.072 504.606C930.386 503.215 929.415 501.983 928.222 500.992C925.481 498.785 922.061 497.593 918.541 497.618C915.101 498.347 912.049 500.316 909.967 503.149C909.04 504.399 908.387 505.83 908.051 507.35C907.714 508.869 907.702 510.442 908.015 511.967C908.329 513.491 908.96 514.932 909.868 516.196C910.777 517.46 911.941 518.518 913.286 519.301C915.758 521.524 918.979 522.729 922.303 522.675C925.812 522.445 929.126 520.974 931.652 518.526C933.588 515.982 932.647 512.276 932.205 509.067Z" fill="#FDC988"/>
<path d="M914.282 618.259C918.072 611.657 919.417 603.932 918.082 596.438C916.747 588.944 912.817 582.158 906.98 577.271C900.171 572.351 891.75 570.197 883.415 571.242C875.56 573.012 871.189 581.032 866.376 588.168C864.102 591.104 862.493 594.5 861.662 598.12C860.831 601.74 860.798 605.498 861.564 609.132C863.113 616.766 863.942 625.726 871.134 630.428C878.66 634.771 887.529 636.17 896.027 634.356C903.882 632.586 909.414 625.727 914.282 618.259Z" fill="#E88688"/>
<path d="M452.598 253.735C452.598 252.629 452.266 252.518 451.934 252.297C451.602 252.076 451.104 252.297 450.33 253.072C449.505 253.83 448.796 254.706 448.228 255.671C447.577 256.833 447.092 258.081 446.79 259.377C446.79 260.428 446.79 261.147 446.79 261.369C446.79 261.59 447.73 261.369 448.449 260.816C449.325 259.808 450.068 258.692 450.662 257.497C451.441 256.316 452.09 255.055 452.598 253.735Z" fill="#FDC988"/>
<path d="M593.879 357.45C594.663 357.263 595.39 356.888 595.997 356.358C596.604 355.829 597.073 355.159 597.364 354.408C597.898 352.321 597.898 350.134 597.364 348.047C597.068 345.996 596.184 344.075 594.82 342.515C593.658 341.132 592.054 339.528 590.671 339.694C589.894 339.951 589.182 340.376 588.589 340.941C587.996 341.505 587.536 342.194 587.242 342.958C586.717 345.027 586.717 347.195 587.242 349.264C587.429 351.409 588.173 353.468 589.399 355.238C589.92 355.932 590.597 356.494 591.375 356.879C592.154 357.263 593.011 357.459 593.879 357.45Z" fill="#34A7DF"/>
<path d="M1175.11 395.783C1183.02 403.638 1195.35 404.744 1205.86 404.578C1211.15 404.404 1216.34 403.179 1221.15 400.976C1225.95 398.773 1230.27 395.635 1233.85 391.745C1241.99 383.614 1249.18 374.211 1249.34 363.701C1249.51 353.191 1242.26 344.285 1234.35 336.375C1230.82 332.601 1226.53 329.618 1221.76 327.625C1216.99 325.633 1211.86 324.674 1206.69 324.814C1201.39 324.653 1196.1 325.548 1191.14 327.447C1186.19 329.346 1181.66 332.212 1177.82 335.877C1169.68 344.009 1169.63 354.187 1169.52 364.696C1169.41 375.206 1167.2 387.873 1175.11 395.783Z" fill="#34A7DF"/>
<path d="M923.907 187.358C923.907 185.256 921.639 183.983 919.814 182.822C917.915 181.753 915.684 181.437 913.563 181.937C911.147 181.844 908.764 182.522 906.759 183.873C906.108 184.708 905.651 185.677 905.422 186.71C905.192 187.744 905.196 188.815 905.431 189.847C905.533 190.85 905.872 191.815 906.42 192.661C906.969 193.507 907.71 194.211 908.584 194.715C910.509 196.093 912.863 196.74 915.223 196.54C917.72 196.224 920.059 195.142 921.916 193.442C922.659 192.627 923.222 191.663 923.565 190.614C923.908 189.565 924.025 188.455 923.907 187.358Z" fill="#FDC988"/>
</svg>
