<svg width="1517" height="776" viewBox="0 0 1517 776" fill="none" xmlns="http://www.w3.org/2000/svg">
<mask id="mask0_105_34" style="mask-type:alpha" maskUnits="userSpaceOnUse" x="0" y="0" width="1517" height="776">
<path d="M1512.73 770.032C1497.96 785.29 1481.37 766.476 1460.13 766.476C1438.89 766.476 1438.91 773.518 1417.68 773.518C1396.45 773.518 1396.44 754.87 1375.22 754.87C1353.99 754.87 1353.99 756.909 1332.75 756.909C1311.51 756.909 1311.52 756.399 1290.3 756.399C1269.07 756.399 1269.06 765.302 1247.83 765.302C1226.61 765.302 1226.6 769.404 1205.37 769.404C1184.14 769.404 1184.14 757.916 1162.9 757.916C1141.67 757.916 1141.68 764.709 1120.44 764.709C1099.2 764.709 1099.21 772.178 1077.99 772.178C1056.76 772.178 1056.75 752.582 1035.52 752.582C1014.3 752.582 1014.3 756.47 993.07 756.47C971.844 756.47 971.844 755.202 950.605 755.202C929.367 755.202 929.379 771.905 908.141 771.905C886.903 771.905 886.915 774.051 865.688 774.051C844.462 774.051 844.462 763.82 823.224 763.82C801.986 763.82 801.997 747.946 780.771 747.946C759.545 747.946 759.545 769.475 738.307 769.475C717.068 769.475 717.08 753.53 695.854 753.53C674.628 753.53 674.616 748.444 653.389 748.444C632.163 748.444 632.151 749.25 610.925 749.25C589.699 749.25 589.687 769.902 568.46 769.902C547.234 769.902 547.234 769.819 525.996 769.819C504.758 769.819 504.77 768.029 483.531 768.029C462.293 768.029 462.305 773.719 441.067 773.719C419.829 773.719 419.841 759.28 398.602 759.28C377.364 759.28 377.376 771.23 356.138 771.23C334.9 771.23 334.912 766.488 313.673 766.488C292.435 766.488 292.447 755.19 271.221 755.19C249.994 755.19 249.982 754.728 228.744 754.728C207.506 754.728 207.518 769.866 186.28 769.866C165.042 769.866 165.053 758.296 143.815 758.296C122.577 758.296 122.577 752.688 101.351 752.688C80.1244 752.688 80.1126 760.773 58.8744 760.773C37.6362 760.773 21.1505 785.076 6.37146 769.819C-8.88163 754.064 8.04259 738.166 8.04259 716.234C8.04259 694.302 5.00856 694.302 5.00856 672.37C5.00856 650.438 25.2986 650.45 25.2986 628.507C25.2986 606.563 9.13292 606.575 9.13292 584.643C9.13292 562.711 30.8926 562.711 30.8926 540.779C30.8926 518.848 21.4112 518.848 21.4112 496.916C21.4112 474.984 23.6038 474.984 23.6038 453.052C23.6038 431.12 14.1936 431.12 14.1936 409.188C14.1936 387.257 8.38626 387.245 8.38626 365.325C8.38626 343.405 24.7415 343.393 24.7415 321.461C24.7415 299.529 12.5343 299.541 12.5343 277.598C12.5343 255.654 14.7743 255.666 14.7743 233.734C14.7743 211.802 27.503 211.802 27.503 189.87C27.503 167.938 6.17 167.938 6.17 146.007C6.17 124.075 16.1017 124.075 16.1017 102.143C16.1017 80.2111 2.6145 80.2111 2.6145 58.2793C2.6145 36.3474 -0.940978 28.1913 14.3358 12.4359C29.103 -2.82151 37.6006 28.7129 58.8388 28.7129C80.077 28.7129 80.0651 12.4834 101.291 12.4834C122.518 12.4834 122.553 0.308243 143.78 0.308243C165.006 0.308243 165.006 19.5252 186.244 19.5252C207.482 19.5252 207.471 21.2679 228.697 21.2679C249.923 21.2679 249.935 8.60677 271.209 8.60677C292.483 8.60677 292.447 13.9178 313.673 13.9178C334.9 13.9178 334.9 19.8453 356.138 19.8453C377.376 19.8453 377.364 12.8035 398.602 12.8035C419.841 12.8035 419.829 18.5412 441.055 18.5412C462.281 18.5412 462.293 11.1202 483.52 11.1202C504.746 11.1202 504.746 4.39817 525.972 4.39817C547.198 4.39817 547.199 25.8559 568.437 25.8559C589.675 25.8559 589.663 0 610.901 0C632.139 0 632.127 23.7101 653.354 23.7101C674.58 23.7101 674.58 0.652085 695.818 0.652085C717.057 0.652085 717.045 8.64237 738.271 8.64237C759.497 8.64237 759.497 14.2616 780.736 14.2616C801.974 14.2616 801.962 8.19173 823.188 8.19173C844.415 8.19173 844.426 17.3322 865.653 17.3322C886.879 17.3322 886.891 8.7017 908.117 8.7017C929.344 8.7017 929.355 12.3291 950.582 12.3291C971.808 12.3291 971.808 12.6611 993.046 12.6611C1014.28 12.6611 1014.27 15.9687 1035.51 15.9687C1056.75 15.9687 1056.74 14.6292 1077.98 14.6292C1099.21 14.6292 1099.2 16.2651 1120.44 16.2651C1141.68 16.2651 1141.67 12.5902 1162.9 12.5902C1184.14 12.5902 1184.13 19.8691 1205.37 19.8691C1226.61 19.8691 1226.6 12.851 1247.82 12.851C1269.05 12.851 1269.06 26.8871 1290.3 26.8871C1311.54 26.8871 1311.52 12.2582 1332.76 12.2582C1354 12.2582 1353.99 9.55523 1375.23 9.55523C1396.47 9.55523 1396.47 15.8622 1417.69 15.8622C1438.92 15.8622 1438.93 12.9219 1460.17 12.9219C1481.41 12.9219 1488.46 -1.37523 1503.24 13.8822C1518.49 29.6376 1504.21 36.4068 1504.21 58.3149C1504.21 80.223 1504 80.2467 1504 102.179C1504 124.11 1491.54 124.098 1491.54 146.042C1491.54 167.986 1513.16 167.974 1513.16 189.906C1513.16 211.838 1507.41 211.838 1507.41 233.769C1507.41 255.701 1498.83 255.701 1498.83 277.633C1498.83 299.565 1495.86 299.565 1495.86 321.497C1495.86 343.429 1507.72 343.429 1507.72 365.36C1507.72 387.292 1487.85 387.304 1487.85 409.224C1487.85 431.144 1502.08 431.156 1502.08 453.088C1502.08 475.02 1515.91 475.008 1515.91 496.951C1515.91 518.895 1507.47 518.883 1507.47 540.815C1507.47 562.747 1516.27 562.747 1516.27 584.679C1516.27 606.61 1512.72 606.61 1512.72 628.542C1512.72 650.474 1496.36 650.474 1496.36 672.406C1496.36 694.338 1483.01 699.388 1489.5 720.336C1498.13 748.172 1527.98 754.289 1512.73 770.032Z" fill="#184788"/>
</mask>
<g mask="url(#mask0_105_34)">
<rect x="39" y="42" width="1441" height="792" fill="#184788"/>
</g>
</svg>
