<?xml version="1.0" encoding="utf-8"?>
<!-- Generator: Adobe Illustrator 25.4.1, SVG Export Plug-In . SVG Version: 6.00 Build 0)  -->
<svg version="1.1" id="Layer_1" xmlns="http://www.w3.org/2000/svg" xmlns:xlink="http://www.w3.org/1999/xlink" x="0px" y="0px"
	 viewBox="0 0 2500 2500" style="enable-background:new 0 0 2500 2500;" xml:space="preserve">
<style type="text/css">
	.st0{fill-rule:evenodd;clip-rule:evenodd;fill:#FFFFFF;}
</style>
<path class="st0" d="M2320.3,2202.9v-88.2c0-48.6-28.9-35-28.9-44.1c0-1.5,1.5-1.5,3-1.5h22.8c1.5,0,4.6,3,6.1,4.6l112.5,126.2
	c1.5,1.5,1.5,3,3,3V2101c0-31.9-25.8-22.8-25.8-30.4c0-1.5,1.5-1.5,3-1.5h44.1c1.5,0,3,0,3,1.5c0,6.1-13.7,1.5-13.7,19.8v136.8
	c0,6.1,0,9.1-3,9.1c-1.5,0-3.1,0-7.6-6.1l-101.8-114c-1.5-1.5-3.1-4.6-6.1-4.6c0,0-1.5,0-1.5,4.6v97.3c0,21.3,21.3,13.7,21.3,19.8
	c0,1.5,0,3-3,3c-4.6,0-12.2-1.5-22.8-1.5c-9.1,0-21.3,1.5-22.8,1.5c-3,0-3-1.5-3-3C2299,2225.7,2320.3,2234.8,2320.3,2202.9z
	 M2194.1,2237.9c-50.2,0-82.1-36.5-82.1-86.7c0-48.7,38-85.1,86.7-85.1c48.6,0,85.1,35,85.1,83.6
	C2283.8,2202.9,2247.3,2237.9,2194.1,2237.9z M2191.1,2073.7c-39.5,0-62.3,33.4-62.3,71.5c0,42.6,28.9,85.1,76,85.1
	c35,0,62.3-27.4,62.3-71.5C2267.1,2116.2,2238.2,2073.7,2191.1,2073.7L2191.1,2073.7z M2017.8,2215.1v-123.2c0-1.5,0-10.6-3-10.6
	h-38c-15.2,0-15.2,4.6-19.7,16.7c0,3,0,6.1-3.1,6.1c-1.6-0.1-2.9-1.4-3-3l3-22.8c0-3,0-9.1,3.1-9.1h136.8c6.1,0,6.1,1.5,7.6,6.1
	v19.7c1.5,1.5,1.5,4.6-1.5,4.6c-9.1,0,3-18.2-21.3-18.2h-33.4c-10.6,0-9.1,0-9.1,12.1v120.2c0,19.8,19.8,12.2,19.8,19.8c0,0,0,3-3,3
	c-4.6,0-12.2-1.5-18.3-1.5c-27.4,0-31.9,1.5-33.5,1.5c-1.5,0-1.5-1.5-1.5-3C1999.5,2227.2,2017.8,2230.3,2017.8,2215.1
	L2017.8,2215.1z M1884,2091.9v115.6c0,13.7-1.5,19.8,18.2,19.8c54.8,0,62.3-24.3,65.4-24.3c1.5,0,1.5,1.5,1.5,1.5
	c0,9.1-6.1,16.7-12.1,22.8c-7.6,9.1-12.2,9.1-22.8,9.1c-18.3,0-36.5-1.5-53.2-1.5c-10.6,0-19.8,1.5-28.9,1.5c-3,0-4.5-1.5-4.5-3
	c1.5-3,3-1.5,10.6-6.1c6.1-3,7.6-9.1,7.6-19.8v-120.1c0-12.2-19.8-10.6-19.8-15.2c0-3,1.5-3,4.6-3h45.6c3,0,4.6,0,4.6,3
	C1900.7,2076.7,1884,2072.2,1884,2091.9L1884,2091.9z M1770,2149.7l39.5,60.8c18.2,25.8,28.9,16.7,28.9,22.8c0,3-13.7,3-15.2,3
	c-16.7,0-25.8-12.2-35-25.8l-27.4-41.1c-7.6-13.7-4.6-12.2-30.4-12.2c-7.6,0-6.1,3.1-6.1,6.1v50.2c0,19.8,24.3,12.2,24.3,21.3
	c0,1.5-1.5,1.5-4.6,1.5c-1.5,0-7.6-1.5-27.4-1.5c-7.6,0-16.7,1.5-25.8,1.5c-1.6-0.1-2.9-1.4-3-3c0-6.1,18.2-3,18.2-19.8v-121.6
	c0-22.8-21.3-12.2-21.3-19.8c0-1.5,1.5-3,4.6-3h54.7c4.6,0,56.3-4.6,56.3,41C1800.4,2128.4,1786.7,2143.6,1770,2149.7L1770,2149.7z
	 M1724.3,2085.8v59.3c0,4.6,13.7,3,25.8,3c9.1,0,31.9-4.6,31.9-33.5s-21.3-38-44.1-38C1728.9,2076.7,1724.3,2076.7,1724.3,2085.8
	L1724.3,2085.8z M1628.6,2198.3l-7.6-18.3c-3-6.1-4.6-9.1-10.6-9.1h-51.7c-4.6,0-9.1,0-12.1,4.6l-15.2,33.5c0,1.5-1.5,4.6-1.5,7.6
	c0,16.7,16.7,9.1,16.7,15.2c0,4.6-3.1,4.6-6.1,4.6c-6.1,0-13.7-1.5-19.8-1.5c-6.1,0-12.2,1.5-18.3,1.5c-1.6-0.1-2.9-1.4-3-3
	c0-4.6,12.2-1.5,18.3-13.7l56.2-121.6c13.7-28.9,13.7-33.4,16.7-33.4c3.1,0,4.6,7.6,6.1,9.1l48.7,121.6c3,9.1,6.1,18.3,12.2,27.4
	c6.1,10.7,19.8,4.6,19.8,10.7c0,3-1.5,3-3,3c-9.1,0-18.3-1.5-28.9-1.5c-6.1,0-12.2,1.5-18.2,1.5c-1.5,0-6.1,0-6.1-3
	c0-6.1,15.2-3,15.2-12.2C1636.2,2216.6,1630.1,2205.9,1628.6,2198.3z M1582.9,2098l-25.8,57.8c-1.5,3,0,4.6,3,4.6h47.1
	c4.6,0,4.6-1.5,3-4.6l-22.8-57.8C1586,2094.9,1584.5,2094.9,1582.9,2098L1582.9,2098z M1288,2136c0-62.3,44.1-111,106.4-111
	c54.7,0,71.5,22.8,79.1,22.8c3,0,4.6-3.1,7.6-3.1c3.1,0,3.1,4.6,4.6,22.8c0,16.7,3,25.8-3,25.8c-3.1,0-4.6-7.6-6.1-9.1
	c-18.2-31.9-39.5-51.7-77.5-51.7c-57.8,0-85.1,38.1-85.1,94.3c0,50.2,28.9,101.9,86.7,101.9c45.6,0,74.5-28.9,79.1-42.6
	c0-1.5,3.1-4.6,4.6-4.6s3,3,1.5,3l-6.1,30.4c0,1.5-21.3,22.8-88.2,22.8C1332.1,2237.9,1288,2196.8,1288,2136L1288,2136z
	 M1210.5,2169.5l44.1-16.7c4.6-1.5,9.1-3,10.7-3c3,0,3,4.6,3,7.6c0,10.7,0,9.1-9.1,12.2l-44.1,16.7c-4.6,1.5-7.6,3-10.6,3
	s-1.5-4.6-1.5-6.1C1202.9,2172.5,1201.4,2172.5,1210.5,2169.5z M1169.4,2079.8l-79.1,133.8c-3,4.6-3,7.6-3,9.1s3,3.1,9.1,3.1h44.1
	c30.4,0,28.9-16.7,38-16.7c1.5,0,1.5,3,1.5,4.6l-9.1,15.2c-3,6.1-6.1,6.1-10.6,6.1H1063c-1.5,0-3-1.5-3-3s0-3,1.5-4.6l82.1-139.9
	c3-1.5,4.6-6.1,4.6-6.1c0-1.5-1.5-1.5-1.5-1.5h-50.2c-31.9,0-24.3,24.3-31.9,24.3c-1.6-0.1-2.9-1.4-3-3l3-24.3
	c1.5-6.1,1.5-7.6,9.1-7.6h91.2c6.1,0,7.6,1.5,7.6,4.6S1170.9,2078.2,1169.4,2079.8L1169.4,2079.8z M967.2,2215.1v-123.2
	c0-1.5,0-10.6-3-10.6h-38c-15.2,0-15.2,4.6-19.8,16.7c0,3-1.5,6.1-4.6,6.1c-1.5,0-1.5-1.5-1.5-3l1.5-22.8c1.5-3,0-9.1,4.6-9.1h136.8
	c6.1,0,6.1,1.5,6.1,6.1l1.5,19.7c0,1.5,1.5,4.6-1.5,4.6c-9.1,0,3-18.2-21.3-18.2h-33.4c-10.6,0-9.1,0-9.1,12.1v120.2
	c0,19.8,18.2,12.2,18.2,19.8c0,0,1.5,3-1.5,3c-6.1,0-12.2-1.5-19.8-1.5c-25.8,0-30.4,1.5-31.9,1.5c-1.6-0.1-2.9-1.4-3-3
	C947.5,2227.2,967.2,2230.3,967.2,2215.1L967.2,2215.1z M845.6,2210.5v-121.6c0-16.7-18.2-12.2-18.2-18.2c0-1.5,0-1.5,1.5-1.5h48.6
	c3.1,0,4.6,0,4.6,1.5c0,6.1-18.3,0-18.3,18.2v127.7c0,15.2,21.3,10.6,21.3,16.7c0,1.5,0,3-4.5,3c-4.6,0-15.2-1.5-25.9-1.5
	c-13.7,0-18.2,1.5-22.8,1.5c-3,0-4.6-1.5-4.6-4.6C827.3,2225.7,845.6,2233.3,845.6,2210.5L845.6,2210.5z M730,2129.9l48.6,74.5
	c21.3,31.9,36.5,21.3,36.5,28.9c0,3-16.7,3-19.8,3c-21.3,0-33.4-15.2-44.1-31.9l-31.9-51.7c-10.6-16.7-7.6-15.2-39.5-15.2
	c-10.6,0-7.6,4.6-7.6,7.6v62.3c0,25.8,30.4,16.7,30.4,25.8c0,3-3,3-4.6,3c-3,0-10.6-1.5-35-1.5c-10.6,0-22.8,1.5-33.4,1.5
	c-1.6-0.1-2.9-1.4-3-3c0-7.6,21.3-3,21.3-25.8V2057c0-28.9-24.3-16.7-24.3-25.9c0-1.5,1.5-4.5,4.6-4.5c6.1,0,4.6,1.5,19.7,1.5
	c16.7,0,33.4-1.5,48.6-1.5c4.6,0,69.9-6.1,69.9,51.7C766.5,2101,751.3,2120.8,730,2129.9L730,2129.9z M672.3,2047.8v74.5
	c0,6.1,18.3,4.6,31.9,4.6c12.2,0,41-4.6,41-42.6c0-35-27.4-47.1-56.2-47.1C678.4,2037.2,672.3,2035.6,672.3,2047.8L672.3,2047.8z
	 M459.4,2093.4v44.1c0,7.6,0,7.6,9.1,7.6h25.8c24.3,0,18.2-18.2,22.8-18.2c3,0,3,1.5,3,4.5v42.6c-0.1,1.6-1.4,2.9-3,3
	c-7.6,0,1.5-21.3-18.2-21.3h-35c-6.1,0-4.6,4.6-4.6,7.6v44.1c0,13.7-1.5,19.8,18.2,19.8c54.8,0,62.3-24.3,65.4-24.3
	c1.5,0,1.5,1.5,1.5,1.5c0,9.1-6.1,16.7-12.1,22.8c-7.6,9.1-12.2,9.1-22.8,9.1c-18.2,0-35-1.5-53.2-1.5c-10.6,0-19.8,1.5-28.9,1.5
	c-3,0-4.6-1.5-4.6-3c1.5-3,3-1.5,10.6-6.1c6.1-3,7.6-9.1,7.6-19.8v-108c0-10.6,0-22.8-13.7-24.3c-1.5,0-6.1-1.5-6.1-3c0-3,0-3,7.6-3
	h100.3c1.5,0,3.1,1.5,3.1,4.6c0,25.8-3.1,28.9-4.6,28.9c-6.1,0-3-12.2-6.1-16.7c-6.1-9.1-30.4-7.6-41.1-7.6
	C459.4,2078.2,459.4,2078.2,459.4,2093.4L459.4,2093.4z M257.2,2210.5v-121.6c0-16.7-19.8-12.2-19.8-18.2c0-1.5,1.5-1.5,3-1.5H289
	c3,0,4.6,1.5,4.6,1.5c0,4.6-18.2,0-18.2,18.2v51.7c0,3,0,3,4.6,3h86.7c1.5,0,1.5-4.6,1.5-6.1v-48.7c0-16.7-18.2-12.2-18.2-18.2
	c0-1.5,1.5-1.5,4.6-1.5h41c6.1,0,7.6,1.5,7.6,3c0,4.6-16.7,0-16.7,16.7v124.7c0,18.2,21.3,13.7,21.3,19.8c0,0,0,3-1.5,3
	c-7.6,0-13.7-1.5-22.8-1.5c-15.2,0-21.3,1.5-25.8,1.5c-3,0-6.1,0-6.1-3c0-6.1,16.7-3,16.7-18.2v-56.3c0-3,1.5-6.1-1.5-6.1h-88.2
	c-3,0-3,1.5-3,4.5v59.3c0,15.2,22.8,10.6,22.8,18.2c0,0-1.5,1.5-3,1.5c-3,0-21.3-1.5-33.4-1.5c-16.7,0-19.8,1.5-19.8,1.5
	c-1.5,0-3-1.5-3-4.6C239,2225.7,257.2,2233.3,257.2,2210.5L257.2,2210.5z M120.4,2210.5V2057c0-1.5,1.5-13.7-3-13.7H68.7
	c-18.2,0-18.2,4.6-24.3,21.3c0,3-1.5,6.1-4.6,6.1c-1.6-0.1-2.9-1.4-3-3l3-28.9c0-3,0-12.2,6.1-12.2c22.8,0,45.6,1.5,83.6,1.5
	c53.2,0,80.6-1.5,86.7-1.5c6.1,0,7.6,3,7.6,9.1l1.5,24.3c1.5,1.5,1.5,6.1-3,6.1c-10.6,0,4.6-22.8-24.3-22.8h-42.6
	c-13.7,0-12.2-1.5-12.2,15.2V2209c0,24.3,24.3,15.2,24.3,24.3c0,0,0,3-3,3c-7.6,0-15.2-1.5-24.3-1.5c-31.9,0-38,1.5-39.5,1.5
	c-3,0-4.6-1.5-4.6-4.6C96.1,2225.7,120.4,2228.8,120.4,2210.5L120.4,2210.5z M1239.4,294.8c44.1-1.5,88.2,6.1,94.3,3
	c22.9-7.6,44.1-13.7,59.3-27.4c19.8-16.7,42.6-4.6,53.2,4.6l19.8,13.7c12.2,12.2,35,41.1,41.1,47.1c10.6,6.1,13.7,6.1,22.8,6.1
	c39.5-1.5,91.2,30.4,100.3,66.9c6.1,22.8,19.8,101.9,21.3,106.4c9.1,15.2,25.9,36.5,27.4,42.6c7.6,13.7-12.2,4.6-9.1,19.8
	c3.1,21.3,18.3,33.4,27.4,35c31.9,36.5,31.9,71.5,28.9,73c-1.5,1.5-25.8-4.6-27.4-3v7.6c22.8,68.4,45.6,112.5-7.6,199.2
	c-10.7,15.2-16.7,28.9-19.8,47.1c0,7.6,4.6,28.9,4.6,42.6c1.5,30.4-15.2,51.7-31.9,76c-38,57.8-60.8,115.5-10.6,177.9
	c27.4,33.4,53.2,47.1,92.7,22.8c12.2-12.2,13.7-22.8,22.8-22.8c18.2,13.7,22.8,48.6,19.8,74.5c-3.1,44.1-39.6,74.5-82.1,85.1
	c-114,27.4-165.7-27.4-182.5-30.4c-31.9-4.6-150.5-6.1-212.8-51.7c-28.9-24.3-42.6-41-51.7-39.5c-39.5,9.1-48.6,62.4-145.9,76
	c-28.9,3-60.8,1.5-85.1,12.2c-62.3,39.5-132.3,69.9-229.6,38c-51.7-19.8-124.7-109.5-60.8-167.3c9.1,16.7,27.4,33.4,53.2,50.2
	c16.7,7.6,73,13.7,111-21.3c21.3-19.8,33.4-41.1,38-68.4l7.6-149c4.6-41.1,16.7-76,36.5-112.5c7.6-12.2,28.9-33.4,24.3-47.1
	c-3-10.6-12.2-10.6-19.8-15.2c-9.1-7.6-12.2-19.8-15.2-28.9c-6.1-16.7-12.2-35-15.2-39.5c-13.7-19.8-57.8-30.4-83.6-28.9
	c-15.2,6.1-18.2,15.2-28.9,6.1c-12.2-13.7-10.6-25.8-4.6-33.4c12.2-18.2,18.2-24.3,68.4-27.4c19.8,1.5,45.6,16.7,51.7,10.6
	c9.1-10.6-21.3-41-27.4-44.1c-15.2-6.1-24.3-7.6-33.4-27.4c-9.1-19.8-24.3-69.9-27.4-73c-9.1-9.1-15.2-18.2-19.8-31.9
	c-3-13.7,0-28.9,10.6-39.5l7.6-4.6c9.1-6.1,22.8-12.2,31.9-19.8l10.6-7.6c6.1-6.1,57.8-30.4,86.7-44.1l10.6-6.1
	c16.7-13.7,15.2-19.8,25.8-42.6c3-7.6,9.1-10.6,12.2-13.7c16.7-7.6,31.9-12.2,50.2-16.7c7.6,0,79.1-3,101.9-13.7
	C1201.4,331.3,1218.1,294.8,1239.4,294.8L1239.4,294.8z M1443.1,480.3c-4.6-4.6-12.2-16.7,6.1-10.6c53.2,21.3,89.7,48.6,124.7,112.5
	c36.5,63.9,28.9,103.4-6.1,159.7c-9.1,15.2-56.3,65.4-62.3,77.5c-16.7,16.7-44.1,42.6-50.2,66.9c-3,6.1,3,9.1,9.1,6.1
	c51.7-24.3,120.1-77.5,142.9-103.4c25.8-33.4,39.5-69.9,19.8-127.7c-3-9.1-16.7-30.4-24.3-47.1c-6.1-12.2-12.2-38-18.3-56.3
	c-9.1-27.4-24.3-47.1-47.1-63.9c-21.3-16.7-60.8-39.5-77.5-62.3c-10.6-15.2-1.5-24.3,7.6-42.6c22.8-31.9-28.9-112.5-63.9-103.4
	c-22.8,9.1-6.1,7.6-59.3,35c-25.9,13.7-35,44.1-18.2,63.9c10.6,10.6,28.9,25.8,33.4,30.4c0,1.5,3,6.1-3,7.6c-9.1,4.6-9.1,7.6-15.2,3
	c-3.1-1.5-12.2-9.1-18.3-15.2c-10.6-9.1-47.1-35-51.7-38c-35-13.7-139.9-12.2-179.4-6.1c-18.2,3-42.6,10.6-47.1,15.2
	c-1.5,1.5-16.7,21.3-13.7,22.8h4.6c6.1-1.5,21.3-10.6,28.9-13.7c9.1-1.5,42.6,3,48.7,13.7c-1.5,0-16.7-1.5-25.8-1.5
	c-25.8,6.1-9.1,31.9-1.5,30.4h18.3v6.1l-1.5,4.6l-9.1,10.6c-3,3-1.5,3,4.6,3c12.2-1.5,18.2-3,18.2,3c-7.6,9.1-27.4,21.3-36.5,22.8
	c-13.7,4.6-9.1-3-21.3-13.7c-3-3-19.7-7.6-24.3-10.6l-6.1-6.1c-6.1-16.7-1.5-24.3-12.2-19.8c-3,1.5-123.1,54.7-144.4,71.5
	c-3,3-6.1,4.6-9.1,9.1c-6.1,10.6-10.6,18.2-9.1,24.3c3,4.6,3,9.1,7.6,12.2c7.6,6.1,18.2-7.6,28.9-12.2c4.6-3,7.6-1.5,9.1,3
	c1.5,7.6-12.2,21.3-15.2,27.4c-12.2,22.8,0,50.2,12.1,73c7.6,13.7,12.2,3,22.8-6.1c15.2-16.7,62.3-19.8,79.1-28.9
	c4.6-3,24.3-19.8,35-22.8c15.2-3,33.4,9.1,41.1,25.8c10.6,16.7,45.6,44.1,56.2,51.7c13.7,9.1,21.3,22.8,18.2,35
	c-1.5,3-45.6,7.6-66.9,16.7c-19.8,7.6-28.9,21.3-41,35c-57.8,47.1-65.4,31.9-76,44.1c-13.7,13.7,10.7,62.3,31.9,62.3
	c27.4-1.5,25.8,9.1,53.2-4.6c9.1-7.6,15.2-16.7,21.3-28.9c10.6-22.8,10.6-27.4,22.8-44.1c22.8-30.4,53.2-45.6,92.7-53.2
	c13.7-3,86.7,9.1,108-3c27.3-21.3,15.2-42.6-6.1-44.1c-6.1-1.5-16.7-1.5-22.8,0l-16.7,1.5c0,0,0-9.1,1.5-12.2
	c16.7-41.1,59.3-63.9,109.5-71.5c4.6,0,4.6-1.5,12.2,4.6c3,1.5,3,6.1,1.5,9.1c-9.1,16.7-10.6,15.2-15.2,36.5
	c-9.1,48.6-1.5,44.1-22.9,76c-19.8,15.2-39.5,24.3-63.8,27.4c-66.9,19.8-124.7,47.1-179.4,85.1c-30.4,22.8-71.5,60.8-83.6,76
	c-56.3,76-65.4,167.2-56.3,226.5c4.6,50.2-4.6,127.7-30.4,156.6c-48.6,51.7-126.2,39.5-144.4,30.4c-4.6-4.5-10.6-7.6-13.7-7.6
	c-7.6-1.5-12.2,4.6-12.2,7.6c4.6,25.9,45.6,53.2,88.2,59.3c18.2,1.5,57.8-3,80.6-18.2l18.2-13.7l-4.6-18.2c0,0,50.2-25.9,57.8-123.2
	c1.5-25.8,3-88.2,1.5-97.3l-4.6-22.8c-3-15.2,3-139.9,24.3-168.8c10.6-15.2,25.9-33.4,50.2-47.1c88.2-53.2,200.7-62.3,279.7-124.7
	c69.9-53.2,86.7-89.7,80.6-141.4c-13.7-63.9-53.2-68.4-82.1-82.1c-7.6-3-6.1-13.7-12.2-24.3c-1.5-3-19.8-21.3-25.8-25.8
	c-3-1.5-6.1-4.6-7.6-6.1c-9.1-9.1,13.7-12.2,12.2-12.2c4.6,0,7.6-1.5,13.7,0c41.1,4.6,100.4,18.2,127.7,51.7
	c28.9,31.9,39.5,69.9,33.5,111c-13.7,56.2-45.6,97.3-95.8,124.7c-65.4,42.6-124.7,71.5-199.2,98.8c-25.8,12.2-47.1,22.8-73,35
	c-21.3,12.2-44.1,28.9-59.3,60.8c-19.8,42.6-31.9,121.6-19.8,164.2c1.5,21.3-6.1,35,3.1,47.1c1.5,4.6,4.5,6.1,10.6,7.6
	c15.2-47.1-1.5-114,59.3-182.4c36.5-44.1,69.9-65.4,121.6-92.7c4.5-3.1,9.8-4.7,15.2-4.6l-1.5,15.2c-1.5,7.6-13.7,30.4-21.3,47.2
	c-7.6,19.8-28.9,101.9-19.8,133.8c12.2,68.4,18.2,115.6,80.6,168.8c47.1,41,107.9,35,129.2,27.4c6.1-3,9.1-7.6,3-15.2
	c-4.6-4.6-10.6-6.1-18.2-9.1c-59.3-31.9-106.4-83.6-120.1-147.5c-7.6-25.8-9.1-41-15.2-53.2c-1.5-4.6-6.1-4.6-7.6,1.5
	c-3,10.6-1.5,27.4-4.6,30.4c-10.6,7.6-19.7-41-19.7-42.6c-15.2-100.3,62.3-182.4,85.1-208.3c13.7-15.2,38-36.5,50.2-42.6
	c7.6-3,15.2,0,13.7,3c-3,7.6-39.5,60.8-47.1,77.5c-4.6,7.6-19.8,65.4-24.3,88.2c3,16.7,10.6,35,22.8,0
	c12.2-36.5,51.7-103.4,77.5-136.8c63.9-80.6,54.7-86.7,85.1-124.7c1.5-3,6.1-1.5,7.6,3s4.6,7.6,3,16.7c0,6.1-3,25.8,3.1,27.4
	c6.1,0,6.1,0,13.7-21.3c3-10.6,9.1-35,10.6-60.8c0-12.2-1.5-28.9-3-38C1520.6,559.3,1490.2,525.9,1443.1,480.3L1443.1,480.3z
	 M1449.2,1150.8c7.6,73,98.8,214.4,203.7,185.5c13.7-3,18.2,0,31.9-12.2c3-1.5,12.2-9.1,6.1-13.7l-33.5-7.6
	c-44.1,4.6-95.8-47.1-106.4-85.1l-12.2-33.4c-3-9.1-7.6-36.5-15.2-39.5h-3c-1.5,0-4.6,9.1-7.6,13.7c-44.1-16.7-35-100.3-16.7-126.2
	l33.5-45.6c30.4-28.9,89.7-82.1,92.7-88.2c0,0,12.2-22.8,15.2-28.9c0-3,1.5-7.6-1.5-9.1l-88.2,57.8
	c-30.4,19.8-118.6,57.8-118.6,57.8c-35,16.7-73,95.8-25.9,158.1c3,3,6.1,6.1,10.6-1.5c1.5-4.6,7.6-45.6,12.2-68.4
	c1.5-9.1,16.7-47.1,31.9-44.1l1.5,3c1.5,1.5-6.1,27.4-10.6,48.6C1444.6,1091.5,1449.2,1140.1,1449.2,1150.8L1449.2,1150.8z
	 M1125.3,1257.2c-3-3-1.5-6.1,1.5-13.7c6.1-9.1,13.7-18.2,18.2-25.8c22.8-33.4,30.4-69.9,25.8-111c-1.5-21.3-10.6-48.6-12.2-66.9
	c-3-27.4,0-47.1-12.2-41.1c-25.8,19.7-39.5,65.4-41,94.3c-1.5,30.4,3,98.8,1.5,112.5c-4.5,24.3-3,25.8-15.2,54.7
	c-4.6,10.6-15.2,22.8-16.7,27.4c-4.6,10.6,6.1,10.6,19.8,7.6c19.8-4.6,35-12.2,51.7-25.8c0,0,10.6-9.1,4.6-13.7
	C1149.7,1255.7,1131.4,1260.2,1125.3,1257.2L1125.3,1257.2z M839.5,757c10.7,0,10.7,0,19.8-1.5c13.7,0,42.6,6.1,54.7,12.2
	c13.7,6.1,21.3,4.6,25.8,3c6.1,0,6.1,0,13.7-3c13.7-9.1,1.5-18.2,0-18.2c-4.6-3-47.1-16.7-53.2-18.2c-19.7-6.1-22.8-6.1-25.8-6.1
	c-22.8,4.6-31.9,12.2-35,18.2C836.5,749.4,839.5,757,839.5,757z M987,734.2c-6.1-1.5-10.6,1.5-12.1,4.6c-3.1,1.5-1.5,3-1.5,7.6
	c1.5,4.6,10.6,19.8,15.2,21.3c3,3,6.1,3,7.6,1.5c1.5,0,10.7-7.6,9.1-12.2C1005.2,747.9,993.1,735.7,987,734.2z M996.1,711.4
	c-1.5,4.6,7.6,18.2,13.7,15.2c4.5-1.5,21.3-16.7,24.3-21.3c1.5-4.6,4.6-10.6,3-12.2c-7.6-4.6-13.7-4.6-18.2-3
	C1014.4,690.1,1000.7,700.7,996.1,711.4z M952,685.5v-22.8c0-1.5,0-6.1-1.5-9.1c-1.5-1.5-6.1-7.6-6.1-9.1c-1.5-1.5-3.1-1.5-3.1-1.5
	c-3-1.5-4.6,0-7.6,1.5s-7.6,7.6-7.6,7.6c-1.5,0-3,3-3,6.1c1.5,3,3,13.7,9.1,19.8c3,1.5,4.6,3,6.1,4.6
	C944.4,685.5,947.5,685.5,952,685.5L952,685.5z M1587.5,512.2c4.6,4.6,18.3,10.7,22.8,7.6c4.6-1.5,3-19.8,1.5-25.8
	c-1.5-13.7-9.1-33.4-21.3-50.2c-4.6-6.1-30.4-24.3-39.5-25.8c-28.9,0-18.2,21.3-18.2,21.3S1558.6,484.8,1587.5,512.2L1587.5,512.2z
	 M1268.2,344.9c4.6-3,13.7-10.6,9.1-21.3c-4.6-1.5-6.1-3-12.2-3c-6.1-1.5-13.7,6.1-13.7,13.7
	C1251.5,340.4,1256.1,349.5,1268.2,344.9L1268.2,344.9z M1163.3,665.8c-16.7-7.6-18.2-9.1-28.9-24.3c-3.1-4.6-38-50.2-53.2-53.2
	c-9.1-1.5-10.6,0-15.2-6.1c-15.2-24.3-16.7-45.6-44.1-60.8c-3-1.5-9.1-9.1-4.6-13.7c1.5-1.5,7.6-1.5,12.2,0
	c24.3,6.1,44.1,16.7,59.3,36.5c9.1,13.7,10.6,24.3,21.3,33.5c6.1,3,9.1,6.1,13.7,9.1c7.6,4.6,16.7,19.8,21.3,27.4
	c7.6,15.2,13.7,28.9,21.3,47.1C1167.9,665.8,1166.4,667.3,1163.3,665.8L1163.3,665.8z M920.1,532c-4.6,0-7.6,0-12.2-3
	c0,0-1.5-1.5-1.5-7.6s6.1-10.6,9.1-12.2c1.5,0,6.1-4.6,10.6-4.6h15.2c1.5,0,0,3-1.5,4.6c0,1.5-13.7,18.2-13.7,18.2
	C926.2,528.9,923.1,532,920.1,532z M1389.9,410.3c-12.2-1.5-51.7-24.3-53.2-35c-1.5-3-3.1-13.7,0-21.3c0-7.6,25.8-31.9,44.1-36.5
	c7.6-1.5,7.6,3,7.6,4.6c0,7.6-4.6,21.3-3.1,30.4c0,9.1,10.6,28.9,19.8,28.9c3,0,6.1-1.5,9.1-3c10.6-6.1,12.2-9.1,19.8-19.8
	c3-9.1,4.6-10.6,7.6-18.2c1.5-4.6,6.1-3,10.7,4.6c4.5,7.6,3,18.2,0,27.4c-6.1,15.2-13.7,22.8-27.4,28.9c-7.6,4.6-16.7,7.6-19.8,7.6
	C1400.5,410.3,1392.9,411.8,1389.9,410.3L1389.9,410.3z M1237.8,1299.8c3,1.5,13.7,6.1,30.4,24.3c7.6,7.6,36.5,38,47.1,39.5
	c6.1,0,13.7,10.6,13.7,10.6s-1.5,7.6-13.7,10.6c-6.1,1.5-38,3-36.5,39.5c3,31.9,38,31.9,42.6,30.4c38-4.6,38-10.6,54.7-25.8
	c9.1-9.1,13.7-1.5,13.7-1.5s12.2,13.7,25.8,33.4c1.5,1.5,10.6,10.7-3,22.8c-12.2,12.2-25.8,22.8-28.9,25.8
	c-4.6,1.5-10.6,9.1-18.2-1.5c-10.6-15.2-38-38-71.4-12.2c-31.9,25.8-27.4,76,25.8,94.3c56.3,19.8,117.1,6.1,141.4-13.7
	c0,0,10.6-4.6,18.2-24.3c7.6-18.3,9.1-39.5,4.6-50.2c-3.1-6.1-9.1-16.7-9.1-16.7s-7.6-10.6-1.5-16.7c9.1-10.6,28.9-25.9,28.9-25.9
	s18.3-12.2,27.4,1.5c7.6,13.7,16.7,30.4,16.7,30.4s4.5,7.6-4.6,21.3c-7.1,12-14.7,23.6-22.8,35c0,0-7.6,18.3-1.5,33.5
	c3,7.6,4.6,15.2,15.2,33.4c9.1,10.7,24.3,21.3,50.2,22.8c31.9,1.5,62.3-22.8,66.9-27.4c3-4.6,27.4-45.6-21.3-56.2
	c-16.7-1.5-25.8,1.5-31.9,0c0,0-18.2-16.7-19.7-30.4c-1.5-13.7,6.1-16.7,6.1-16.7s15.2-16.7,27.4-18.2c10.6-1.5,12.2,0,19.8,7.6
	c6.1,7.6,18.2,18.2,18.2,18.2c16.7,13.7,41.1-3,31.9-22.8c-10.6-19.8-12.2-19.8-16.7-28.9c39.5-12.2,79.1-48.6,108-66.9
	c-3,7.6-100.4,215.9-103.4,223.5c-3,9.1-10.6,38-3,51.7c4.6,10.6,7.6,25.9-4.6,41.1c-7.6,10.6-31.9,107.9-31.9,117.1
	c1.5,6.1,1.5,10.6,9.1,12.2v25.9c-3,6.1-18.2,24.3-28.9,22.8H865.4c-10.6,1.5-27.4-16.7-28.9-22.8v-25.9c6.1-1.5,7.6-6.1,7.6-12.2
	c1.5-9.1-22.8-106.4-30.4-117.1c-12.2-15.2-9.1-30.4-4.6-41.1c7.6-13.7,0-42.6-4.6-51.7c-3-7.6-101.9-223.5-101.9-223.5
	c9.1,6.1,59.3,48.7,109.5,66.9c0,0-12.2,18.3-18.2,28.9c-9.1,19.8,15.2,36.5,30.4,22.8c0,0,12.2-10.6,19.8-18.2s9.1-9.1,19.8-7.6
	c12.2,1.5,27.4,18.2,27.4,18.2s7.6,3,6.1,16.7s-19.8,30.4-19.8,30.4c-7.6,1.5-15.2-1.5-31.9,0c-48.6,10.6-24.3,51.6-21.3,56.2
	c4.6,4.6,33.4,28.9,66.9,27.4c25.8-1.5,41.1-12.2,50.2-22.8c10.6-18.2,12.2-25.8,13.7-33.4c7.6-15.2-1.5-33.5-1.5-33.5
	c-3-6.1-15.2-24.3-22.8-35c-9.1-13.7-3-21.3-3-21.3s7.6-16.7,16.7-30.4c7.6-13.7,27.3-1.5,27.3-1.5s19.8,15.2,27.4,25.9
	c6.1,6.1,0,16.7,0,16.7s-6.1,10.6-9.1,16.7c-4.6,10.6-3,31.9,3,50.2c9.1,19.8,18.2,24.3,19.8,24.3c24.3,19.8,85.1,33.5,139.9,13.7
	c56.2-18.2,60.8-68.4,25.8-94.3c-33.4-25.8-59.3-3-69.9,12.2c-9.1,10.6-15.2,3-18.2,1.5c-3-3-16.7-13.7-28.9-25.8
	c-13.7-12.2-4.6-21.3-3-22.8c13.7-19.8,25.8-33.4,25.8-33.4s4.6-7.6,12.2,1.5c18.2,15.2,18.2,21.3,56.2,25.8
	c4.6,1.5,39.5,1.5,41-30.4c3.1-36.5-28.9-38-35-39.5c-12.2-3-15.2-10.6-15.2-10.6s9.1-10.6,13.7-10.6c10.7-1.5,41.1-31.9,48.6-39.5
	C1224.2,1305.8,1234.8,1301.3,1237.8,1299.8L1237.8,1299.8z M1593.6,1813.7c1.5-1.5,0-16.7,0-16.7c-1.5-6.1-9.1-22.8-10.7-31.9
	c-3-7.6,0-44.1,10.7-53.2c19.8-9.1,22.8,7.6,19.8-16.7H860.8c-1.5,24.3,0,7.6,21.3,16.7c9.1,9.1,12.1,45.6,10.6,53.2
	c-3,9.1-10.6,25.8-10.6,31.9c0,0-3.1,15.2-1.5,16.7C880.6,1815.2,1593.6,1815.2,1593.6,1813.7z M854.7,1758.9h9.1v-18.3h-9.1V1758.9
	z M1605.8,1758.9h9.1v-18.3h-9.1V1758.9z M842.6,1678.3h786c3,0,4.6-1.5,4.6-3V1654c0-1.5-1.5-3.1-4.6-3.1h-786c-3,0-3,1.5-3,3.1
	v21.3C839.5,1676.8,839.5,1678.3,842.6,1678.3L842.6,1678.3z M877.5,1850.2h719.1c1.5,0,3.1-1.5,3.1-3V1835c0-1.5-1.5-3-3.1-3H877.5
	c-1.6,0.1-2.9,1.4-3,3v12.2C874.5,1848.6,876,1850.2,877.5,1850.2L877.5,1850.2z M1417.2,1795.4c-19.8,0-33.4-15.2-33.4-33.4v-15.2
	c0-19.8,13.7-33.5,33.4-33.5h71.5c18.3,0,33.5,15.2,33.5,33.5v15.2c0,18.2-15.2,33.4-33.5,33.4H1417.2z M1452.2,1778.7
	c18.2,0,33.4-10.6,33.4-24.3c0-13.7-15.2-24.3-33.4-24.3c-18.3,0-33.5,10.6-33.5,24.3C1418.8,1768.1,1434,1778.7,1452.2,1778.7z
	 M988.5,1795.4c-18.2,0-33.5-15.2-33.5-33.4v-16.7c0-18.2,15.2-33.4,33.5-33.4h71.5c18.2,0,33.4,15.2,33.4,33.4v16.7
	c0,18.2-15.2,33.4-33.4,33.4H988.5z M1025,1777.2c18.2,0,31.9-10.6,31.9-24.3c0-12.2-13.7-24.3-31.9-24.3
	c-18.2,0-33.4,12.2-33.4,24.3C991.6,1766.5,1006.8,1777.2,1025,1777.2z M1209,1795.4c-19.8,0-33.4-15.2-33.4-33.4v-16.7
	c0-18.2,13.7-33.4,33.4-33.4h69.9c18.4,0.2,33.3,15,33.4,33.4v16.7c-0.2,18.4-15,33.3-33.4,33.4H1209z M1243.9,1777.2
	c18.2,0,31.9-10.6,31.9-24.3c0-12.2-13.7-24.3-31.9-24.3s-33.4,12.2-33.4,24.3C1210.5,1766.5,1225.7,1777.2,1243.9,1777.2z
	 M926.2,1769.6c-5.7,0.1-10.5-4.4-10.6-10.1c0-0.2,0-0.3,0-0.5c-0.2-5.7,4.4-10.5,10.1-10.7c0.2,0,0.4,0,0.5,0
	c6.1,0,10.6,4.6,10.6,10.7c0.1,5.7-4.4,10.5-10.1,10.6C926.5,1769.6,926.3,1769.6,926.2,1769.6z M1134.5,1769.6
	c-5.7,0.1-10.5-4.4-10.7-10.1c0-0.2,0-0.3,0-0.5c0-6.1,4.6-10.7,10.7-10.7s10.6,4.6,10.6,10.7c0.1,5.7-4.4,10.5-10.1,10.6
	C1134.8,1769.6,1134.6,1769.6,1134.5,1769.6z M1552.5,1769.6c-5.7,0.1-10.5-4.4-10.6-10.2c0-0.2,0-0.3,0-0.5
	c0-6.1,4.6-10.7,10.6-10.7c6.1,0,10.6,4.6,10.6,10.7c0.1,5.7-4.4,10.5-10.1,10.6C1552.9,1769.6,1552.7,1769.6,1552.5,1769.6z
	 M1348.8,1769.6c-5.7,0.1-10.5-4.4-10.7-10.1c0-0.2,0-0.3,0-0.5c0-6.1,4.6-10.7,10.7-10.7s10.6,4.6,10.6,10.7
	c0.1,5.7-4.4,10.5-10.1,10.6C1349.2,1769.6,1349,1769.6,1348.8,1769.6z"/>
</svg>
