<?xml version="1.0" encoding="utf-8"?>
<!-- Generator: Adobe Illustrator 25.4.1, SVG Export Plug-In . SVG Version: 6.00 Build 0)  -->
<svg version="1.1" id="Layer_1" xmlns="http://www.w3.org/2000/svg" xmlns:xlink="http://www.w3.org/1999/xlink" x="0px" y="0px"
	 viewBox="0 0 124.4 29.1" style="enable-background:new 0 0 124.4 29.1;" xml:space="preserve">
<style type="text/css">
	.st0{fill:#FFFFFF;}
</style>
<g>
	<path class="st0" d="M36.7,18.5c0.9,0.4,2,0.6,3.3,0.6c1.4,0,2.5-0.3,3.5-0.8c0.9-0.5,1.7-1.2,2.2-2.1c0.5-0.9,0.9-1.9,1.1-3l1.1-6
		l-2.8,0l-0.3,2c-0.1-0.1-0.1-0.2-0.2-0.2c-0.5-0.6-1.2-1.1-2-1.5C41.8,7.2,40.8,7,39.7,7c-1.3,0-2.5,0.3-3.5,0.8S34.4,9,33.8,9.9
		c-0.6,0.9-0.9,2-0.9,3.2c0,1.2,0.3,2.2,0.8,3.1c0.3,0.5,0.6,0.9,1,1.2c-0.1,0.1-0.3,0.2-0.4,0.3c-0.3,0.3-0.6,0.6-0.8,1.1
		c-0.2,0.4-0.4,0.9-0.4,1.4c0,0.8,0.3,1.4,0.9,2c0.6,0.5,1.4,0.8,2.4,0.9l5.7,0.5c0.7,0.1,1.2,0.2,1.7,0.3c0.5,0.1,0.7,0.5,0.7,1.1
		c0,0.4-0.2,0.7-0.5,1c-0.3,0.3-0.9,0.5-1.6,0.6c-0.7,0.1-1.6,0.2-2.6,0.2c-1.4,0-2.6-0.1-3.4-0.4c-0.8-0.3-1.2-0.8-1.2-1.5
		c0-0.3,0-0.5,0.1-0.7c0.1-0.2,0.1-0.3,0.2-0.4l-2.8-0.4c-0.1,0.2-0.2,0.4-0.3,0.7s-0.1,0.6-0.1,1c0,1.2,0.6,2.2,1.9,2.9
		c1.3,0.7,3.1,1.1,5.5,1.1c1.7,0,3.1-0.2,4.3-0.5c1.1-0.4,2-0.9,2.6-1.5c0.6-0.6,0.9-1.4,0.9-2.3c0-0.8-0.2-1.4-0.5-1.9
		c-0.4-0.5-0.9-0.8-1.5-1.1c-0.6-0.2-1.4-0.4-2.2-0.5L38,20.8c-0.8-0.1-1.3-0.2-1.6-0.4c-0.3-0.2-0.4-0.5-0.4-0.8
		c0-0.4,0.2-0.7,0.5-0.9C36.5,18.6,36.6,18.6,36.7,18.5z M36.5,11.2c0.3-0.5,0.8-0.9,1.4-1.2c0.6-0.3,1.3-0.4,2.1-0.4
		c0.8,0,1.5,0.1,2.1,0.4c0.6,0.3,1,0.7,1.4,1.2c0.3,0.5,0.5,1.1,0.5,1.9c0,0.7-0.2,1.4-0.5,1.9s-0.8,0.9-1.4,1.2
		c-0.6,0.3-1.3,0.4-2.1,0.4c-0.8,0-1.5-0.1-2.1-0.4c-0.6-0.3-1-0.7-1.4-1.2c-0.3-0.5-0.5-1.1-0.5-1.9C36,12.4,36.1,11.7,36.5,11.2z"
		/>
	<path class="st0" d="M63.9,21.4c-0.1-0.3-0.1-0.6-0.2-0.9c0-0.3,0-0.7,0-1l0-6.1c0-0.2,0-0.4,0-0.6c0-0.2,0-0.4,0-0.6
		c0-1.1-0.3-2.1-0.9-2.9c-0.6-0.8-1.4-1.3-2.4-1.7c-1-0.4-2.2-0.6-3.4-0.6c-1.4,0-2.6,0.2-3.6,0.6c-1,0.4-1.9,1-2.5,1.9
		c-0.6,0.8-0.9,1.8-0.9,3l3,0c0-1,0.3-1.7,1-2.2c0.7-0.5,1.7-0.7,2.9-0.7c1.2,0,2.1,0.2,2.8,0.6c0.6,0.4,1,1,1,1.8c0,0,0,0,0,0
		c0,0.4-0.4,0.7-1.1,0.8c-0.7,0.2-2,0.4-3.7,0.5c-1.2,0.1-2.2,0.4-3.2,0.7c-0.9,0.4-1.7,0.9-2.2,1.6c-0.5,0.7-0.8,1.5-0.8,2.5
		c0,1,0.2,1.8,0.7,2.5c0.5,0.7,1.1,1.2,2,1.6c0.8,0.4,1.8,0.5,3,0.5c1,0,1.8-0.1,2.6-0.3c0.8-0.2,1.5-0.6,2-1
		c0.3-0.2,0.6-0.5,0.8-0.7c0,0.3,0.1,0.5,0.2,0.7c0.1,0.2,0.2,0.5,0.3,0.7c0.1,0.2,0.2,0.3,0.2,0.4l3,0c-0.1-0.1-0.2-0.2-0.3-0.4
		C64.1,21.9,64,21.7,63.9,21.4z M58.3,19.8c-0.7,0.3-1.5,0.4-2.4,0.4c-1.1,0-1.9-0.2-2.4-0.6c-0.5-0.4-0.8-0.9-0.8-1.7
		c0-0.8,0.3-1.3,1-1.6c0.6-0.3,1.6-0.6,2.8-0.7c0.9-0.1,1.8-0.2,2.7-0.4c0.6-0.1,1-0.2,1.5-0.3l0,1.3c0,0.9-0.2,1.6-0.6,2.2
		C59.6,19.1,59,19.5,58.3,19.8z"/>
	<rect x="67.6" y="0" class="st0" width="3" height="22.8"/>
	<rect x="74.9" y="0" class="st0" width="3" height="22.8"/>
	<path class="st0" d="M93.2,8c-1.1-0.7-2.5-1-4-1c-1.5,0-2.9,0.3-4.1,1c-1.2,0.7-2.1,1.6-2.8,2.8c-0.7,1.2-1,2.6-1,4.1
		c0,1.5,0.3,2.9,1,4.1s1.6,2.1,2.7,2.8s2.5,1,4.1,1c1.2,0,2.2-0.1,3.1-0.4c0.9-0.3,1.7-0.7,2.3-1.2c0.6-0.5,1.1-1,1.4-1.7
		c0.3-0.6,0.5-1.2,0.6-1.9l-3,0c0,0.3-0.1,0.6-0.3,0.9c-0.2,0.3-0.4,0.6-0.8,0.8c-0.3,0.2-0.8,0.4-1.3,0.6c-0.5,0.1-1.2,0.2-1.9,0.2
		c-1,0-1.9-0.2-2.7-0.6c-0.7-0.4-1.3-1-1.7-1.9c-0.3-0.5-0.4-1.1-0.5-1.7l12.3,0c0-0.1,0-0.2,0-0.5c0-0.2,0-0.5,0-0.6
		c0-1.5-0.3-2.9-0.9-4.1C95.2,9.6,94.3,8.6,93.2,8z M86.6,10.2c0.7-0.4,1.6-0.6,2.6-0.6c1,0,1.8,0.2,2.4,0.6
		c0.6,0.4,1.1,0.9,1.5,1.6c0.3,0.5,0.4,1.1,0.4,1.8l-9.1,0c0.1-0.6,0.3-1.1,0.5-1.5C85.3,11.2,85.9,10.6,86.6,10.2z"/>
	<path class="st0" d="M107.4,7c-0.8,0-1.5,0.1-2.1,0.4c-0.6,0.3-1.1,0.6-1.5,1.1c-0.2,0.3-0.4,0.6-0.6,0.9V7l-3,0l0,15.9l3,0l0-8.3
		c0-0.5,0.1-1.1,0.2-1.6c0.1-0.5,0.3-1,0.6-1.5s0.7-0.8,1.2-1.1c0.5-0.3,1.1-0.4,1.9-0.4c0.5,0,0.9,0.1,1.2,0.2
		c0.3,0.1,0.5,0.2,0.6,0.3l0.6-2.9c-0.1-0.1-0.3-0.1-0.7-0.2C108.5,7,108,7,107.4,7z"/>
	<path class="st0" d="M121.3,7l-3.6,12.5L113.9,7l-3.2,0l5.2,15.7l-0.4,1.2c-0.2,0.5-0.4,1-0.7,1.4c-0.3,0.4-0.6,0.7-1,1
		c-0.4,0.2-0.9,0.3-1.4,0.3c-0.3,0-0.6,0-0.9-0.1c-0.3,0-0.5-0.1-0.6-0.1v2.5c0.1,0,0.3,0.1,0.6,0.1c0.3,0,0.7,0.1,1.1,0.1
		c1.3,0,2.3-0.2,3.1-0.7c0.8-0.5,1.4-1.1,1.9-1.9c0.5-0.8,0.9-1.7,1.2-2.8L124.4,7L121.3,7z"/>
	<g>
		<g>
			<path class="st0" d="M2.2,18.2c0,0.1,0,0.3,0,0.4c0,0.1,0,0.3,0,0.4c0,0.5,0.1,1,0.2,1.3c0.2,0.3,0.4,0.6,0.6,0.8
				c0.3,0.2,0.5,0.3,0.8,0.4s0.6,0.1,0.9,0.1c0.2,0,0.5,0,0.7-0.1c0.2,0,0.3-0.1,0.4-0.1l0-1.6c-0.1,0-0.2,0.1-0.4,0.1
				c-0.2,0-0.3,0-0.5,0c-0.4,0-0.7-0.1-0.8-0.4c-0.1-0.3-0.2-0.6-0.2-1.1c0-0.1,0-0.2,0-0.3c0-0.1,0-0.2,0-0.4l0-4.2l2.8,0l0-1.6
				l-2.8,0l0-3.1l-1.9,0l0,1.8c0,0.3,0,0.6,0,0.7c0,0.2-0.1,0.3-0.1,0.4c-0.1,0.1-0.2,0.1-0.3,0.2c-0.1,0-0.3,0-0.6,0l-1.2,0l0,1.6
				l2.2,0L2.2,18.2z"/>
			<path class="st0" d="M13.6,11.8c-0.8,0-1.4,0.2-2,0.5c-0.4,0.2-0.7,0.5-1,0.9l0-5.7l-1.9,0l0,13.9l1.9,0l0-5.5
				c0-0.5,0.1-0.9,0.3-1.2c0.2-0.4,0.5-0.6,0.9-0.9c0.4-0.2,0.8-0.3,1.3-0.3c0.8,0,1.3,0.2,1.7,0.7c0.3,0.4,0.5,1.1,0.5,1.9
				c0,0.2,0,0.3,0,0.6c0,0.2,0,0.5,0,0.7c0,0.2,0,0.4,0,0.6l0,3.5h1.9l0-3.3c0-0.5,0-0.9,0-1.4c0-0.4,0-0.8,0-1.1
				c0-1.2-0.3-2.2-0.9-2.8C15.6,12.1,14.8,11.8,13.6,11.8z"/>
			<path class="st0" d="M21.5,21c0.7,0.4,1.6,0.6,2.5,0.6c0.7,0,1.4-0.1,1.9-0.3c0.6-0.2,1-0.4,1.4-0.7c0.4-0.3,0.7-0.6,0.9-1
				c0.2-0.4,0.3-0.8,0.4-1.1h-1.9c0,0.2-0.1,0.4-0.2,0.5c-0.1,0.2-0.3,0.3-0.5,0.5c-0.2,0.2-0.5,0.3-0.8,0.4S24.5,20,24,20
				c-0.6,0-1.2-0.1-1.6-0.4c-0.5-0.3-0.8-0.6-1-1.1c-0.2-0.3-0.2-0.7-0.3-1.1l7.6,0c0-0.1,0-0.2,0-0.3c0-0.1,0-0.3,0-0.4
				c0-0.9-0.2-1.8-0.6-2.5c-0.4-0.7-0.9-1.3-1.6-1.7C25.8,12,25,11.8,24,11.8c-0.9,0-1.8,0.2-2.5,0.6c-0.7,0.4-1.3,1-1.7,1.7
				c-0.4,0.7-0.6,1.6-0.6,2.6c0,1,0.2,1.8,0.6,2.5C20.2,20,20.7,20.5,21.5,21z M22.4,13.8c0.5-0.3,1-0.4,1.6-0.4
				c0.6,0,1.1,0.1,1.5,0.4c0.4,0.2,0.7,0.6,0.9,1c0.2,0.3,0.3,0.7,0.3,1.1l-5.6,0c0.1-0.3,0.2-0.7,0.3-0.9
				C21.6,14.4,22,14,22.4,13.8z"/>
		</g>
	</g>
</g>
</svg>
