<svg id="Layer_1" data-name="Layer 1" xmlns="http://www.w3.org/2000/svg" viewBox="0 0 349.98 154.83"><path d="M18.07,115a33.06,33.06,0,0,0,12.47,2.18q7.86,0,13.15-3a22.37,22.37,0,0,0,8.4-8,33.36,33.36,0,0,0,4.28-11.41l4.3-22.62H50.2l-.94,7.63c-.2-.28-.42-.55-.65-.82a21.5,21.5,0,0,0-7.73-5.56,27,27,0,0,0-11.14-2.18,28.19,28.19,0,0,0-13.2,3,22.73,22.73,0,0,0-9,8.28,22.34,22.34,0,0,0-3.27,12A22,22,0,0,0,7.4,106.24a20.16,20.16,0,0,0,3.91,4.63,14.59,14.59,0,0,0-1.57,1.23,16.11,16.11,0,0,0-3.21,4,10.13,10.13,0,0,0-1.38,5.18,9.22,9.22,0,0,0,3.53,7.41,16.07,16.07,0,0,0,9.11,3.44L39.2,134a32.33,32.33,0,0,1,6.54,1.15c1.8.54,2.71,1.89,2.71,4a4.66,4.66,0,0,1-2,3.71,14.22,14.22,0,0,1-5.92,2.42,48.39,48.39,0,0,1-10,.85q-8.19,0-12.81-1.64T13.17,139a7.62,7.62,0,0,1,1.11-4.2L3.55,133.14a10.63,10.63,0,0,0-1.17,2.72,13.41,13.41,0,0,0-.48,3.76q0,7,7.23,11.12t21,4.09a54.35,54.35,0,0,0,16.1-2c4.32-1.37,7.57-3.27,9.75-5.73a12.62,12.62,0,0,0,3.26-8.64,11.49,11.49,0,0,0-2-7.11,12.54,12.54,0,0,0-5.66-4.09,31.59,31.59,0,0,0-8.4-1.82l-19.92-1.8c-2.94-.25-4.92-.78-5.92-1.58a3.74,3.74,0,0,1-1.52-3,4.54,4.54,0,0,1,1.73-3.52Zm-.6-27.69a12.9,12.9,0,0,1,5.29-4.66A17.36,17.36,0,0,1,30.54,81a18.14,18.14,0,0,1,7.92,1.61,11.86,11.86,0,0,1,5.15,4.58,15,15,0,0,1,0,14.28A11.57,11.57,0,0,1,38.46,106a18.88,18.88,0,0,1-8,1.55,18.88,18.88,0,0,1-8-1.55,11.69,11.69,0,0,1-5.15-4.47,14.48,14.48,0,0,1,.1-14.2Z" fill="#fff"/><path d="M121.24,125.72a17.11,17.11,0,0,1-.58-3.35c-.11-1.25-.16-2.55-.16-3.89V90.84A16.91,16.91,0,0,0,117,80a21,21,0,0,0-9.27-6.56,35.86,35.86,0,0,0-12.88-2.21,36.11,36.11,0,0,0-13.66,2.42,21,21,0,0,0-9.32,7.06A18.66,18.66,0,0,0,68.53,92H79.85q0-5.62,3.91-8.21t11.08-2.59q6.8,0,10.46,2.29A7.42,7.42,0,0,1,109,90.19v.11c0,1.49-1.38,2.56-4.12,3.21a123.79,123.79,0,0,1-14.16,2,43.74,43.74,0,0,0-12,2.75,19.33,19.33,0,0,0-8.29,5.91,15.15,15.15,0,0,0-3,9.65A16.06,16.06,0,0,0,70,123.16a16.87,16.87,0,0,0,7.47,5.94,28.05,28.05,0,0,0,11.18,2.08,35.58,35.58,0,0,0,10-1.31,24.5,24.5,0,0,0,7.71-3.66,16.64,16.64,0,0,0,3-2.78,15.87,15.87,0,0,0,.65,2.73,13.67,13.67,0,0,0,1.09,2.48A7.22,7.22,0,0,0,112,130h11.47a9.76,9.76,0,0,1-1.09-1.53A11.26,11.26,0,0,1,121.24,125.72Zm-14.66-10.87a14.63,14.63,0,0,1-6.51,4.91,24.32,24.32,0,0,1-9,1.6q-6.16,0-9.16-2.09a7.17,7.17,0,0,1-3-6.3,6.49,6.49,0,0,1,3.62-6.24q3.61-1.87,10.78-2.54,5.2-.54,10.13-1.39a48.69,48.69,0,0,0,5.6-1.28v5A13.58,13.58,0,0,1,106.58,114.85Z" fill="#fff"/><rect x="135.32" y="44.84" width="11.37" height="85.19" fill="#fff"/><rect x="162.9" y="44.84" width="11.37" height="85.19" fill="#fff"/><path d="M232.26,75A29.48,29.48,0,0,0,217,71.22,30.58,30.58,0,0,0,201.63,75a27.06,27.06,0,0,0-10.47,10.54,31.75,31.75,0,0,0-3.77,15.7,31.83,31.83,0,0,0,3.72,15.56,26.81,26.81,0,0,0,10.36,10.6,30.43,30.43,0,0,0,15.46,3.82,37.44,37.44,0,0,0,11.67-1.66,27.41,27.41,0,0,0,8.6-4.47,21.43,21.43,0,0,0,5.48-6.27,17.45,17.45,0,0,0,2.25-7H233.46a7.84,7.84,0,0,1-1.17,3.29,10.8,10.8,0,0,1-2.95,3.08,15.19,15.19,0,0,1-4.94,2.26,26.11,26.11,0,0,1-7.1.85,19.63,19.63,0,0,1-10-2.45,16.13,16.13,0,0,1-6.43-7,22,22,0,0,1-1.91-6.62h46.6a13.63,13.63,0,0,0,.16-1.85c0-.91,0-1.71,0-2.4a32.81,32.81,0,0,0-3.51-15.43A25.88,25.88,0,0,0,232.26,75ZM207.4,83.46A18.89,18.89,0,0,1,217.09,81a17.33,17.33,0,0,1,9.22,2.26,14.56,14.56,0,0,1,5.55,6A17.69,17.69,0,0,1,233.65,96H199a20.21,20.21,0,0,1,1.88-5.7A16.54,16.54,0,0,1,207.4,83.46Z" fill="#fff"/><path d="M286,71.22a19.7,19.7,0,0,0-7.87,1.47,16.4,16.4,0,0,0-5.71,4,19.35,19.35,0,0,0-2.36,3.19V72.15H258.54V130h11.53V99.83a27,27,0,0,1,.71-6.18A18,18,0,0,1,273.2,88a12.68,12.68,0,0,1,4.57-4.2A14.88,14.88,0,0,1,285,82.17a13.43,13.43,0,0,1,4.49.6,10.92,10.92,0,0,1,2.15,1l2.44-11.11a11,11,0,0,0-2.57-.88A22.82,22.82,0,0,0,286,71.22Z" fill="#fff"/><path d="M338.13,72.15l-13.4,46.5L311,72.15H299l19.45,58.37L317,134.88a20.66,20.66,0,0,1-2.52,5.26,11.71,11.71,0,0,1-3.83,3.63,10.57,10.57,0,0,1-5.39,1.3,26.17,26.17,0,0,1-3.37-.21,8.61,8.61,0,0,1-2.32-.55V154a10.06,10.06,0,0,0,2.32.46,31.16,31.16,0,0,0,4.17.25q7.38,0,11.9-2.67a20.16,20.16,0,0,0,7.22-7.28,51,51,0,0,0,4.57-10.44L350,72.15Z" fill="#fff"/><path d="M8.37,40.76v3.07a11.67,11.67,0,0,0,.86,4.85,6.88,6.88,0,0,0,2.28,2.84,8.55,8.55,0,0,0,3.15,1.37,16.31,16.31,0,0,0,3.47.37,14.1,14.1,0,0,0,2.49-.2,9.6,9.6,0,0,0,1.68-.44v-6A6.88,6.88,0,0,1,21,47a10.16,10.16,0,0,1-1.87.17c-1.53,0-2.51-.52-2.94-1.55a11.38,11.38,0,0,1-.64-4.25V22.94H26.17V16.88H15.5V5.05H8.37V12q0,1.75-.09,2.76a2.79,2.79,0,0,1-.48,1.47,1.84,1.84,0,0,1-1.18.57,16,16,0,0,1-2.22.12H0v6.06H8.37Z" fill="#fff"/><path d="M51.66,16.3A15.44,15.44,0,0,0,44,18.19a14.06,14.06,0,0,0-3.86,3.16V0H33V52.65H40.1V32a9.39,9.39,0,0,1,1.16-4.68,8.34,8.34,0,0,1,3.3-3.23,10.28,10.28,0,0,1,5.06-1.18q4.37,0,6.29,2.49t1.92,7.31V52.65H65V30.89q0-6.87-3.5-10.73T51.66,16.3Z" fill="#fff"/><path d="M81.24,51a18.87,18.87,0,0,0,9.56,2.35,23.33,23.33,0,0,0,7.21-1,17,17,0,0,0,5.32-2.77,13.18,13.18,0,0,0,3.38-3.87,10.77,10.77,0,0,0,1.39-4.33H101a4.65,4.65,0,0,1-.72,2,6.63,6.63,0,0,1-1.82,1.9,9.44,9.44,0,0,1-3.06,1.4,16.14,16.14,0,0,1-4.38.52,12.11,12.11,0,0,1-6.21-1.51,10,10,0,0,1-4-4.33,13.54,13.54,0,0,1-1.18-4.09h28.8a10.47,10.47,0,0,0,.1-1.15c0-.56,0-1,0-1.48a20.24,20.24,0,0,0-2.17-9.54,16.07,16.07,0,0,0-6.16-6.5,18.22,18.22,0,0,0-9.44-2.36,19,19,0,0,0-9.49,2.35,16.73,16.73,0,0,0-6.47,6.51,19.65,19.65,0,0,0-2.33,9.71,19.68,19.68,0,0,0,2.3,9.61A16.69,16.69,0,0,0,81.24,51Zm3.67-27.17a11.66,11.66,0,0,1,6-1.5,10.7,10.7,0,0,1,5.7,1.4,9,9,0,0,1,3.43,3.7,11.11,11.11,0,0,1,1.1,4.16H79.75a12.13,12.13,0,0,1,1.15-3.52A10.26,10.26,0,0,1,84.91,23.87Z" fill="#fff"/></svg>