<svg id="Layer_1" data-name="Layer 1" xmlns="http://www.w3.org/2000/svg" viewBox="0 0 1317.37 34.57"><path d="M0,34.57V3.15c1.26,0,2.55-.56,4.66-.56C8.25,2.59,8.25,1,11.85,1s3.6,1.51,7.2,1.51,3.59-2,7.19-2,3.59.14,7.19.14,3.59,1.5,7.19,1.5,3.59-.45,7.19-.45S51.4,3,55,3,58.59.82,62.19.82,65.78.49,69.38.49s3.59.7,7.19.7S80.16.57,83.76.57,87.35,2.4,91,2.4s3.59-1.31,7.19-1.31,3.59.26,7.19.26S108.92.7,112.52.7s3.59.37,7.19.37,3.59,1.56,7.18,1.56,3.6-.73,7.19-.73,3.59.78,7.19.78S144.86.76,148.46.76s3.59.08,7.18.08,3.59.47,7.19.47,3.59.7,7.18.7S173.61.32,177.2.32s3.59.35,7.18.35,3.6,1.47,7.19,1.47S195.16.81,198.75.81s3.59,2,7.18,2,3.6-2.49,7.19-2.49,3.6,1.13,7.19,1.13,3.59,1.29,7.19,1.29,3.59,0,7.19,0,3.59-1.35,7.18-1.35,3.6-.76,7.19-.76,3.59,1.79,7.19,1.79,3.59-.68,7.18-.68S267,2,270.62,2s3.59-.21,7.19-.21,3.59.37,7.18.37h7.19c3.59,0,3.59-1.82,7.19-1.82s3.59.82,7.18.82S310.15,3,313.74,3s3.59-1.24,7.19-1.24S324.52.59,328.11.59s3.59,2,7.19,2,3.59-.93,7.19-.93,3.59.09,7.18.09,3.59.08,7.19.08,3.59.92,7.18.92,3.59-.5,7.19-.5,3.59-.8,7.18-.8S382,.23,385.6.23s3.59,1,7.18,1,3.59.26,7.19.26,3.59,1.37,7.18,1.37,3.6-2.24,7.19-2.24,3.59.37,7.18.37,3.6-.49,7.19-.49,3.59.84,7.18.84,3.59-.51,7.18-.51,3.6,1.36,7.19,1.36S453.85.27,457.45.27s3.59,1,7.18,1,3.59,1.25,7.18,1.25,3.6.21,7.19.21S482.59.26,486.18.26,489.77,3,493.36,3s3.6-2,7.19-2,3.59,1.88,7.18,1.88,3.6-1,7.19-1,3.59-.28,7.18-.28,3.59,0,7.18,0,3.59.37,7.18.37,3.6-1.16,7.19-1.16,3.59,1.74,7.18,1.74S554.42.42,558,.42s3.6.71,7.19.71S568.79,0,572.38,0s3.6,1.17,7.19,1.17,3.59-.88,7.18-.88,3.59-.17,7.18-.17S597.52,0,601.11,0s3.59,2.11,7.18,2.11S611.88.43,615.47.43s3.59,2.48,7.18,2.48,3.6-1.62,7.19-1.62S633.43,2.9,637,2.9s3.6-2.54,7.19-2.54,3.59,1.2,7.18,1.2,3.59.69,7.18.69,3.59-.55,7.18-.55,3.59-.83,7.18-.83,3.59-.41,7.18-.41,3.59,1.19,7.18,1.19,3.59-1.6,7.18-1.6,3.59,2.68,7.18,2.68,3.59-1.1,7.18-1.1,3.59,1,7.18,1,3.6-.77,7.19-.77,3.59-.18,7.18-.18,3.59.15,7.19.15,3.59-1,7.18-1,3.59.41,7.18.41,3.6.17,7.19.17S762.71.23,766.3.23s3.59,1.31,7.19,1.31,3.59.86,7.18.86S784.26.53,787.86.53s3.59.34,7.18.34,3.59-.11,7.18-.11,3.59.7,7.19.7,3.59,1.42,7.18,1.42S820.18.29,823.78.29,827.37,2,831,2,834.55.11,838.14.11s3.6.85,7.19.85,3.59.31,7.18.31,3.59,1.51,7.18,1.51,3.6-1.19,7.19-1.19,3.59.8,7.18.8S877.65.73,881.25.73s3.59-.25,7.18-.25S892,2.8,895.62,2.8s3.59-.92,7.18-.92,3.59.54,7.18.54S913.57.7,917.17.7s3.59.57,7.18.57,3.59-.11,7.18-.11,3.59.68,7.18.68S942.31.61,945.9.61s3.59.59,7.18.59,3.59-.66,7.19-.66,3.59-.18,7.18-.18,3.59,2.47,7.18,2.47,3.6-1.71,7.19-1.71,3.59.32,7.18.32,3.59.48,7.18.48,3.59-.6,7.19-.6,3.59.1,7.18.1,3.59-.8,7.18-.8,3.59.52,7.19.52,3.59.62,7.18.62,3.59.6,7.18.6,3.6-1.89,7.19-1.89,3.59-.06,7.18-.06,3.59,1.84,7.18,1.84,3.6-1.52,7.19-1.52,3.59.33,7.18.33,3.59.58,7.18.58S1086,.15,1089.56.15s3.59.66,7.19.66,3.59.47,7.18.47,3.59.06,7.18.06,3.59.54,7.19.54,3.59.88,7.18.88,3.59-.93,7.18-.93,3.6-1.15,7.19-1.15,3.59,1.6,7.18,1.6,3.59-.06,7.18-.06,3.59-.84,7.18-.84,3.6.76,7.19.76S1172.17.6,1175.76.6s3.59-.57,7.18-.57,3.59,2.54,7.18,2.54,3.59-1,7.18-1h7.19c3.59,0,3.59.49,7.18.49s3.59-.71,7.19-.71,3.59-.46,7.18-.46,3.59,1.72,7.18,1.72,3.59-.7,7.19-.7S1244,.07,1247.59.07s3.59,2.82,7.18,2.82,3.59-.08,7.18-.08,3.59-1.26,7.18-1.26S1272.72.2,1276.31.2s3.59.6,7.19.6,3.59.82,7.18.82,3.59,1.19,7.18,1.19,3.59-.14,7.18-.14,3.59-.65,7.18-.65c2.52,0,3.72.91,5.15.67V34.57Z" fill="#fff"/></svg>