<?xml version="1.0" encoding="utf-8"?>
<!-- Generator: Adobe Illustrator 25.4.1, SVG Export Plug-In . SVG Version: 6.00 Build 0)  -->
<svg version="1.1" id="Layer_1" xmlns="http://www.w3.org/2000/svg" xmlns:xlink="http://www.w3.org/1999/xlink" x="0px" y="0px"
	 viewBox="0 0 699.1 34.6" style="enable-background:new 0 0 699.1 34.6;" xml:space="preserve">
<style type="text/css">
	.st0{fill:#FFFFFF;}
</style>
<path class="st0" d="M0,34.6V3.2V3.2c1.3,0,2.5-0.6,4.7-0.6C8.3,2.6,8.3,1,11.9,1c3.6,0,3.6,1.5,7.2,1.5c3.6,0,3.6-2,7.2-2
	c3.6,0,3.6,0.1,7.2,0.1c3.6,0,3.6,1.5,7.2,1.5c3.6,0,3.6-0.5,7.2-0.5S51.4,3,55,3c3.6,0,3.6-2.1,7.2-2.1c3.6,0,3.6-0.3,7.2-0.3
	c3.6,0,3.6,0.7,7.2,0.7c3.6,0,3.6-0.6,7.2-0.6c3.6,0,3.6,1.8,7.2,1.8c3.6,0,3.6-1.3,7.2-1.3c3.6,0,3.6,0.3,7.2,0.3
	c3.6,0,3.6-0.7,7.2-0.7c3.6,0,3.6,0.4,7.2,0.4c3.6,0,3.6,1.6,7.2,1.6c3.6,0,3.6-0.7,7.2-0.7c3.6,0,3.6,0.8,7.2,0.8
	c3.6,0,3.6-1.9,7.2-1.9c3.6,0,3.6,0.1,7.2,0.1c3.6,0,3.6,0.5,7.2,0.5c3.6,0,3.6,0.7,7.2,0.7c3.6,0,3.6-1.7,7.2-1.7
	c3.6,0,3.6,0.4,7.2,0.4c3.6,0,3.6,1.5,7.2,1.5c3.6,0,3.6-1.3,7.2-1.3c3.6,0,3.6,2,7.2,2c3.6,0,3.6-2.5,7.2-2.5
	c3.6,0,3.6,1.1,7.2,1.1c3.6,0,3.6,1.3,7.2,1.3c3.6,0,3.6,0,7.2,0s3.6-1.3,7.2-1.3c3.6,0,3.6-0.8,7.2-0.8c3.6,0,3.6,1.8,7.2,1.8
	c3.6,0,3.6-0.7,7.2-0.7c3.6,0,3.6,0.3,7.2,0.3c3.6,0,3.6-0.2,7.2-0.2c3.6,0,3.6,0.4,7.2,0.4s3.6,0,7.2,0c3.6,0,3.6-1.8,7.2-1.8
	c3.6,0,3.6,0.8,7.2,0.8c3.6,0,3.6,1.8,7.2,1.8c3.6,0,3.6-1.2,7.2-1.2c3.6,0,3.6-1.1,7.2-1.1c3.6,0,3.6,2,7.2,2
	c3.6,0,3.6-0.9,7.2-0.9c3.6,0,3.6,0.1,7.2,0.1c3.6,0,3.6,0.1,7.2,0.1c3.6,0,3.6,0.9,7.2,0.9c3.6,0,3.6-0.5,7.2-0.5
	c3.6,0,3.6-0.8,7.2-0.8c3.6,0,3.6-1.2,7.2-1.2c3.6,0,3.6,1,7.2,1c3.6,0,3.6,0.3,7.2,0.3c3.6,0,3.6,1.4,7.2,1.4
	c3.6,0,3.6-2.2,7.2-2.2c3.6,0,3.6,0.4,7.2,0.4c3.6,0,3.6-0.5,7.2-0.5s3.6,0.8,7.2,0.8c3.6,0,3.6-0.5,7.2-0.5c3.6,0,3.6,1.4,7.2,1.4
	c3.6,0,3.6-1.9,7.2-1.9c3.6,0,3.6,1,7.2,1c3.6,0,3.6,1.2,7.2,1.2c3.6,0,3.6,0.2,7.2,0.2s3.6-2.5,7.2-2.5c3.6,0,3.6,2.7,7.2,2.7
	c3.6,0,3.6-2,7.2-2c3.6,0,3.6,1.9,7.2,1.9c3.6,0,3.6-1,7.2-1c3.6,0,3.6-0.3,7.2-0.3c3.6,0,3.6,0,7.2,0c3.6,0,3.6,0.4,7.2,0.4
	c3.6,0,3.6-1.2,7.2-1.2c3.6,0,3.6,1.7,7.2,1.7c3.6,0,3.6-2.1,7.2-2.1c3.6,0,3.6,0.7,7.2,0.7c3.6,0,3.6-1.1,7.2-1.1
	c3.6,0,3.6,1.2,7.2,1.2c3.6,0,3.6-0.9,7.2-0.9c3.6,0,3.6-0.2,7.2-0.2c3.6,0,3.6-0.1,7.2-0.1c3.6,0,3.6,2.1,7.2,2.1
	c3.6,0,3.6-1.7,7.2-1.7c3.6,0,3.6,2.5,7.2,2.5c3.6,0,3.6-1.6,7.2-1.6c3.6,0,3.6,1.6,7.2,1.6c3.6,0,3.6-2.5,7.2-2.5
	c3.6,0,3.6,1.2,7.2,1.2c3.6,0,3.6,0.7,7.2,0.7c3.6,0,3.6-0.6,7.2-0.6c3.6,0,3.6-0.8,7.2-0.8s3.6-0.4,7.2-0.4c3.6,0,3.6,1.2,7.2,1.2
	c3.6,0,3.6-1.6,7.2-1.6c3.6,0,3.6,2.7,7.2,2.7c3.6,0,3.6-1.1,7.2-1.1c3.6,0,3.6,1,7.2,1c3.6,0,3.6-0.8,7.2-0.8
	c3.6,0,3.6-0.2,7.2-0.2c3.6,0,3.6,0.2,7.2,0.2s3.6-1,7.2-1s3.6,0.4,7.2,0.4c3.6,0,3.6,0.2,7.2,0.2c3.6,0,3.6-1.2,7.2-1.2
	c3.6,0,3.6,1.3,7.2,1.3c3.6,0,3.6,0.9,7.2,0.9c3.6,0,3.6-1.9,7.2-1.9c3.6,0,3.6,0.3,7.2,0.3s3.6-0.1,7.2-0.1s3.6,0.7,7.2,0.7
	c3.6,0,3.6,1.4,7.2,1.4c3.6,0,3.6-2.6,7.2-2.6c3.6,0,3.6,1.7,7.2,1.7c3.6,0,3.6-1.9,7.2-1.9c3.6,0,3.6,0.9,7.2,0.9
	c3.6,0,3.6,0.3,7.2,0.3s3.6,1.5,7.2,1.5c3.6,0,3.6-1.2,7.2-1.2c3.6,0,3.6,0.8,7.2,0.8c3.6,0,3.6-1.7,7.2-1.7c3.6,0,3.6-0.3,7.2-0.3
	c3.6,0,3.6,2.3,7.2,2.3c3.6,0,3.6-0.9,7.2-0.9c3.6,0,3.6,0.5,7.2,0.5c3.6,0,3.6-1.7,7.2-1.7c3.6,0,3.6,0.6,7.2,0.6
	c3.6,0,3.6-0.1,7.2-0.1c3.6,0,3.6,0.7,7.2,0.7c3.6,0,3.6-1.2,7.2-1.2c3.6,0,3.6,0.6,7.2,0.6c3.6,0,3.6-0.7,7.2-0.7
	c3.6,0,3.6-0.2,7.2-0.2c3.6,0,3.6,2.5,7.2,2.5c3.6,0,3.6-1.7,7.2-1.7c3.6,0,3.6,0.3,7.2,0.3c3.6,0,3.6,0.5,7.2,0.5s3.6-0.6,7.2-0.6
	c3.6,0,3.6,0.1,7.2,0.1s3.6-0.8,7.2-0.8c3.6,0,3.6,0.5,7.2,0.5c3.6,0,3.6,0.6,7.2,0.6s3.6,0.6,7.2,0.6c3.6,0,3.6-1.9,7.2-1.9
	c3.6,0,3.6-0.1,7.2-0.1c3.6,0,3.6,1.8,7.2,1.8s3.6-1.5,7.2-1.5s3.6,0.3,7.2,0.3s3.6,0.6,7.2,0.6c3.6,0,3.6-1.5,7.2-1.5
	c3.6,0,3.6,0.7,7.2,0.7c3.6,0,3.6,0.5,7.2,0.5c3.6,0,3.6,0.1,7.2,0.1c3.6,0,3.6,0.5,7.2,0.5c3.6,0,3.6,0.9,7.2,0.9
	c3.6,0,3.6-0.9,7.2-0.9c3.6,0,3.6-1.2,7.2-1.2c3.6,0,3.6,1.6,7.2,1.6c3.6,0,3.6-0.1,7.2-0.1c3.6,0,3.6-0.8,7.2-0.8
	c3.6,0,3.6,0.8,7.2,0.8s3.6-1.5,7.2-1.5c3.6,0,3.6-0.6,7.2-0.6c3.6,0,3.6,2.5,7.2,2.5c3.6,0,3.6-1,7.2-1c3.6,0,3.6,0,7.2,0
	c3.6,0,3.6,0.5,7.2,0.5c3.6,0,3.6-0.7,7.2-0.7c3.6,0,3.6-0.5,7.2-0.5c3.6,0,3.6,1.7,7.2,1.7s3.6-0.7,7.2-0.7c3.6,0,3.6-1.8,7.2-1.8
	c3.6,0,3.6,2.8,7.2,2.8s3.6-0.1,7.2-0.1c3.6,0,3.6-1.3,7.2-1.3c3.6,0,3.6-1.4,7.2-1.4s3.6,0.6,7.2,0.6c3.6,0,3.6,0.8,7.2,0.8
	s3.6,1.2,7.2,1.2c3.6,0,3.6-0.1,7.2-0.1c3.6,0,3.6-0.7,7.2-0.7c2.5,0,3.7,0.9,5.1,0.7v0.1v31.7H0z"/>
</svg>
