<svg width="2941" height="1815" viewBox="0 0 2941 1815" fill="none" xmlns="http://www.w3.org/2000/svg">
<path d="M1532.46 122.156C1650.75 200.798 1622.1 451.292 1502.15 605.12C1406.33 727.987 1301.46 726.034 1272.86 825.67C1226.72 986.74 1462.89 1123.36 1422.29 1174.34C1376.43 1231.94 987.879 1166.69 844.629 929.293C696.72 684.17 871.249 356.538 1104.23 207.389C1212.79 137.738 1423.63 49.6152 1532.46 122.156Z" fill="#FDC988"/>
<path d="M1918.26 88.0843C1745.56 207 1696.39 473.428 1794.6 546.686C1915.12 636.564 2238.16 421.395 2314.92 503.534C2372.02 564.743 2214.87 707.464 2280.13 788.461C2332.39 853.317 2502.08 847.421 2612.41 788.461C2780.01 698.878 2833.73 474.46 2768.22 317.367C2654.93 46.075 2162.53 -79.9899 1918.26 88.0843Z" fill="#E88688"/>
<path d="M2024.15 664.616C1905.92 634.29 1687.22 622.784 1584.03 749.567C1469.9 889.804 1559.68 1122.42 1724.32 1210.42C1959.65 1336.28 2337.72 1160.83 2357.48 978.394C2372.02 843.928 2192.26 707.735 2024.15 664.616Z" fill="#34A7DF"/>
<path d="M1681.01 1211.51C1678.71 1211.51 1676.08 1214.04 1673.7 1213.93C1646.87 1212.4 1620.85 1205.18 1597.87 1192.9C1581.16 1183.71 1565.3 1169.45 1551.06 1155.11C1538.28 1142.31 1534.35 1122.31 1523.7 1105.55C1513.05 1088.78 1499.73 1070.88 1491.84 1050.4C1483.86 1030.9 1477.55 1010.9 1472.96 990.578C1469.37 973.004 1469.75 955.062 1468.54 937.487C1467.68 919.824 1468.06 902.13 1469.67 884.507C1470.88 866.602 1477.02 849.836 1480.73 832.63C1484.45 815.423 1484.91 797.15 1491.3 780.606C1497.69 764.061 1509.34 749.06 1518.57 733.618C1528.25 717.478 1533.31 698.654 1546.29 683.8C1559.28 668.946 1577.57 659.461 1592.94 646.445C1607.52 633.282 1623.09 620.998 1639.54 609.679C1656.25 598.943 1671.36 585.266 1689.99 576.185C1708.61 567.104 1729.62 563.942 1749.24 556.846C1768.87 549.75 1788.87 546.625 1809.29 541.515C1829.72 536.404 1848.72 530.485 1869.6 527.212C1888.52 524.926 1907.58 523.576 1926.68 523.168C1945.7 522.529 1964.75 522.909 1983.72 524.308C2003.48 525.411 2024.19 516.697 2042.52 520.08C2060.85 523.462 2074.68 535.044 2090.46 540.228C2107.16 545.743 2126.12 546.699 2140.57 554.383C2155.81 562.398 2166.75 575.413 2179.32 585.744C2195.78 599.274 2215.86 611.922 2228.56 629.864C2240.54 646.813 2246.6 667.66 2254.66 687.44C2262.06 706.851 2267.32 726.847 2270.36 747.148C2273.29 766.177 2274.06 785.415 2272.66 804.577C2271.53 824.799 2263.68 842.226 2257.54 859.727C2250.77 879.102 2245.81 897.081 2233.19 911.788C2220.9 927.118 2203.95 939.094 2184.29 946.348C2164.52 953.828 2143.78 959.15 2122.53 962.194C2104.91 964.694 2086.33 969.768 2064.95 974.805C2047.66 978.849 2028.66 982.158 2008.57 990.467C1992.28 997.085 1976.5 1007.12 1958.17 1017.71C1939.83 1028.3 1921.13 1035.84 1906.22 1047.12C1889.89 1059.48 1878.91 1075.36 1865.38 1087.97C1850.51 1101.76 1834.02 1112.9 1821.15 1125.95C1807.54 1139.78 1790.42 1148.97 1777.64 1160.36C1762.94 1173.53 1751.96 1187.46 1735.88 1195.4C1719.39 1204.04 1701.89 1211.51 1681.01 1211.51ZM1954.12 527.654C1927.1 527.654 1899.83 532.286 1871.39 536.514C1850.93 539.566 1832.22 546.184 1812.59 551.221C1792.9 555.59 1773.49 560.917 1754.46 567.177C1735.21 574.126 1712.71 574.163 1694.71 582.84C1676.71 591.517 1661.01 604.458 1644.6 614.974C1628.23 625.89 1612.71 637.768 1598.16 650.527C1583.04 663.248 1567.17 675.05 1554.81 689.205C1541.85 703.406 1530.3 718.561 1520.28 734.501C1511.26 749.575 1499.77 764.833 1493.34 781.561C1487.16 797.702 1486.58 816.048 1482.86 833.365C1479.15 850.682 1472.71 867.411 1471.55 884.838C1470.38 902.265 1477.77 919.582 1478.98 937.046C1480.19 954.51 1476.22 972.305 1479.77 989.475C1484.24 1008 1490.18 1026.22 1497.56 1044C1504.49 1062.38 1517.4 1078.16 1526.79 1094.11C1537.19 1111.58 1544.25 1130.25 1557.24 1143.89C1571.73 1159.15 1586.8 1174.81 1603.84 1184.34C1625.09 1195.99 1649.26 1202.9 1674.25 1204.45C1676.33 1204.45 1678.42 1206.29 1680.68 1206.29C1700.49 1206.32 1719.97 1201.86 1737.26 1193.34C1752.13 1185.66 1758.56 1166.17 1772.59 1153.56C1784.66 1142.53 1803.37 1135.66 1816.31 1122.53C1829.26 1109.41 1837.77 1091.21 1852.85 1077.16C1866.55 1064.4 1885.17 1054.88 1901.79 1042.31C1916.87 1030.87 1929.6 1014.99 1947.98 1004.33C1966.35 993.666 1987.11 988.519 2003.77 981.717C2022.37 974.543 2041.65 968.822 2061.4 964.621C2081.12 960.522 2101.08 957.392 2121.2 955.245C2143.66 952.083 2165.29 952.856 2182.67 946.642C2200.04 940.429 2214.69 926.347 2229.19 909.398C2241.78 894.186 2251.29 877.169 2257.29 859.102C2263.09 842.263 2263.39 823.254 2264.39 803.952C2265.31 786.231 2261.42 768.142 2258.17 749.097C2254.74 729.17 2251.61 709.683 2244.13 691.337C2236.37 672.219 2224.59 655.527 2213.02 639.129C2200.75 621.702 2190.31 603.76 2174.4 590.708C2160.28 579.126 2141.49 572.876 2123.62 564.273C2106.91 556.221 2090.54 546.257 2071 540.963C2052.71 536 2034.17 526.918 2014 524.455C1995.04 522.028 1974.45 527.838 1954.12 527.838V527.654Z" fill="#34A7DF"/>
<path d="M2391.67 1368.33C2371.75 1368.33 2350.99 1375.22 2330.53 1374.37C2310.06 1373.53 2290.01 1370.69 2269.67 1368.96C2249.33 1367.23 2230 1359.72 2209.87 1357.43C2189.74 1355.15 2168.1 1359.86 2148.35 1356.88C2128.59 1353.9 2112.76 1330.62 2093.05 1326.94C2073.34 1323.26 2051.54 1327.38 2032.07 1323.03C2012.61 1318.69 1992.73 1314.16 1973.6 1309.08C1953.89 1303.85 1932.63 1303.44 1913.96 1297.55C1897.26 1292.36 1876.37 1278.88 1851.98 1269.19C1831.36 1260.27 1811.6 1249.89 1792.89 1238.14C1768.41 1223.71 1749.91 1211.66 1749.99 1195.94C1750.08 1180.21 1763.11 1164.45 1791.76 1154.14C1808.92 1148.03 1831.27 1143.31 1855.83 1137.64C1875.41 1133.07 1895.25 1121.77 1918.47 1116.87C1936.06 1113.19 1954.6 1110.87 1973.02 1106.74C1991.44 1102.62 2012.36 1109.76 2030.32 1105.23C2048.28 1100.7 2063.36 1088.03 2080.73 1082.73C2098.1 1077.42 2122.49 1084.57 2138.95 1078.01C2159.08 1069.99 2166.51 1045.2 2181.8 1036.25C2200.47 1025.2 2220.14 1020.56 2231.67 1008.08C2245.24 993.345 2257.9 979.093 2261.91 962.041C2266.46 942.78 2254.01 925.617 2247.08 906.982C2240.65 889.746 2241.82 868.128 2228.74 851.371C2216.88 836.198 2196.84 825.26 2181.93 810.418C2167.64 796.202 2161.84 774.436 2146.8 760.441C2133.85 748.435 2106.71 747.883 2094.18 735.656C2081.65 723.429 2083.9 699.564 2072.79 686.71C2061.24 674.222 2050.93 660.877 2041.97 646.825C2032.91 631.578 2009.94 621.045 2006.81 605.062C2003.67 589.078 2016.95 572.284 2021.88 555.453C2027.23 537.26 2033.79 519.803 2047.32 504.225C2060.1 489.493 2078.14 479.071 2095.72 467.175C2112.31 455.247 2130.15 444.752 2149.02 435.834C2168.9 427.032 2185.23 409.17 2205.11 404.014C2227.76 397.669 2251.21 393.81 2274.94 392.524C2303.25 391.861 2322.63 409.944 2336.29 420.992C2348.82 431.12 2348.07 440.29 2346.52 458.815C2345.48 471.006 2355.17 486.989 2351.41 504.777C2347.98 521.166 2346.65 541.09 2343.05 564.661C2340.26 582.559 2333.41 601.857 2331.7 624.176C2330.19 643.216 2315.45 660.71 2314.28 678.093C2312.98 697.28 2325.22 716.063 2324.76 733.335C2324.3 752.781 2317.37 771.158 2318.66 788.173C2320.17 807.766 2332.49 824.155 2337.37 840.617C2342.85 859.031 2337.75 881.386 2349.07 896.081C2358.84 908.824 2380.81 912.359 2395.47 921.861C2408.83 930.479 2424.71 933.425 2442.54 939.354C2458.46 944.893 2474.91 949.17 2491.7 952.134C2511.24 955.522 2529.28 973.31 2550.38 974.784C2570.55 976.183 2592.14 964.84 2612.77 965.208C2633.4 965.576 2653.91 976.625 2674.38 976.625C2697.51 976.625 2720.32 975.226 2742.33 975.741C2766.22 976.33 2789.31 971.616 2810.49 974.084C2835.17 976.956 2861.9 973.126 2880.65 980.492C2902.75 989.22 2914.77 1010.84 2925.17 1028.92C2934.15 1044.57 2942.42 1061.85 2940.79 1079.41C2939.21 1096.21 2927.8 1112.56 2920.58 1128.8C2913.02 1145.63 2909.76 1164.6 2900.49 1178.19C2885.37 1200.28 2872.34 1218.52 2868.46 1222.75C2855.3 1237 2826.69 1237.48 2811.16 1249.19C2795.62 1260.9 2787.27 1280.79 2769.72 1290.29C2752.18 1299.8 2737.11 1315.04 2718.23 1322.45C2699.35 1329.85 2676.46 1329.04 2656.71 1334.53C2636.95 1340.01 2615.74 1339.94 2595.69 1343.81C2575.64 1347.67 2555.81 1353.79 2535.63 1356.25C2515.46 1358.72 2494.66 1365.02 2474.61 1366.35C2453.36 1367.74 2432.26 1360.53 2412.51 1360.82C2405.58 1360.86 2398.69 1368.33 2391.67 1368.33ZM2280.03 413.811C2259.9 413.811 2239.56 424.012 2214.13 430.641C2194.58 435.089 2175.52 441.092 2157.2 448.577C2138.66 456.716 2118.28 461.025 2101.86 472.037C2085.45 483.049 2076.8 500.321 2064.61 514.316C2051.49 529.268 2021.42 536.745 2016.33 554.164C2010.44 574.31 2020.8 596.996 2027.19 616.331C2034.17 635.534 2044.42 653.69 2057.59 670.174C2069.66 686.048 2088.87 698.238 2104.33 713.706C2119.11 728.437 2129.8 747.146 2145.42 761.583C2161.04 776.02 2174.45 792.372 2189.19 807.177C2204.6 822.571 2221.27 836.161 2233.42 852.034C2246.75 869.417 2263.95 884.811 2270.34 902.931C2276.99 922.77 2277.92 943.756 2273.06 963.993C2268.88 982.039 2265.12 1004.5 2251.13 1019.9C2239.06 1033.19 2219.68 1046.34 2200.18 1057.91C2184.1 1067.41 2158.66 1066.49 2137.53 1074.92C2120.82 1081.51 2106.54 1095.18 2088.46 1100.7C2070.37 1106.22 2048.07 1097.2 2029.99 1101.81C2011.9 1106.41 1999.16 1128.76 1981.12 1132.78C1963.08 1136.79 1941.95 1133.11 1924.15 1136.9C1903.56 1141.29 1882.18 1141.84 1863.22 1146.22C1841.17 1151.34 1824.46 1165.45 1807.71 1170.97C1779.44 1180.29 1753.42 1183.75 1753.42 1195.83C1753.42 1207.91 1775.05 1219.69 1802.24 1235.01C1817.82 1243.74 1831.48 1262.89 1854.36 1271.84C1872.57 1279.02 1900.31 1270.44 1922.19 1277.4C1940.32 1283.11 1954.35 1305.06 1975.94 1310.55C1994.99 1315.52 2015.95 1319.5 2037.25 1324.18C2056.84 1328.45 2081.19 1317.51 2102.36 1321.34C2122.37 1325.02 2140.54 1339.75 2161.63 1342.81C2181.93 1345.76 2203.39 1345.39 2224.28 1347.67C2245.16 1349.96 2265.41 1355.37 2286.46 1356.84C2307.51 1358.32 2328.23 1357.69 2349.49 1358.32C2370.75 1358.94 2391.25 1347.71 2412.13 1347.27C2431.55 1346.97 2451.23 1345.39 2472.15 1344.03C2491.82 1342.74 2513.54 1354.85 2534 1352.35C2553.8 1349.92 2574.64 1348.67 2594.6 1344.98C2614.57 1341.3 2630.73 1325.76 2650.07 1320.42C2669.41 1315.08 2686.74 1306.76 2705.2 1299.57C2723.66 1292.39 2743.08 1287.9 2760.33 1278.62C2777.58 1269.34 2802.09 1268.16 2817.59 1256.52C2833.08 1244.88 2837.97 1223.89 2851 1209.86C2865.83 1199.57 2878.54 1187.11 2888.59 1173.03C2897.4 1160.18 2897.82 1141.51 2905.29 1125.6C2912.77 1109.69 2932.06 1096.91 2933.94 1081.07C2935.91 1064.17 2921.41 1048.81 2913.06 1034.19C2903.29 1017.17 2887.08 1011.24 2865.16 1003.22C2845.66 996.316 2825.16 991.854 2804.26 989.957C2783.97 987.784 2763.29 971.064 2740.36 970.548C2719.19 970.07 2697.01 982.112 2674.75 982.112C2654.12 982.112 2633.4 971.064 2612.61 970.696C2591.81 970.327 2571.13 971.027 2550.71 969.591C2529.53 968.118 2508.24 971.727 2488.4 968.302C2468.56 964.877 2447.3 969.149 2431.22 963.698C2412.76 957.4 2400.94 940.238 2386.91 931.105C2371.62 921.161 2354.25 912.691 2343.89 899.138C2332.28 884.001 2329.19 864.335 2323.43 845.552C2318.25 828.721 2308.06 810.97 2306.39 791.046C2304.97 773.626 2302.21 754.475 2302.67 734.624C2303.04 716.984 2324.22 699.122 2325.51 679.382C2326.73 661.593 2314.82 642.295 2316.37 622.85C2318.12 600.274 2312.19 578.95 2315.16 560.941C2318.87 537.15 2331.86 518.183 2335.37 501.647C2338.88 485.111 2346.98 472.957 2348.19 462.13C2350.24 444.194 2344.43 431.636 2334.03 423.202C2323.63 414.768 2303.46 413.811 2280.03 413.811V413.811Z" fill="#FDC988"/>
<path d="M1297.97 1808.07C1278 1808.07 1257.2 1814.93 1236.68 1814.09C1216.17 1813.24 1196.07 1810.42 1175.68 1808.65C1155.3 1806.89 1135.91 1799.47 1115.73 1797.19C1095.55 1794.92 1073.87 1799.62 1054.06 1796.64C1034.26 1793.67 1018.4 1770.42 998.635 1766.78C978.875 1763.15 957.021 1767.22 937.512 1762.89C918.002 1758.56 898.074 1754.04 878.9 1748.97C859.726 1743.9 837.83 1743.35 819.117 1737.48C802.58 1732.3 781.438 1718.85 756.988 1709.2C736.318 1700.3 716.507 1689.95 697.749 1678.23C673.216 1663.84 654.669 1651.83 654.753 1636.14C654.837 1620.46 667.899 1604.74 696.619 1594.46C713.867 1588.33 736.265 1583.66 760.882 1577.97C780.517 1573.45 800.403 1562.18 823.68 1557.25C841.347 1553.58 859.935 1551.3 878.398 1547.19C896.86 1543.08 917.835 1550.2 935.837 1545.68C953.839 1541.17 968.953 1528.53 986.369 1523.21C1003.78 1517.88 1028.23 1525.08 1044.73 1518.54C1064.91 1510.54 1072.36 1485.82 1087.68 1476.89C1106.4 1465.88 1126.11 1461.25 1137.67 1448.8C1151.28 1434.11 1163.96 1419.89 1167.98 1402.89C1172.54 1383.68 1160.07 1366.57 1153.12 1347.98C1146.67 1330.79 1147.84 1309.23 1134.74 1292.52C1122.85 1277.35 1102.75 1266.48 1087.81 1251.68C1073.49 1237.51 1067.67 1215.8 1052.6 1201.84C1039.62 1189.83 1012.41 1189.28 999.849 1177.13C987.29 1164.97 989.55 1141.13 978.414 1128.31C966.826 1115.86 956.488 1102.55 947.518 1088.54C938.433 1073.33 915.407 1062.83 912.267 1046.89C909.127 1030.95 922.44 1014.2 927.38 997.418C932.739 979.275 939.312 961.866 952.876 946.33C965.687 931.639 983.773 921.245 1001.4 909.383C1018.02 897.48 1035.91 887.013 1054.82 878.128C1074.75 869.35 1091.07 851.537 1111.04 846.358C1133.76 840.055 1157.27 836.219 1181.04 834.936C1209.43 834.275 1228.85 852.308 1242.54 863.326C1255.1 873.426 1254.35 882.572 1252.8 901.045C1251.75 913.202 1261.42 929.142 1257.7 946.881C1254.26 963.188 1252.93 983.094 1249.32 1006.6C1246.52 1024.45 1239.65 1043.69 1237.9 1065.95C1236.43 1084.94 1221.65 1102.35 1220.48 1119.72C1219.18 1138.86 1231.41 1157.59 1230.99 1174.81C1230.53 1194.2 1223.58 1212.53 1224.88 1229.5C1226.38 1249.04 1238.73 1265.38 1243.59 1281.8C1249.12 1300.16 1244.01 1322.46 1255.35 1337.11C1265.15 1349.82 1287.13 1353.34 1301.87 1362.82C1315.26 1371.41 1331.17 1374.35 1349.01 1380.26C1364.98 1385.78 1381.49 1390.05 1398.32 1393.01C1417.92 1396.39 1436 1414.13 1456.93 1415.56C1477.16 1416.99 1498.8 1405.68 1519.48 1406.05C1540.16 1406.41 1560.72 1417.43 1581.19 1417.43C1604.43 1417.43 1627.24 1416.04 1649.35 1416.55C1673.29 1417.14 1696.45 1412.44 1717.67 1414.9C1742.41 1417.76 1769.21 1413.91 1788.01 1421.29C1810.15 1429.99 1822.21 1451.52 1832.63 1469.59C1841.59 1485.19 1849.88 1502.42 1848.25 1519.9C1846.7 1536.69 1835.27 1552.96 1827.99 1569.19C1820.45 1585.97 1817.19 1604.89 1807.89 1618.44C1792.74 1640.48 1779.67 1658.84 1775.78 1662.85C1762.59 1677.1 1733.92 1677.54 1718.34 1689.25C1702.77 1700.97 1694.4 1720.73 1676.81 1730.24C1659.23 1739.75 1644.12 1754.92 1625.19 1762.3C1606.27 1769.68 1583.33 1768.88 1563.48 1774.35C1543.64 1779.82 1522.41 1779.75 1502.36 1783.6C1482.31 1787.46 1462.38 1793.56 1442.16 1796.02C1421.22 1798.59 1401.09 1804.76 1380.99 1806.08C1359.68 1807.48 1338.54 1800.28 1318.74 1800.57C1311.91 1800.61 1305.01 1808.07 1297.97 1808.07ZM1186.07 856.165C1165.89 856.165 1145.46 866.338 1120 872.949C1100.4 877.378 1081.3 883.365 1062.94 890.835C1044.35 898.952 1023.92 903.249 1007.47 914.231C991.016 925.212 982.35 942.437 970.125 956.394C956.979 971.305 926.836 978.761 921.729 996.133C915.784 1016.22 926.208 1038.85 932.613 1058.09C939.6 1077.25 949.878 1095.35 963.092 1111.79C975.191 1127.65 994.449 1139.81 1009.94 1155.24C1024.76 1169.93 1035.48 1188.58 1051.13 1202.98C1066.79 1217.38 1080.44 1233.69 1095.01 1248.45C1110.46 1263.8 1127.16 1277.35 1139.34 1293.18C1152.7 1310.52 1169.95 1325.87 1176.35 1343.94C1183.02 1363.73 1183.95 1384.65 1179.07 1404.84C1174.89 1422.83 1171.12 1445.24 1157.1 1460.59C1145 1473.85 1125.57 1486.96 1106.02 1498.49C1089.9 1507.97 1064.41 1507.05 1043.22 1515.46C1026.48 1522.03 1012.16 1535.66 994.03 1541.17C975.902 1546.68 953.546 1537.71 935.418 1542.31C917.291 1546.9 904.522 1569.19 886.436 1573.19C868.35 1577.2 847.166 1573.52 829.332 1577.31C808.692 1581.64 787.466 1582.23 768.25 1586.6C746.145 1591.7 729.399 1605.77 712.611 1611.28C684.268 1620.53 658.186 1624.02 658.186 1636.07C658.186 1648.12 679.872 1659.87 707.127 1675.15C722.701 1683.85 736.432 1702.95 759.375 1711.88C777.628 1719.22 805.217 1710.52 827.364 1717.46C845.533 1723.15 859.6 1745.04 881.245 1750.51C900.335 1755.47 921.352 1759.44 942.703 1764.1C962.338 1768.36 986.745 1757.45 1007.97 1761.27C1028.02 1764.95 1046.19 1779.64 1067.38 1782.69C1087.72 1785.62 1109.24 1785.22 1130.18 1787.53C1151.11 1789.85 1171.41 1795.17 1192.51 1796.68C1213.61 1798.19 1234.38 1797.52 1255.69 1798.15C1277 1798.77 1297.55 1787.57 1318.49 1787.13C1337.91 1786.84 1357.67 1785.26 1378.61 1783.9C1398.37 1782.61 1420.14 1794.7 1440.65 1792.2C1460.49 1789.77 1481.38 1788.53 1501.4 1784.85C1521.41 1781.18 1537.61 1765.68 1556.99 1760.32C1576.38 1754.96 1593.75 1746.73 1612.26 1739.57C1630.76 1732.41 1650.23 1727.93 1667.52 1718.67C1684.81 1709.42 1709.38 1708.24 1724.91 1696.63C1740.45 1685.03 1745.35 1664.09 1758.41 1650.1C1773.27 1639.84 1786.02 1627.42 1796.09 1613.37C1804.92 1600.56 1805.34 1581.93 1812.83 1566.07C1820.33 1550.2 1839.67 1537.42 1841.51 1521.63C1843.52 1504.81 1828.95 1489.49 1820.58 1474.91C1810.78 1457.94 1794.54 1451.99 1772.56 1444.02C1753.01 1437.14 1732.47 1432.69 1711.52 1430.8C1691.17 1428.63 1670.45 1411.96 1647.46 1411.45C1626.24 1410.97 1603.97 1422.98 1581.69 1422.98C1561.01 1422.98 1540.25 1411.96 1519.4 1411.59C1498.55 1411.23 1477.83 1411.92 1457.35 1410.49C1436.13 1409.02 1414.78 1412.62 1394.89 1409.21C1375 1405.79 1353.69 1410.05 1337.58 1404.61C1319.07 1398.33 1307.22 1381.22 1293.16 1372.11C1277.83 1362.19 1260.38 1353.75 1250.04 1340.23C1238.4 1325.14 1235.3 1305.52 1229.52 1286.79C1224.33 1269.97 1214.12 1252.31 1212.44 1232.44C1211.02 1215.06 1208.25 1195.97 1208.72 1176.17C1209.09 1158.58 1230.32 1140.77 1231.62 1121.08C1232.83 1103.38 1220.9 1084.13 1222.41 1064.74C1224.21 1042.23 1218.22 1020.96 1221.23 1003C1224.96 979.238 1237.98 960.36 1241.5 943.87C1245.01 927.379 1253.13 915.259 1254.35 904.461C1256.4 886.575 1250.58 874.051 1240.16 865.64C1229.73 857.23 1209.55 856.165 1186.07 856.165Z" fill="#184788"/>
<path d="M1094.24 671.13C1073.35 671.13 1052.88 675.135 1033.87 671.607C1013.27 667.933 999.195 652.793 982.067 644.855C963.386 636.167 946.744 624.447 933.02 610.313C918.061 596.657 905.157 581.367 894.627 564.819C884.224 547.475 861.999 534.98 853.268 517.048C844.536 499.115 845.832 476.295 835.596 459.538C825.021 441.843 811.457 425.662 795.365 411.546C780.283 398.647 755.175 400.522 732.198 393.503C713.858 387.844 699.403 382.111 681.021 381.964C662.639 381.817 643.421 374.835 624.831 378.657C607.326 382.332 591.158 392.143 572.86 397.876C555.857 403.241 535.929 403.461 517.965 409.672C496.324 417.021 482.078 435.101 464.072 443.443C443.434 452.997 418.661 453.328 401.908 463.507C382.69 475.156 369.865 491.839 354.533 503.488C336.777 516.974 310.416 520.208 296.045 532.482C276.409 549.091 268.054 571.471 250.884 581.944C229.995 594.768 209.441 600.832 184.04 597.966C166.953 596.018 154.796 583.744 138.085 573.859C123.839 565.554 106.084 560.557 92.8824 547.254C80.4249 535.239 69.238 522.25 59.4607 508.449C47.4707 490.7 24.2844 475.376 16.096 455.496C7.90772 435.615 8.03319 411.876 4.48213 391.371C0.693828 369.959 -0.343413 348.239 1.39041 326.622C3.31216 304.574 24.6185 287.523 32.9739 268.415C40.1596 251.952 31.3447 227.992 43.2512 214.249C55.1576 200.505 79.3049 197.161 95.5562 185.806C110.011 175.701 127.516 169.49 146.106 160.597C161.522 153.248 173.345 138.843 190.85 132.375C206.85 126.496 220.72 113.046 238.81 107.424C255.103 102.39 272.482 96.8407 290.739 91.696C307.199 87.0291 325.414 84.3465 343.712 79.4224C362.971 74.1675 385.489 77.6218 405.626 72.2934C425.762 66.965 443.225 57.2269 463.111 52.2293C482.997 47.2316 502.674 42.8587 522.685 38.3387C542.697 33.8188 562.416 29.0416 582.552 25.2199C602.689 21.3982 624.58 26.5428 644.842 23.5295C665.104 20.5162 683.11 2.32626 703.33 0.305151C723.55 -1.71596 745.525 6.99319 765.995 6.22149C786.466 5.44979 806.853 10.7047 827.366 11.3661C847.878 12.0276 869.394 2.87746 889.781 5.22929C910.168 7.58113 928.258 20.6632 948.269 24.8524C968.28 29.0417 984.448 40.8376 1003.96 46.9009C1023.47 52.9642 1049.7 43.0057 1068.42 51.0901C1087.31 58.8393 1105.69 67.513 1123.48 77.0706C1141.61 87.2496 1146.58 114.296 1164.17 126.569C1181.76 138.843 1205.16 143.069 1221.24 156.555C1237.32 170.042 1256.54 180.662 1271.08 195.14C1285.62 209.619 1294.73 228.543 1307.59 243.977C1320.46 259.411 1346.28 269.076 1357.23 285.392C1366.33 299.062 1357.64 320.706 1364.7 334.045C1372.26 348.45 1385.59 360.026 1390.9 373.99C1396.45 389.13 1388.35 405.96 1390.9 420.475C1395.08 442.156 1401.55 460.898 1398.84 480.484C1395.95 501.577 1386.3 518.554 1375.57 536.891C1367.21 551.59 1360.36 566.473 1347.03 579.445C1334.6 592.163 1320.68 603.692 1305.51 613.84C1289.69 623.235 1272.99 631.422 1255.58 638.314C1238.87 645.664 1224.92 661.502 1206.08 666.757C1188.03 671.791 1166.01 660.51 1148.01 663.082C1129.54 665.838 1112.54 671.13 1094.24 671.13ZM679.266 371.454C699.277 371.454 719.581 368.368 739.759 374.615C763.614 381.964 775.103 400.338 790.895 413.787C807.605 427.898 818.342 442.708 829.538 460.714C840.735 478.72 851.806 495.55 860.913 514.255C869.269 531.6 891.285 543.653 901.311 560.373C911.338 577.093 913.469 598.811 927.84 612.995C942.708 627.451 960.375 639.47 980.019 648.493C995.937 655.843 1018.2 648.016 1037.3 651.654C1054.88 655.034 1071.22 660.399 1090.65 660.583C1108.82 660.804 1127.99 668.815 1147 666.205C1165.09 663.707 1182.1 654.851 1200.31 649.779C1218.53 644.708 1238.37 644.267 1254.62 637.175C1271.71 629.826 1280.94 611.966 1295.56 602.669C1311.1 592.711 1333.16 590.285 1345.28 578.673C1358.35 566.105 1363.7 549.091 1371.81 535.127C1381.29 518.812 1402.51 504.407 1405.56 486.731C1408.61 469.055 1396.33 449.469 1393.95 431.169C1391.72 413.24 1387.52 395.542 1381.41 378.326C1375.31 361.679 1375.23 341.579 1366.04 324.932C1357.27 309.094 1340.14 296.159 1329.03 280.835C1317.91 265.511 1305.17 251.658 1292.6 237.326C1280.02 222.995 1256.75 217.372 1243.05 204.253C1229.35 191.135 1220.36 174.01 1205.45 161.884C1190.53 149.757 1174.99 137.851 1159.49 126.974C1142.78 115.398 1135.72 92.6515 1119.26 83.4279C1101.8 73.5796 1073.77 80.8923 1055.93 73.1753C1037.42 65.2011 1024.64 46.5702 1005.8 40.6539C986.955 34.7375 967.319 26.4326 947.726 22.2801C928.132 18.1277 905.949 23.4928 885.729 21.2512C865.509 19.0096 845.163 25.8079 824.901 25.1832C804.639 24.5585 785.213 25.1832 764.909 25.9181C744.605 26.6531 724.928 25.9181 704.708 27.9025C684.488 29.8868 663.224 23.3825 643.212 26.3958C623.201 29.4091 604.36 37.7141 584.724 41.5358C565.089 45.3575 545.12 49.216 525.568 53.6257C506.016 58.0354 486.465 63.3638 467.08 68.3247C447.696 73.2856 425.052 69.9415 405.877 75.0494C386.701 80.1573 371.995 100.773 352.945 105.807C332.056 111.503 308.035 107.387 288.065 113.157C267.177 119.146 244.575 120.249 225.065 126.643C204.177 133.515 189.137 150.565 170.546 158.466C150.368 167.028 126.053 167.69 109.217 178.2C91.1694 189.444 67.9415 198.08 54.4892 212.411C41.037 226.743 47.3454 252.54 39.3659 270.84C33.3519 285.768 29.4785 301.297 27.8354 317.068C25.5377 332.906 3.14514 349.112 4.35668 365.905C5.56821 381.927 20.1902 397.729 24.4933 413.971C28.7963 430.213 39.5329 443.773 46.5515 459.134C53.57 474.494 55.9515 491.361 65.5603 505.546C75.169 519.73 97.1855 523.478 108.048 534.466C120.581 547.034 120.288 569.376 133.615 577.35C149.658 586.978 169.502 587.162 185.293 588.926C188.636 589.293 191.602 600.428 194.819 600.428C215.248 600.428 235.76 586.721 254.267 574.41C268.848 564.709 286.812 554.199 303.648 539.941C317.936 527.851 330.719 511.83 349.185 497.865C365.474 484.887 382.574 472.717 400.404 461.412C418.835 450.913 437.946 441.367 457.638 432.823C476.02 424.297 491.311 406.769 513.16 399.235C531.333 392.952 554.937 401.367 572.317 395.965C590.782 390.159 604.025 371.565 621.781 367.927C640.664 363.737 660.675 371.454 679.266 371.454Z" fill="#E88688"/>
</svg>
