<?xml version="1.0" encoding="utf-8"?>
<!-- Generator: Adobe Illustrator 25.4.1, SVG Export Plug-In . SVG Version: 6.00 Build 0)  -->
<svg version="1.1" id="Layer_1" xmlns="http://www.w3.org/2000/svg" xmlns:xlink="http://www.w3.org/1999/xlink" x="0px" y="0px"
	 viewBox="0 0 59.2 59.2" style="enable-background:new 0 0 59.2 59.2;" xml:space="preserve">
<style type="text/css">
	.st0{fill:#FFFFFF;}
	.st1{fill:#FDC988;}
	.st2{fill:#34A7DF;}
	.st3{fill:#184788;}
</style>
<g>
	<path class="st2" d="M59.2,59.2H0V0h59.2V59.2z M1,58.2h57.2V1H1V58.2z"/>
</g>
<g>
	<g>
		<path class="st2" d="M7.1,9.1C8.6,8.6,9.2,7.9,9,6.8c-0.1-0.7-1.4,0-2.2,0.8C5.8,8.5,6,9.5,7.1,9.1z"/>
	</g>
	<g>
		<path class="st2" d="M15.8,6.6c0.3-0.8-0.9-0.5-1.6-0.1c-1.2,0.7-0.8,1.2-1.8,2.2c-1,1-1.1,0.9-2.1,1.9c-1,1-1.1,0.9-2.1,1.9
			s-1.1,0.9-1.8,2.1c-0.4,0.8-1.1,1.9-0.3,1.7c1.5-0.5,1.1-1.4,2.3-2.6c1.2-1.2,1.2-1.2,2.4-2.4c1.2-1.2,1.2-1.2,2.6-2.2
			C14.8,8.1,15.2,8.2,15.8,6.6z"/>
	</g>
	<g>
		<path class="st2" d="M22.2,6.5c0.2-0.8-0.6-0.3-1.3,0.1c-1.2,0.7-1.3,0.7-2.3,1.7c-1,1-1,1.1-2,2.1c-1,1-0.8,1.3-1.9,2.3
			c-1,1-1.2,0.9-2.2,1.9c-1,1-1.1,1-2.1,2c-1,1-1,1-2.1,2.1c-1,1-1.3,0.9-2.1,2.2c-0.4,0.7-0.6,1.6,0.1,1.4c1.3-0.3,0.8-1,1.8-2
			c1-1,1.3-0.7,2.3-1.7c1-1,0.7-1.3,1.7-2.3c1-1,1.1-0.9,2.1-1.9c1-1,1.2-0.7,2.2-1.7c1-1,0.9-1.1,1.9-2.1c1-1,0.9-1.2,2-2
			C21.4,7.6,21.7,7.9,22.2,6.5z"/>
	</g>
	<g>
		<path class="st2" d="M7.2,26.4c-0.2,0.8,1.1,0.5,1.7,0.2c1.2-0.7,0.9-1.2,1.9-2.2c1-1,1.3-0.7,2.3-1.7c1-1,0.5-1.6,1.5-2.6
			c1-1,1.3-0.6,2.3-1.6c1-1,0.8-1.2,1.8-2.2c1-1,1.4-0.4,2.4-1.4c1-1,1.1-0.9,2.1-1.9c1-1,0.6-1.5,1.6-2.5c1-1,1.2-0.7,2.2-1.7
			c1-1,1.3-0.8,1.7-2.2c0.2-0.8-0.6-0.4-1.3,0c-1.2,0.7-1,1-2,2c-1,1-0.7,1.3-1.7,2.3c-1,1-1.6,0.3-2.6,1.3c-1,1-0.7,1.3-1.7,2.3
			c-1,1-1,0.9-2,1.9c-1,1-0.5,1.6-1.5,2.6c-1,1-1.6,0.3-2.6,1.3c-1,1-0.7,1.4-1.7,2.4c-1,1-1.1,0.8-2.2,1.5C8,24.9,7.6,25,7.2,26.4z
			"/>
	</g>
	<g>
		<path class="st2" d="M34.8,6.4c0.2-0.8-0.3-0.2-0.9,0.1c-1.2,0.7-1.2,0.7-2.2,1.7c-1,1-0.5,1.6-1.5,2.6c-1,1-1.4,0.5-2.4,1.5
			c-1,1-0.8,1.2-1.8,2.2c-1,1-1,0.9-2,1.9c-1,1-0.7,1.4-1.7,2.4c-1,1-1.3,0.7-2.3,1.7c-1,1-0.8,1.3-1.8,2.3c-1,1-1,1-2,2
			c-1,1-1.9,0.2-2.3,1.6c-0.2,0.8,0.7,0.4,1.4,0c1.2-0.7,1-1,2-2c1-1,0.7-1.4,1.7-2.4c1-1,1.4-0.5,2.4-1.5c1-1,1.1-0.9,2.1-1.9
			c1-1,1-1,2-2c1-1,1-1,2-2c1-1,0.5-1.6,1.5-2.6c1-1,1.6-0.2,2.6-1.2c1-1,0.3-2,1.3-2.9C34,7.2,34.4,7.8,34.8,6.4z"/>
	</g>
	<g>
		<path class="st2" d="M42,6.6c0.2-0.8-1.1-0.8-1.8-0.4c-1.2,0.7-0.9,1.3-1.9,2.3c-1,1-0.8,1.3-1.8,2.3c-1,1-1.3,0.6-2.3,1.6
			s-0.7,1.3-1.7,2.3c-1,1-1.1,0.8-2.1,1.8c-1,1-1.3,0.6-2.3,1.6c-1,1-0.6,1.5-1.6,2.5c-1,1-0.9,1.2-1.9,2.2c-1,1-1.1,0.9-2.1,1.9
			c-1,1-1.6,0.6-2,1.9c-0.2,0.8,0.5,0,1.2-0.4c1.2-0.7,1.3-0.4,2.3-1.4c1-1,0.8-1.3,1.8-2.3c1-1,1.2-0.8,2.1-1.8
			c1-1,0.9-1.2,1.9-2.2c1-1,0.7-1.4,1.7-2.3c1-1,1.3-0.6,2.3-1.6c1-1,1.2-0.7,2.2-1.7c1-1,0.4-1.7,1.4-2.7c1-1,1.1-1.1,2.2-1.9
			C40.9,7.4,41.6,8,42,6.6z"/>
	</g>
	<g>
		<path class="st2" d="M48,6.4c0.2-0.8-0.5-0.5-1.1-0.1c-1.2,0.7-0.9,1.2-1.9,2.2c-1,1-1.3,0.6-2.3,1.6c-1,1-0.5,1.6-1.5,2.6
			c-1,1-0.9,1.1-1.9,2.1c-1,1-1.4,0.5-2.4,1.5c-1,1-0.6,1.5-1.6,2.4c-1,1-1.5,0.4-2.5,1.4c-1,1-0.4,1.8-1.4,2.8
			c-1,1-1.2,0.8-2.2,1.8c-1,1-2.1,0.3-2.5,1.7c-0.2,0.8,1.2,0.7,1.8,0.3c1.2-0.7,0.7-1.5,1.7-2.5c1-1,1.1-0.9,2.1-1.9
			c1-1,1-0.9,2-1.9c1-1,0.7-1.4,1.7-2.4c1-1,1-1,2-2c1-1,1.6-0.2,2.6-1.2c1-1,0.8-1.2,1.8-2.2c1-1,0.8-1.2,1.8-2.2
			c1-1,1.3-0.6,2.3-1.5C47.6,8.1,47.5,7.8,48,6.4z"/>
	</g>
	<g>
		<path class="st2" d="M33.2,26.4c-0.2,0.8,1.2,0.8,1.8,0.4c1.2-0.7,0.7-1.6,1.7-2.6c1-1,1.3-0.6,2.3-1.6c1-1,1-1.1,2-2.1
			c1-1,1.2-0.8,2.2-1.8c1-1,1.1-0.9,2.1-1.9c1-1,0.9-1.2,1.9-2.2c1-1,0.9-1.1,1.9-2.1c1-1,1-1.1,2-2.1s0.9-1,1.6-2.3
			c0.4-0.7,1.2-1.4,0.5-1.3c-1.2,0.3-1.1,0.8-2.1,1.8c-1,1-0.8,1.2-1.8,2.2c-1,1-0.9,1.1-1.9,2.1c-1,1-1.5,0.3-2.5,1.3
			c-1,1-0.8,1.2-1.8,2.2c-1,1-0.5,1.6-1.5,2.5c-1,1-1.4,0.5-2.4,1.5c-1,1-0.7,1.3-1.7,2.3c-1,1-1.2,0.6-2.3,1.3
			C34,24.9,33.6,25.1,33.2,26.4z"/>
	</g>
	<g>
		<path class="st2" d="M52.8,15.1c0.4-0.7,0.9-2,0.2-1.8c-1.4,0.4-1.2,1.1-2.3,2.2c-1.1,1.1-1.1,1.1-2.1,2.2
			c-1.1,1.1-0.8,1.4-1.9,2.5c-1.1,1.1-1.3,0.8-2.3,1.9c-1.1,1.1-0.9,1.3-2,2.4c-1.1,1.1-2,0.5-2.5,2c-0.3,0.8,1,0.4,1.6,0
			c1.3-0.8,1.2-1,2.3-2.2c1.1-1.1,1.1-1.2,2.2-2.3c1.1-1.1,1.1-1.2,2.2-2.3c1.1-1.1,1-1.4,2.2-2.4C51.6,16.2,51.9,16.5,52.8,15.1z"
			/>
	</g>
	<g>
		<path class="st2" d="M52.6,21.9c0.5-0.9,1.1-2.3,0.3-1.9c-2,0.8-1.6,1.6-3.2,3.2s-2.1,1.2-3.1,3.3c-0.4,0.9,0.9,0.4,1.7,0
			c1.3-0.7,1-1.2,2.2-2.3C51.6,23.1,51.8,23.3,52.6,21.9z"/>
	</g>
</g>
</svg>
