<?xml version="1.0" encoding="utf-8"?>
<!-- Generator: Adobe Illustrator 25.4.1, SVG Export Plug-In . SVG Version: 6.00 Build 0)  -->
<svg version="1.1" id="Layer_1" xmlns="http://www.w3.org/2000/svg" xmlns:xlink="http://www.w3.org/1999/xlink" x="0px" y="0px"
	 viewBox="0 0 54.4 54.4" style="enable-background:new 0 0 54.4 54.4;" xml:space="preserve">
<style type="text/css">
	.st0{fill:#FFFFFF;}
	.st1{fill:#FDC988;}
	.st2{fill:#34A7DF;}
	.st3{fill:#184788;}
</style>
<g>
	<g>
		<path class="st2" d="M7.6,44c0.4,0.2,1,0.3,1.6,0.3c0.7,0,1.2-0.1,1.6-0.4c0.4-0.2,0.8-0.6,1-1c0.3-0.4,0.4-0.9,0.5-1.4l0.5-2.8
			h-1.3l-0.1,1c0,0-0.1-0.1-0.1-0.1c-0.2-0.3-0.6-0.5-1-0.7C10,38.6,9.6,38.6,9,38.6c-0.6,0-1.2,0.1-1.6,0.4c-0.5,0.2-0.9,0.6-1.1,1
			c-0.3,0.4-0.4,0.9-0.4,1.5c0,0.5,0.1,1,0.4,1.5c0.1,0.2,0.3,0.4,0.5,0.6c-0.1,0-0.1,0.1-0.2,0.2c-0.2,0.1-0.3,0.3-0.4,0.5
			C6,44.3,6,44.5,6,44.8c0,0.4,0.1,0.7,0.4,0.9c0.3,0.2,0.7,0.4,1.1,0.4l2.7,0.2c0.3,0,0.6,0.1,0.8,0.1c0.2,0.1,0.3,0.2,0.3,0.5
			c0,0.2-0.1,0.3-0.2,0.5c-0.2,0.1-0.4,0.2-0.7,0.3c-0.3,0.1-0.7,0.1-1.2,0.1c-0.7,0-1.2-0.1-1.6-0.2C7.2,47.5,7,47.3,7,47
			c0-0.1,0-0.2,0-0.3c0-0.1,0.1-0.2,0.1-0.2l-1.3-0.2c-0.1,0.1-0.1,0.2-0.1,0.3c0,0.1-0.1,0.3-0.1,0.5c0,0.6,0.3,1,0.9,1.4
			c0.6,0.3,1.5,0.5,2.6,0.5c0.8,0,1.5-0.1,2-0.3c0.5-0.2,0.9-0.4,1.2-0.7c0.3-0.3,0.4-0.7,0.4-1.1c0-0.4-0.1-0.7-0.3-0.9
			c-0.2-0.2-0.4-0.4-0.7-0.5c-0.3-0.1-0.7-0.2-1-0.2l-2.5-0.2c-0.4,0-0.6-0.1-0.7-0.2c-0.1-0.1-0.2-0.2-0.2-0.4
			C7.3,44.3,7.4,44.2,7.6,44C7.5,44,7.6,44,7.6,44z M7.5,40.5c0.2-0.2,0.4-0.4,0.7-0.6c0.3-0.1,0.6-0.2,1-0.2c0.4,0,0.7,0.1,1,0.2
			c0.3,0.1,0.5,0.3,0.6,0.6c0.2,0.2,0.2,0.5,0.2,0.9c0,0.3-0.1,0.6-0.2,0.9c-0.2,0.2-0.4,0.4-0.6,0.6c-0.3,0.1-0.6,0.2-1,0.2
			c-0.4,0-0.7-0.1-1-0.2c-0.3-0.1-0.5-0.3-0.6-0.6c-0.2-0.2-0.2-0.5-0.2-0.9C7.3,41.1,7.3,40.8,7.5,40.5z"/>
		<path class="st2" d="M20.5,45.3c0-0.1-0.1-0.3-0.1-0.4c0-0.2,0-0.3,0-0.5v-2.9c0-0.1,0-0.2,0-0.3c0-0.1,0-0.2,0-0.3
			c0-0.5-0.1-1-0.4-1.3c-0.3-0.4-0.7-0.6-1.2-0.8c-0.5-0.2-1-0.3-1.6-0.3c-0.6,0-1.2,0.1-1.7,0.3c-0.5,0.2-0.9,0.5-1.2,0.9
			c-0.3,0.4-0.4,0.9-0.4,1.4h1.4c0-0.5,0.2-0.8,0.5-1c0.3-0.2,0.8-0.3,1.4-0.3c0.6,0,1,0.1,1.3,0.3c0.3,0.2,0.5,0.5,0.5,0.8
			c0,0,0,0,0,0c0,0.2-0.2,0.3-0.5,0.4c-0.3,0.1-0.9,0.2-1.8,0.3c-0.6,0.1-1.1,0.2-1.5,0.3c-0.4,0.2-0.8,0.4-1,0.7
			c-0.3,0.3-0.4,0.7-0.4,1.2c0,0.5,0.1,0.8,0.3,1.2c0.2,0.3,0.5,0.6,0.9,0.7c0.4,0.2,0.9,0.3,1.4,0.3c0.5,0,0.9-0.1,1.2-0.2
			c0.4-0.1,0.7-0.3,1-0.5c0.1-0.1,0.3-0.2,0.4-0.3c0,0.1,0,0.2,0.1,0.3c0,0.1,0.1,0.2,0.1,0.3c0.1,0.1,0.1,0.1,0.1,0.2h1.4
			c0,0-0.1-0.1-0.1-0.2C20.6,45.6,20.5,45.5,20.5,45.3z M18.6,44c-0.2,0.3-0.5,0.5-0.8,0.6c-0.3,0.1-0.7,0.2-1.1,0.2
			c-0.5,0-0.9-0.1-1.1-0.3c-0.3-0.2-0.4-0.4-0.4-0.8c0-0.4,0.2-0.6,0.5-0.8c0.3-0.2,0.8-0.3,1.3-0.3c0.4,0,0.9-0.1,1.3-0.2
			c0.3,0,0.5-0.1,0.7-0.2v0.6C18.9,43.4,18.8,43.7,18.6,44z"/>
		<rect x="22.2" y="35.3" class="st2" width="1.4" height="10.6"/>
		<rect x="25.7" y="35.3" class="st2" width="1.4" height="10.6"/>
		<path class="st2" d="M34.3,39c-0.5-0.3-1.2-0.5-1.9-0.5c-0.7,0-1.4,0.2-1.9,0.5c-0.6,0.3-1,0.8-1.3,1.3c-0.3,0.6-0.5,1.2-0.5,2
			c0,0.7,0.2,1.4,0.5,1.9c0.3,0.6,0.7,1,1.3,1.3c0.6,0.3,1.2,0.5,1.9,0.5c0.5,0,1-0.1,1.5-0.2c0.4-0.1,0.8-0.3,1.1-0.6
			c0.3-0.2,0.5-0.5,0.7-0.8c0.2-0.3,0.3-0.6,0.3-0.9h-1.4c0,0.1-0.1,0.3-0.1,0.4c-0.1,0.1-0.2,0.3-0.4,0.4c-0.2,0.1-0.4,0.2-0.6,0.3
			c-0.3,0.1-0.5,0.1-0.9,0.1c-0.5,0-0.9-0.1-1.3-0.3c-0.3-0.2-0.6-0.5-0.8-0.9c-0.1-0.2-0.2-0.5-0.2-0.8H36c0,0,0-0.1,0-0.2
			c0-0.1,0-0.2,0-0.3c0-0.7-0.1-1.4-0.4-1.9C35.3,39.8,34.9,39.3,34.3,39z M31.2,40.1c0.3-0.2,0.8-0.3,1.2-0.3
			c0.5,0,0.8,0.1,1.2,0.3c0.3,0.2,0.5,0.4,0.7,0.7c0.1,0.3,0.2,0.5,0.2,0.8h-4.3c0-0.3,0.1-0.5,0.2-0.7
			C30.6,40.6,30.9,40.3,31.2,40.1z"/>
		<path class="st2" d="M41.1,38.6c-0.4,0-0.7,0.1-1,0.2c-0.3,0.1-0.5,0.3-0.7,0.5c-0.1,0.1-0.2,0.3-0.3,0.4v-1h-1.4v7.2h1.4v-3.8
			c0-0.3,0-0.5,0.1-0.8c0.1-0.3,0.2-0.5,0.3-0.7c0.1-0.2,0.3-0.4,0.6-0.5c0.2-0.1,0.5-0.2,0.9-0.2c0.2,0,0.4,0,0.6,0.1
			c0.1,0,0.2,0.1,0.3,0.1l0.3-1.4c0,0-0.1-0.1-0.3-0.1C41.6,38.6,41.3,38.6,41.1,38.6z"/>
		<path class="st2" d="M47.6,38.7l-1.7,5.8l-1.7-5.8h-1.5l2.4,7.3l-0.2,0.5c-0.1,0.2-0.2,0.5-0.3,0.7c-0.1,0.2-0.3,0.3-0.5,0.5
			c-0.2,0.1-0.4,0.2-0.7,0.2c-0.1,0-0.3,0-0.4,0c-0.1,0-0.2,0-0.3-0.1v1.2c0,0,0.1,0,0.3,0.1c0.2,0,0.3,0,0.5,0
			c0.6,0,1.1-0.1,1.5-0.3c0.4-0.2,0.7-0.5,0.9-0.9c0.2-0.4,0.4-0.8,0.6-1.3l2.5-7.7H47.6z"/>
		<path class="st2" d="M6.4,34.8c0,0.1,0,0.1,0,0.2c0,0.1,0,0.1,0,0.2c0,0.2,0,0.4,0.1,0.6c0.1,0.2,0.2,0.3,0.3,0.4
			c0.1,0.1,0.3,0.1,0.4,0.2c0.1,0,0.3,0,0.4,0c0.1,0,0.2,0,0.3,0c0.1,0,0.2,0,0.2-0.1v-0.7c0,0-0.1,0-0.2,0c-0.1,0-0.2,0-0.2,0
			c-0.2,0-0.3-0.1-0.4-0.2c-0.1-0.1-0.1-0.3-0.1-0.5c0,0,0-0.1,0-0.2c0-0.1,0-0.1,0-0.2v-2h1.3v-0.8H7.3v-1.5H6.4v0.9
			c0,0.1,0,0.3,0,0.3c0,0.1,0,0.1-0.1,0.2c0,0-0.1,0.1-0.1,0.1c-0.1,0-0.2,0-0.3,0H5.3v0.8h1V34.8z"/>
		<path class="st2" d="M11.8,31.7c-0.4,0-0.7,0.1-1,0.2c-0.2,0.1-0.3,0.2-0.5,0.4v-2.7H9.4v6.5h0.9v-2.6c0-0.2,0-0.4,0.1-0.6
			c0.1-0.2,0.2-0.3,0.4-0.4c0.2-0.1,0.4-0.1,0.6-0.1c0.4,0,0.6,0.1,0.8,0.3c0.2,0.2,0.2,0.5,0.2,0.9c0,0.1,0,0.2,0,0.3
			c0,0.1,0,0.2,0,0.3c0,0.1,0,0.2,0,0.3v1.6h0.9v-1.5c0-0.2,0-0.4,0-0.6c0-0.2,0-0.4,0-0.5c0-0.6-0.1-1-0.4-1.3
			C12.7,31.9,12.3,31.7,11.8,31.7z"/>
		<path class="st2" d="M15.5,36c0.3,0.2,0.7,0.3,1.2,0.3c0.3,0,0.6,0,0.9-0.1c0.3-0.1,0.5-0.2,0.7-0.3c0.2-0.1,0.3-0.3,0.4-0.5
			c0.1-0.2,0.2-0.4,0.2-0.5h-0.9c0,0.1,0,0.2-0.1,0.3c-0.1,0.1-0.1,0.2-0.2,0.2c-0.1,0.1-0.2,0.1-0.4,0.2c-0.2,0-0.3,0.1-0.5,0.1
			c-0.3,0-0.6-0.1-0.8-0.2c-0.2-0.1-0.4-0.3-0.5-0.5c-0.1-0.2-0.1-0.3-0.1-0.5h3.6c0,0,0-0.1,0-0.1c0-0.1,0-0.1,0-0.2
			c0-0.4-0.1-0.8-0.3-1.2c-0.2-0.3-0.4-0.6-0.8-0.8c-0.3-0.2-0.7-0.3-1.2-0.3c-0.4,0-0.8,0.1-1.2,0.3c-0.3,0.2-0.6,0.5-0.8,0.8
			c-0.2,0.3-0.3,0.7-0.3,1.2c0,0.4,0.1,0.8,0.3,1.2C14.9,35.5,15.1,35.8,15.5,36z M15.9,32.6c0.2-0.1,0.5-0.2,0.7-0.2
			c0.3,0,0.5,0.1,0.7,0.2c0.2,0.1,0.3,0.3,0.4,0.5c0.1,0.2,0.1,0.3,0.1,0.5h-2.7c0-0.2,0.1-0.3,0.1-0.4
			C15.5,32.9,15.7,32.7,15.9,32.6z"/>
	</g>
	<g>
		<path class="st2" d="M54.4,54.4H0V0h54.4V54.4z M0.9,53.5h52.6V0.9H0.9V53.5z"/>
	</g>
	<g>
		<g>
			<path class="st2" d="M6.5,8.3c1.4-0.5,1.9-1.1,1.8-2.1C8.2,5.6,7,6.3,6.3,7C5.4,7.8,5.5,8.7,6.5,8.3z"/>
		</g>
		<g>
			<path class="st2" d="M14.5,6.1C14.8,5.3,13.7,5.6,13,6c-1.1,0.6-0.8,1.1-1.7,2c-0.9,0.9-1,0.8-1.9,1.7c-0.9,0.9-1,0.8-1.9,1.7
				c-0.9,0.9-1,0.8-1.6,2c-0.4,0.7-1,1.7-0.3,1.5c1.4-0.4,1-1.2,2.1-2.3c1.1-1.1,1.1-1.1,2.2-2.2c1.1-1.1,1.1-1.1,2.3-2
				C13.6,7.4,14,7.6,14.5,6.1z"/>
		</g>
		<g>
			<path class="st2" d="M20.4,6c0.2-0.7-0.6-0.3-1.2,0.1c-1.1,0.7-1.2,0.6-2.1,1.6c-0.9,0.9-0.9,1-1.9,1.9c-0.9,0.9-0.8,1.2-1.7,2.1
				c-0.9,0.9-1.1,0.8-2,1.8c-0.9,0.9-1,0.9-1.9,1.8c-0.9,1-0.9,1-1.9,1.9s-1.2,0.8-1.9,2c-0.4,0.6-0.6,1.5,0.1,1.3
				c1.2-0.3,0.7-0.9,1.7-1.8c0.9-0.9,1.2-0.6,2.1-1.5c0.9-0.9,0.7-1.2,1.6-2.2c0.9-0.9,1-0.8,1.9-1.7c0.9-0.9,1.1-0.7,2-1.6
				c0.9-0.9,0.8-1,1.8-1.9c0.9-0.9,0.8-1.1,1.8-1.8C19.6,7,20,7.2,20.4,6z"/>
		</g>
		<g>
			<path class="st2" d="M6.6,24.3c-0.2,0.7,1,0.5,1.6,0.1c1.1-0.6,0.8-1.1,1.7-2c0.9-0.9,1.2-0.6,2.1-1.5c0.9-0.9,0.5-1.5,1.4-2.4
				c0.9-0.9,1.2-0.6,2.1-1.5c0.9-0.9,0.7-1.1,1.6-2.1c0.9-0.9,1.3-0.4,2.2-1.3c0.9-0.9,1-0.8,1.9-1.7c0.9-0.9,0.6-1.3,1.5-2.3
				c0.9-0.9,1.1-0.7,2-1.6s1.2-0.7,1.6-2c0.2-0.7-0.6-0.3-1.2,0c-1.1,0.6-0.9,0.9-1.9,1.8c-0.9,0.9-0.7,1.2-1.6,2.1
				c-0.9,0.9-1.5,0.2-2.4,1.2c-0.9,0.9-0.7,1.2-1.6,2.1c-0.9,0.9-1,0.9-1.9,1.8c-0.9,0.9-0.5,1.4-1.4,2.4c-0.9,0.9-1.4,0.3-2.4,1.2
				c-0.9,0.9-0.6,1.3-1.5,2.2c-0.9,0.9-1,0.7-2,1.4C7.3,22.9,7,23,6.6,24.3z"/>
		</g>
		<g>
			<path class="st2" d="M32,5.9c0.2-0.7-0.2-0.2-0.8,0.1c-1.1,0.6-1.1,0.7-2,1.6C28.2,8.5,28.6,9,27.7,10c-0.9,0.9-1.3,0.4-2.2,1.3
				c-0.9,0.9-0.7,1.1-1.7,2c-0.9,0.9-1,0.9-1.9,1.8c-0.9,0.9-0.6,1.3-1.5,2.2c-0.9,0.9-1.2,0.6-2.1,1.5c-0.9,0.9-0.7,1.2-1.6,2.1
				c-0.9,0.9-0.9,1-1.8,1.9s-1.7,0.2-2.1,1.5c-0.2,0.7,0.7,0.4,1.3,0c1.1-0.6,0.9-0.9,1.9-1.8c0.9-0.9,0.6-1.2,1.6-2.2
				c0.9-0.9,1.3-0.5,2.2-1.4c0.9-0.9,1-0.8,1.9-1.8c0.9-0.9,0.9-0.9,1.8-1.8c0.9-0.9,0.9-0.9,1.8-1.9c0.9-0.9,0.5-1.5,1.4-2.4
				c0.9-0.9,1.5-0.2,2.4-1.1c0.9-0.9,0.3-1.8,1.2-2.7C31.2,6.6,31.6,7.1,32,5.9z"/>
		</g>
		<g>
			<path class="st2" d="M38.6,6c0.2-0.7-1-0.8-1.6-0.4c-1.1,0.6-0.8,1.2-1.8,2.1c-0.9,0.9-0.7,1.2-1.6,2.1c-0.9,0.9-1.2,0.6-2.1,1.5
				c-0.9,0.9-0.7,1.2-1.6,2.2c-0.9,0.9-1.1,0.7-2,1.7c-0.9,0.9-1.2,0.6-2.1,1.5c-0.9,0.9-0.6,1.4-1.5,2.3c-0.9,0.9-0.8,1.1-1.7,2
				c-0.9,0.9-1,0.8-1.9,1.7c-0.9,0.9-1.4,0.5-1.8,1.8c-0.2,0.7,0.5,0,1.1-0.4c1.1-0.6,1.2-0.4,2.1-1.3c0.9-0.9,0.7-1.2,1.6-2.1
				c0.9-0.9,1.1-0.7,2-1.7c0.9-0.9,0.8-1.1,1.7-2c0.9-0.9,0.7-1.2,1.6-2.2c0.9-0.9,1.2-0.6,2.1-1.5c0.9-0.9,1.1-0.6,2-1.6
				c0.9-0.9,0.4-1.6,1.3-2.5c0.9-0.9,1-1,2-1.7C37.6,6.8,38.2,7.3,38.6,6z"/>
		</g>
		<g>
			<path class="st2" d="M44,5.9c0.2-0.7-0.4-0.4-1-0.1c-1.1,0.6-0.8,1.1-1.8,2c-0.9,0.9-1.2,0.5-2.1,1.4c-0.9,0.9-0.5,1.4-1.4,2.4
				c-0.9,0.9-0.8,1-1.7,1.9c-0.9,0.9-1.3,0.5-2.2,1.4c-0.9,0.9-0.6,1.3-1.5,2.2c-0.9,0.9-1.4,0.3-2.3,1.3c-0.9,0.9-0.3,1.6-1.3,2.6
				c-0.9,0.9-1.1,0.7-2,1.6c-0.9,0.9-1.9,0.3-2.3,1.6c-0.2,0.7,1.1,0.6,1.7,0.3c1.1-0.6,0.7-1.3,1.6-2.3c0.9-0.9,1-0.8,1.9-1.7
				c0.9-0.9,1-0.9,1.9-1.8c0.9-0.9,0.6-1.3,1.5-2.2c0.9-0.9,0.9-0.9,1.9-1.8c0.9-0.9,1.5-0.2,2.4-1.1c0.9-0.9,0.7-1.1,1.7-2.1
				c0.9-0.9,0.7-1.1,1.7-2.1c0.9-0.9,1.2-0.5,2.2-1.4C43.7,7.4,43.7,7.2,44,5.9z"/>
		</g>
		<g>
			<path class="st2" d="M30.5,24.3c-0.2,0.7,1.1,0.7,1.7,0.4c1.1-0.6,0.6-1.5,1.5-2.4c0.9-0.9,1.2-0.6,2.1-1.5
				c0.9-0.9,0.9-1,1.8-1.9c0.9-0.9,1.1-0.7,2-1.7c0.9-0.9,1-0.9,1.9-1.8c0.9-0.9,0.8-1.1,1.7-2c0.9-0.9,0.8-1,1.8-1.9
				c0.9-0.9,0.9-1,1.8-1.9c0.9-0.9,0.8-1,1.5-2.1c0.4-0.6,1.1-1.3,0.5-1.2c-1.1,0.3-1,0.7-1.9,1.6c-0.9,0.9-0.7,1.1-1.6,2
				c-0.9,0.9-0.8,1-1.7,1.9c-0.9,0.9-1.4,0.3-2.3,1.2c-0.9,0.9-0.7,1.1-1.6,2c-0.9,0.9-0.5,1.4-1.4,2.3c-0.9,0.9-1.3,0.4-2.2,1.3
				c-0.9,0.9-0.7,1.2-1.6,2.1c-0.9,0.9-1.1,0.5-2.1,1.2C31.2,22.9,30.9,23,30.5,24.3z"/>
		</g>
		<g>
			<path class="st2" d="M48.4,13.9c0.4-0.6,0.8-1.8,0.2-1.6c-1.3,0.3-1.1,1-2.1,2c-1,1-1,1-2,2c-1,1-0.8,1.3-1.8,2.3
				c-1,1-1.2,0.8-2.1,1.8c-1,1-0.8,1.2-1.8,2.2c-1,1-1.8,0.4-2.3,1.8c-0.2,0.7,0.9,0.4,1.5,0c1.2-0.7,1.1-0.9,2.1-2c1-1,1-1.1,2-2.1
				c1-1,1-1.1,2-2.1c1-1,0.9-1.2,2-2.2C47.4,14.9,47.7,15.2,48.4,13.9z"/>
		</g>
		<g>
			<path class="st2" d="M48.3,20.1c0.5-0.8,1-2.1,0.3-1.8c-1.8,0.8-1.5,1.5-3,2.9c-1.5,1.5-1.9,1.1-2.8,3c-0.4,0.8,0.8,0.4,1.5,0
				c1.2-0.7,0.9-1.1,2-2.1C47.4,21.2,47.6,21.4,48.3,20.1z"/>
		</g>
	</g>
</g>
</svg>
